999
"DXF R12 Output" (www.mydxf.blogspot.com)
 0 
SECTION
 2 
HEADER
 9 
$ACADVER
 1 
AC1009
 9 
$EXTMIN
 10 
 0 
 20 
 0 
 9 
$EXTMAX
 10 
 8.5 
 20 
 11 
 0 
ENDSEC
 0 
SECTION
 2 
ENTITIES
0
LINE
8
Calque 1
10
0.035562
20
40.000192
11
39.964424
21
40.000192
0
LINE
8
Calque 1
10
39.964424
20
40.000192
11
39.989575
21
39.989774
0
LINE
8
Calque 1
10
39.989575
20
39.989774
11
39.999993
21
39.964623
0
LINE
8
Calque 1
10
39.999993
20
39.964623
11
39.999993
21
0.035761
0
LINE
8
Calque 1
10
39.999993
20
0.035761
11
39.989575
21
0.010610
0
LINE
8
Calque 1
10
39.989575
20
0.010610
11
39.964424
21
0.000192
0
LINE
8
Calque 1
10
39.964424
20
0.000192
11
0.035562
21
0.000192
0
LINE
8
Calque 1
10
0.035562
20
0.000192
11
0.010411
21
0.010610
0
LINE
8
Calque 1
10
0.010411
20
0.010610
11
-0.000007
21
0.035761
0
LINE
8
Calque 1
10
-0.000007
20
0.035761
11
-0.000007
21
39.964623
0
LINE
8
Calque 1
10
-0.000007
20
39.964623
11
0.010411
21
39.989774
0
LINE
8
Calque 1
10
0.010411
20
39.989774
11
0.035562
21
40.000192
0
LINE
8
Calque 1
10
0.035562
20
40.000192
11
0.035562
21
40.000192
 0 
ENDSEC
 0 
EOF