<svg class="svg--816" height="100%" preserveAspectRatio="xMidYMid meet" viewBox="0 0 652 425" width="100%"><defs><marker id="marker-arrow" markerHeight="16" markerUnits="userSpaceOnUse" markerWidth="24" orient="auto-start-reverse" refX="24" refY="4" viewBox="0 0 24 8"><path d="M 0 0 L 24 4 L 0 8 z" stroke="inherit"></path></marker></defs><g class="aux-layer--949"><g class="element--733"><line stroke="#000000" stroke-dasharray="20, 10, 1, 10" stroke-linecap="round" stroke-width="1" x1="403.3" x2="304" y1="240.35" y2="339.65000000000003"></line></g><g class="element--733"><line stroke="#000000" stroke-dasharray="20, 10, 1, 10" stroke-linecap="round" stroke-width="1" x1="403.3" x2="594.65" y1="240.35" y2="240.35"></line></g><g class="element--733"><line stroke="#000000" stroke-dasharray="none" stroke-linecap="round" stroke-width="1" x1="578.3787401574804" x2="588.4007260325653" y1="208.0035433070866" y2="197.9815574320017"></line></g><g class="element--733"><line stroke="#000000" stroke-dasharray="none" stroke-linecap="round" stroke-width="2" x1="573.3787401574804" x2="573.3787401574804" y1="212.00354330708745" y2="240.35"></line></g><g class="element--733"><line stroke="#000000" stroke-dasharray="none" stroke-linecap="round" stroke-width="1" x1="521.2468249069709" x2="496.02874015748034" y1="292.4819152505095" y2="317.7"></line></g><g class="element--733"><line stroke="#000000" stroke-dasharray="none" stroke-linecap="round" stroke-width="1" x1="339.95000000000005" x2="486.02874015748034" y1="315.7" y2="315.7"></line><path d="M327.95000000000005,315.7 l12,2.5 l0,-5 z" fill="#000000" stroke="#000000" stroke-width="0" transform="rotate(0, 327.95000000000005, 315.7)"></path><path d="M498.02874015748034,315.7 l12,2.5 l0,-5 z" fill="#000000" stroke="#000000" stroke-width="0" transform="rotate(180, 498.02874015748034, 315.7)"></path></g><g class="element--733"><line stroke="#000000" stroke-dasharray="20, 10, 1, 10" stroke-linecap="round" stroke-width="1" x1="403.3" x2="403.3" y1="240.35" y2="103"></line></g><g class="element--733"><line stroke="#000000" stroke-dasharray="none" stroke-linecap="round" stroke-width="2" x1="403.3" x2="383.25602824983014" y1="112.79094488188974" y2="132.83491663205962"></line></g><g class="element--733"><line stroke="#000000" stroke-dasharray="none" stroke-linecap="round" stroke-width="2" x1="383.25602824983014" x2="383.25602824983014" y1="132.83491663205962" y2="203.70105836434306"></line></g><g class="element--733"><line stroke="#000000" stroke-dasharray="none" stroke-linecap="round" stroke-width="2" x1="353.1900706245754" x2="353.1900706245754" y1="290.4599293754246" y2="262.113472682512"></line></g><g class="element--733"><line stroke="#000000" stroke-dasharray="none" stroke-linecap="round" stroke-width="2" x1="353.1900706245754" x2="383.25602824983014" y1="262.113472682512" y2="203.70105836434306"></line></g><g class="element--733"><line stroke="#000000" stroke-dasharray="none" stroke-linecap="round" stroke-width="2" x1="383.25602824983014" x2="439.9489416356569" y1="203.70105836434306" y2="203.70105836434306"></line></g><g class="element--733"><line stroke="#000000" stroke-dasharray="none" stroke-linecap="round" stroke-width="2" x1="383.25602824983014" x2="439.9489416356569" y1="132.83491663205962" y2="132.83491663205962"></line></g><g class="element--733"><line stroke="#000000" stroke-dasharray="none" stroke-linecap="round" stroke-width="2" x1="403.3" x2="459.9929133858268" y1="112.79094488188974" y2="112.79094488188974"></line></g><g class="element--733"><line stroke="#000000" stroke-dasharray="none" stroke-linecap="round" stroke-width="2" x1="439.9489416356569" x2="459.9929133858268" y1="132.83491663205962" y2="112.79094488188974"></line></g><g class="element--733"><line stroke="#000000" stroke-dasharray="none" stroke-linecap="round" stroke-width="2" x1="459.9929133858268" x2="459.9929133858268" y1="112.79094488188974" y2="155.31062992125982"></line></g><g class="element--733"><line stroke="#000000" stroke-dasharray="none" stroke-linecap="round" stroke-width="2" x1="439.9489416356569" x2="439.9489416356569" y1="132.83491663205962" y2="175.3546016714297"></line></g><g class="element--733"><line stroke="#000000" stroke-dasharray="none" stroke-linecap="round" stroke-width="2" x1="439.9489416356569" x2="459.9929133858268" y1="175.3546016714297" y2="155.31062992125982"></line></g><g class="element--733"><line stroke="#000000" stroke-dasharray="none" stroke-linecap="round" stroke-width="2" x1="353.1900706245754" x2="523.2688107820558" y1="262.113472682512" y2="262.113472682512"></line></g><g class="element--733"><line stroke="#000000" stroke-dasharray="none" stroke-linecap="round" stroke-width="2" x1="523.2688107820558" x2="573.3787401574804" y1="262.113472682512" y2="212.00354330708745"></line></g><g class="element--733"><line stroke="#000000" stroke-dasharray="none" stroke-linecap="round" stroke-width="2" x1="573.3787401574804" x2="530.8590551181102" y1="212.00354330708745" y2="212.00354330708748"></line></g><g class="element--733"><line stroke="#000000" stroke-dasharray="none" stroke-linecap="round" stroke-width="2" x1="530.8590551181102" x2="459.9929133858268" y1="212.00354330708748" y2="155.31062992125982"></line></g><g class="element--733"><line stroke="#000000" stroke-dasharray="none" stroke-linecap="round" stroke-width="2" x1="530.8590551181102" x2="510.8150833679404" y1="212.00354330708748" y2="232.04751505725733"></line></g><g class="element--733"><line stroke="#000000" stroke-dasharray="none" stroke-linecap="round" stroke-width="2" x1="439.9489416356569" x2="510.8150833679404" y1="175.3546016714297" y2="232.04751505725733"></line></g><g class="element--733"><line stroke="#000000" stroke-dasharray="none" stroke-linecap="round" stroke-width="2" x1="439.9489416356569" x2="439.9489416356569" y1="203.70105836434306" y2="232.04751505725733"></line></g><g class="element--733"><line stroke="#000000" stroke-dasharray="none" stroke-linecap="round" stroke-width="2" x1="439.9489416356569" x2="510.8150833679404" y1="232.04751505725733" y2="232.04751505725733"></line></g><g class="element--733"><line stroke="#000000" stroke-dasharray="none" stroke-linecap="round" stroke-width="2" x1="439.9489416356569" x2="409.8829840104021" y1="232.04751505725733" y2="262.113472682512"></line></g><g class="element--733"><line stroke="#000000" stroke-dasharray="none" stroke-linecap="round" stroke-width="2" x1="409.8829840104021" x2="439.9489416356569" y1="262.113472682512" y2="203.70105836434306"></line></g><g class="element--733"><line stroke="#000000" stroke-dasharray="none" stroke-linecap="round" stroke-width="2" x1="523.2688107820558" x2="523.2688107820557" y1="262.113472682512" y2="290.4599293754246"></line></g><g class="element--733"><line stroke="#000000" stroke-dasharray="none" stroke-linecap="round" stroke-width="2" x1="353.1900706245754" x2="523.2688107820557" y1="290.4599293754246" y2="290.4599293754246"></line></g><g class="element--733"><line stroke="#000000" stroke-dasharray="none" stroke-linecap="round" stroke-width="2" x1="523.2688107820557" x2="573.3787401574804" y1="290.4599293754246" y2="240.35"></line></g><g class="element--733"><line stroke="#000000" stroke-dasharray="none" stroke-linecap="round" stroke-width="1" x1="383.25602824983014" x2="363.4135085647908" y1="132.83491663205962" y2="132.83491663205962"></line></g><g class="element--733"><line stroke="#000000" stroke-dasharray="none" stroke-linecap="round" stroke-width="1" x1="403.3" x2="383.45748031496066" y1="112.79094488188974" y2="112.79094488188974"></line></g><g class="element--733"><line stroke="#000000" stroke-dasharray="none" stroke-linecap="round" stroke-width="1" x1="371.89878993902937" x2="374.9721989407221" y1="124.34963525782105" y2="121.27622625612831"></line><path d="M363.4135085647908,132.83491663205962 l12,2.5 l0,-5 z" fill="#000000" stroke="#000000" stroke-width="0" transform="rotate(315, 363.4135085647908, 132.83491663205962)"></path><path d="M383.45748031496066,112.79094488188974 l12,2.5 l0,-5 z" fill="#000000" stroke="#000000" stroke-width="0" transform="rotate(135, 383.45748031496066, 112.79094488188974)"></path></g><g class="element--733"><line stroke="#000000" stroke-dasharray="none" stroke-linecap="round" stroke-width="1" x1="338" x2="379.29999999999995" y1="248.9570866141732" y2="207.65708661417324"></line></g><g class="element--733"><line stroke="#000000" stroke-dasharray="none" stroke-linecap="round" stroke-width="1" x1="338" x2="350.65" y1="277.3035433070874" y2="264.65354330708743"></line></g><g class="element--733"><line stroke="#000000" stroke-dasharray="none" stroke-linecap="round" stroke-width="1" x1="330.65" x2="330.65" y1="197.44094488188972" y2="244.30708661417322"></line><path d="M330.65,185.44094488188972 l12,2.5 l0,-5 z" fill="#000000" stroke="#000000" stroke-width="0" transform="rotate(90, 330.65, 185.44094488188972)"></path><path d="M330.65,256.3070866141732 l12,2.5 l0,-5 z" fill="#000000" stroke="#000000" stroke-width="0" transform="rotate(270, 330.65, 256.3070866141732)"></path></g><g class="element--733"><line stroke="#000000" stroke-dasharray="none" stroke-linecap="round" stroke-width="1" x1="330.65" x2="330.65" y1="268.3070866141732" y2="272.65354330708743"></line><path d="M330.65,256.3070866141732 l12,2.5 l0,-5 z" fill="#000000" stroke="#000000" stroke-width="0" transform="rotate(90, 330.65, 256.3070866141732)"></path><path d="M330.65,284.65354330708743 l12,2.5 l0,-5 z" fill="#000000" stroke="#000000" stroke-width="0" transform="rotate(270, 330.65, 284.65354330708743)"></path></g><g class="element--733"><line stroke="#000000" stroke-dasharray="none" stroke-linecap="round" stroke-width="1" x1="330.65" x2="330.65" y1="296.65354330708743" y2="301.00000000000006"></line><path d="M330.65,284.65354330708743 l12,2.5 l0,-5 z" fill="#000000" stroke="#000000" stroke-width="0" transform="rotate(90, 330.65, 284.65354330708743)"></path><path d="M330.65,313.00000000000006 l12,2.5 l0,-5 z" fill="#000000" stroke="#000000" stroke-width="0" transform="rotate(270, 330.65, 313.00000000000006)"></path></g><g class="element--733"><line stroke="#000000" stroke-dasharray="none" stroke-linecap="round" stroke-width="1" x1="379.29999999999995" x2="333.2780141249151" y1="136.79094488188986" y2="182.81293075697468"></line></g><g class="element--733"><line stroke="#000000" stroke-dasharray="none" stroke-linecap="round" stroke-width="1" x1="586.1647186257615" x2="553.0253519988139" y1="248.83528137423855" y2="281.97464800118604"></line><path d="M594.65,240.35 l12,2.5 l0,-5 z" fill="#000000" stroke="#000000" stroke-width="0" transform="rotate(135.00000000000006, 594.65, 240.35)"></path><path d="M544.5400706245753,290.4599293754246 l12,2.5 l0,-5 z" fill="#000000" stroke="#000000" stroke-width="0" transform="rotate(315.00000000000006, 544.5400706245753, 290.4599293754246)"></path></g><g class="element--733"><line stroke="#000000" stroke-dasharray="none" stroke-linecap="round" stroke-width="1" x1="523.2688107820557" x2="544.5400706245753" y1="290.4599293754246" y2="290.4599293754246"></line></g><g class="element--733"><line stroke="#000000" stroke-dasharray="none" stroke-linecap="round" stroke-width="1" x1="534.8590551181111" x2="544.8810409931959" y1="208.0035433070866" y2="197.9815574320017"></line></g><g class="element--733"><line stroke="#000000" stroke-dasharray="none" stroke-linecap="round" stroke-width="1" x1="576.4007260325653" x2="556.8810409931959" y1="197.9815574320017" y2="197.9815574320017"></line><path d="M588.4007260325653,197.9815574320017 l12,2.5 l0,-5 z" fill="#000000" stroke="#000000" stroke-width="0" transform="rotate(180, 588.4007260325653, 197.9815574320017)"></path><path d="M544.8810409931959,197.9815574320017 l12,2.5 l0,-5 z" fill="#000000" stroke="#000000" stroke-width="0" transform="rotate(0, 544.8810409931959, 197.9815574320017)"></path></g><g class="element--733"><line stroke="#000000" stroke-dasharray="none" stroke-linecap="round" stroke-width="1" x1="406.3" x2="416.3219858750849" y1="109.79094488188974" y2="99.76895900680482"></line></g><g class="element--733"><line stroke="#000000" stroke-dasharray="none" stroke-linecap="round" stroke-width="1" x1="462.9929133858268" x2="473.0148992609117" y1="109.79094488188974" y2="99.76895900680482"></line></g><g class="element--733"><line stroke="#000000" stroke-dasharray="none" stroke-linecap="round" stroke-width="1" x1="428.3219858750849" x2="461.0148992609117" y1="99.76895900680482" y2="99.76895900680482"></line><path d="M416.3219858750849,99.76895900680482 l12,2.5 l0,-5 z" fill="#000000" stroke="#000000" stroke-width="0" transform="rotate(0, 416.3219858750849, 99.76895900680482)"></path><path d="M473.0148992609117,99.76895900680482 l12,2.5 l0,-5 z" fill="#000000" stroke="#000000" stroke-width="0" transform="rotate(180, 473.0148992609117, 99.76895900680482)"></path></g><g class="element--733"><line stroke="#000000" stroke-dasharray="none" stroke-linecap="round" stroke-width="1" x1="463.9929133858268" x2="478.1661417322835" y1="112.79094488188974" y2="112.79094488188974"></line></g><g class="element--733"><line stroke="#000000" stroke-dasharray="none" stroke-linecap="round" stroke-width="1" x1="463.9929133858268" x2="478.1661417322835" y1="155.31062992125982" y2="155.31062992125982"></line></g><g class="element--733"><line stroke="#000000" stroke-dasharray="none" stroke-linecap="round" stroke-width="1" x1="478.1661417322835" x2="478.1661417322835" y1="124.79094488188974" y2="143.31062992125982"></line><path d="M478.1661417322835,112.79094488188974 l12,2.5 l0,-5 z" fill="#000000" stroke="#000000" stroke-width="0" transform="rotate(90, 478.1661417322835, 112.79094488188974)"></path><path d="M478.1661417322835,155.31062992125982 l12,2.5 l0,-5 z" fill="#000000" stroke="#000000" stroke-width="0" transform="rotate(270, 478.1661417322835, 155.31062992125982)"></path></g></g><g class="main-layer--75a"></g><g class="snaps-layer--ac6"></g><g class="temp-layer--52d"></g></svg>