<svg xmlns="http://www.w3.org/2000/svg" viewBox="0 0 145.75 142.61"><defs><style>.cls-1{fill:#fff;}</style></defs><g id="Calque_2" data-name="Calque 2"><g id="Calque_3" data-name="Calque 3"><path d="M4.21,79.93c-.3-.69-.62-1.38-.89-2.08-.19-.48-.27-1-.46-1.47-.28-.73-.58-1.46-.92-2.17A13.89,13.89,0,0,1,.83,70.82C.65,70,.36,69.14.16,68.3c-.08-.33,0-.68,0-1a18.71,18.71,0,0,1,.15-5.07c.14-1.13.35-2.26.57-3.37a2.79,2.79,0,0,1,.46-1c.81-1.22,1.65-2.43,2.49-3.64a5.57,5.57,0,0,1,.5-.59c1.72-2,3.48-3.89,5.16-5.89a11.52,11.52,0,0,0,2-3.78c.38-1.13.92-2.22,1.23-3.36s.32-2.17.55-3.24c.36-1.67.78-3.32,1.18-5,.21-.86.4-1.74.65-2.59a11.54,11.54,0,0,1,.61-1.41C16.9,25.82,19,24,21.06,22.07c.29-.26.52-.6.83-.85a5.27,5.27,0,0,1,.87-.49l.13.2-1.34,1,.1.21c.41-.14.81-.3,1.22-.43l4.67-1.44c1.8-.55,3.7-.75,5.39-1.73,1.11-.64,2.42-.94,3.53-1.6a16.74,16.74,0,0,0,4.92-4.38c.58-.77,1.3-1.45,1.88-2.22.43-.57.72-1.24,1.13-1.83a5.7,5.7,0,0,1,.88-1c.73-.68,1.46-1.35,2.22-2a12,12,0,0,1,2.39-1.86c1.55-.76,3.21-1.3,4.83-1.91a2.05,2.05,0,0,1,.89-.08c1,.09,2,.27,3.08.32s1.91,0,2.87-.1a1.49,1.49,0,0,1,1.5.52.93.93,0,0,0,.56.3c1.71.27,3.43.5,5.14.77.61.09,1.21.29,1.82.32a12.18,12.18,0,0,0,2.49-.05,26.8,26.8,0,0,0,3.43-.72c.66-.18,1.27-.57,1.93-.8,1.11-.39,2.22-.76,3.35-1.07C82.62,1,83.49.83,84.35.66a2.42,2.42,0,0,1,.47-.05h4.47c.17-.68.21-.75.93-.42a29.44,29.44,0,0,1,2.87,1.55,32.42,32.42,0,0,1,3,2A15,15,0,0,1,99.78,7.4a22.76,22.76,0,0,0,1.69,2c.51.61,1,1.25,1.51,1.85.86,1,1.76,1.9,2.62,2.86a4.64,4.64,0,0,1,.65,1c0,.11-.08.32-.13.48a1.18,1.18,0,0,1-.39-.19c-1.38-1.65-2.71-3.34-4.12-5-1-1.14-2.16-2.13-3.14-3.28-.67-.78-1.72-1-2.36-1.65A10.85,10.85,0,0,0,92.8,3.1a17.18,17.18,0,0,1-2-1.31c-.12-.08-.26-.19-.37-.18-1.44.12-2.79-.91-4.27-.3-.17.07-.39,0-.59,0-.56,0-1.13.08-1.69.14a3.45,3.45,0,0,0-.4.11c-1.2.25-2.43.43-3.61.77-.87.24-1.68.72-2.54,1a20.47,20.47,0,0,1-3,.87,23.72,23.72,0,0,1-3.26.35,8.61,8.61,0,0,1-1.58-.23L68.4,4.17C67.17,4,66,3.74,64.71,3.66a5.9,5.9,0,0,1-2.36-.87,1.82,1.82,0,0,0-.8-.2c-1.41,0-2.83,0-4.24,0-.5,0-1-.13-1.49-.11A7.91,7.91,0,0,0,54,2.69a21.23,21.23,0,0,0-2.8,1c-3.66,1.7-6.07,4.63-7.89,8.14a4.49,4.49,0,0,1-1.86,2.1c-.54.3-.8,1.06-1.31,1.45-.88.66-1.85,1.18-2.77,1.76-.66.42-1.29.87-2,1.26-1.17.69-2.36,1.34-3.54,2a.41.41,0,0,1-.28.05c-1.1-.57-2.14-.08-3.17.2-1.47.38-3,.74-4.37,1.26a9.5,9.5,0,0,0-3.81,1.93,12.2,12.2,0,0,0-1.32,2c-.08.13-.13.28-.23.49l-.28-.46c-.13.12-.28.22-.39.34A9.72,9.72,0,0,0,15.91,30c-.47,1.82-1,3.62-1.37,5.46-.34,1.61-.52,3.26-.81,4.89-.13.78-.35,1.55-.53,2.32a.83.83,0,0,0-.07.34,3.57,3.57,0,0,1-.55,2.22,18.49,18.49,0,0,0-.7,1.93,5.61,5.61,0,0,1-.5.8l-.18-.11.74-1.78L11.78,46c-.12.14-.27.26-.38.41-1.24,1.68-2.46,3.39-3.74,5a16.46,16.46,0,0,1-1.77,1.87,14.58,14.58,0,0,0-3.37,4.82C2.16,59,2,60,1.62,60.85a13.36,13.36,0,0,0-.86,5.9.81.81,0,0,0,0,.35,31,31,0,0,1,1,4.11,39,39,0,0,0,1.67,4.4c.49,1.2,1,2.37,1.56,3.56.61,1.38,1.25,2.75,1.8,4.16a19.34,19.34,0,0,1,.58,2.3c.08.33.14.66.25,1,0,.12.22.28.32.27.51,0,.64.33.67.68.14,1.65.24,3.3.37,5,.11,1.49.29,3,.36,4.47a13.1,13.1,0,0,0,.81,4.27c.41,1,.37,2.11.71,3.1a8.21,8.21,0,0,0,1.34,2.51,16.15,16.15,0,0,0,4.51,3.79,10.07,10.07,0,0,0,1.75.76c.88.31,1.79.53,2.66.87.59.22,1.13.59,1.7.87.92.43,1.84.86,2.77,1.26a12.51,12.51,0,0,1,3.31,2.44,8.92,8.92,0,0,1,2.7,3.75c.39,1.17.78,2.33,1.2,3.49a29.06,29.06,0,0,0,1.41,3.61,23,23,0,0,0,2,2.67,19.6,19.6,0,0,0,4.08,3.69,24.29,24.29,0,0,0,3.8,2.14,7,7,0,0,0,1.6.45c.9.22,1.81.42,2.71.61a10.35,10.35,0,0,0,5.93-.34,6.51,6.51,0,0,1,1.93,0c1.58-.06,3.15-.14,4.72-.21l3.81-.21a23.83,23.83,0,0,0,2.81-.12,10.23,10.23,0,0,1,5,.85,13.55,13.55,0,0,0,2.81.75,4.94,4.94,0,0,1,3.36,1.46,4.85,4.85,0,0,0,1.83,1.1,20.56,20.56,0,0,0,5.53,1.15,13.52,13.52,0,0,0,3-.24c1.84-.25,3.69-.46,5.49-.86a11.7,11.7,0,0,0,2.79-1.28c1.48-.82,2.07-2.43,3.11-3.65.78-.91,1.47-1.89,2.23-2.81.9-1.09,1.8-2.19,2.75-3.23s1.73-1.76,2.61-2.64a3.48,3.48,0,0,1,.55-.45,20.8,20.8,0,0,1,4.47-2.37c1.63-.61,3.24-1.29,4.87-1.92a3.31,3.31,0,0,1,.7-.12c2.19-.34,4.39-.63,6.56-1a4.29,4.29,0,0,0,1.68-.84c2-1.47,3.07-3.67,4.26-5.77a16.2,16.2,0,0,0,1.6-6.55,21.37,21.37,0,0,1,.66-2.59c.14-.6.22-1.21.32-1.81.23-1.33.49-2.66.67-4s.19-2.42.35-3.63a13.81,13.81,0,0,1,1.82-5.5c.63-1,1.16-2,1.77-3a12.77,12.77,0,0,1,1-1.42c.87-1.12,1.81-2.19,2.6-3.36s1.3-2.27,1.94-3.42a6.06,6.06,0,0,0,.78-3c0-.81.31-1.61.38-2.42a11.49,11.49,0,0,0-2.31-7.62c-.82-1.19-1.67-2.35-2.5-3.53-1.1-1.56-2.21-3.12-3.28-4.7a7.35,7.35,0,0,1-1.44-3.41.49.49,0,0,0-.11-.33,4.31,4.31,0,0,1-1.29-2.62c-.31-1.34-.64-2.67-.92-4-.11-.54-.08-1.12-.16-1.67-.34-2.28-.72-4.56-1-6.85a3.26,3.26,0,0,0-.76-2,3.36,3.36,0,0,1,.06.6,2.48,2.48,0,0,1-.15.49c-.12-.12-.33-.21-.36-.35-.36-1.47-.68-2.94-1-4.42-.23-1-.43-2.06-.72-3.08a5.08,5.08,0,0,0-.66-1.11c0-.06-.15-.1-.17-.16-.39-1.41-1.62-1.88-2.71-2.53-.75-.45-1.41-1-2.14-1.52a20,20,0,0,0-2.52-1.58c-1.6-.76-3.25-1.42-4.89-2.08a11.6,11.6,0,0,0-1.46-.39c.09-.84,0-1.06-.88-1a4.32,4.32,0,0,1-2.59-.92c-.87-.58-1.82-1.06-2.83-1.64l.39-.17-1.13-.88.07-.18a.92.92,0,0,1,.41,0,34.51,34.51,0,0,1,3,1.85,5.69,5.69,0,0,0,2.5.85,8.06,8.06,0,0,1,2,.65c1.66.8,3.33,1.62,4.94,2.53,1.35.76,2.63,1.64,3.94,2.49a14.18,14.18,0,0,0,1.52,1.05,9.83,9.83,0,0,1,4.26,4.3,20.92,20.92,0,0,1,2.34,7.36,4.44,4.44,0,0,0,.41,1.79,4.86,4.86,0,0,1,.59,2.81c.09,1.51.35,3,.58,4.53a28.37,28.37,0,0,0,.59,3.21c.32,1.17.79,2.29,1.18,3.43.32.9.62,1.8.93,2.69a2.53,2.53,0,0,0,.2.36,2.12,2.12,0,0,1,.33.56c.48,1.74,1.79,3,2.65,4.51.33.58,1,.95,1.52,1.43,1.47,1.44,2,3.4,2.93,5.17a11.41,11.41,0,0,1,.62,1.49,13.68,13.68,0,0,1,.6,2.51,16.76,16.76,0,0,1,0,3.81,20.15,20.15,0,0,1-2.07,6,47.91,47.91,0,0,1-3.87,5.66,27,27,0,0,0-3.55,6.07,13.26,13.26,0,0,0-.67,2.78c-.17,1.34-.16,2.71-.33,4-.14,1.06-.42,2.1-.64,3.15-.06.31-.11.63-.16.94-.21,1.25-.41,2.51-.61,3.76-.11.69-.26,1.37-.34,2.06a11.53,11.53,0,0,1-.88,3.51c-.27.57-.35,1.22-.58,1.82-.15.4-.41.76-.59,1.16-.37.85-.75,1.7-1.07,2.58s-.51.87-1.17.52a.49.49,0,0,0-.4.07,6.25,6.25,0,0,0-.72.63,7.94,7.94,0,0,1-5.29,2,32.57,32.57,0,0,0-4.52.51,15.74,15.74,0,0,0-4.87,1.76c-.85.5-1.81.84-2.63,1.38a12.86,12.86,0,0,0-3.19,2.7c-.39.51-1,.84-1.45,1.32-.65.69-1.25,1.43-1.86,2.16-.94,1.12-1.88,2.23-2.78,3.38-.61.78-1.16,1.61-1.73,2.42a8.09,8.09,0,0,1-4.39,3.34,12.55,12.55,0,0,1-1.75.31l-3,.46-3.72.62a1.13,1.13,0,0,1-.41,0,45.12,45.12,0,0,1-4.51-.75,8.26,8.26,0,0,1-3.43-1.55,5.57,5.57,0,0,0-2.73-1.47,1.48,1.48,0,0,0-.46-.08,6,6,0,0,1-3.43-.84,8.56,8.56,0,0,0-3.83-.74c-.94,0-1.87.09-2.81.14l-6.74.35a5.36,5.36,0,0,1-1.2,0,10.51,10.51,0,0,0-4.41.5,15.4,15.4,0,0,1-3.54.25,13.94,13.94,0,0,1-1.9-.25c-.11,0-.27,0-.34-.06-.76-.62-1.73-.56-2.58-.85A21.66,21.66,0,0,1,41.89,136a6.87,6.87,0,0,0-.83-.46,5.6,5.6,0,0,1-2-1.33c-.84-.75-1.73-1.46-2.54-2.25a12.83,12.83,0,0,1-.89-1.33c-.48-.6-1-1.14-1.49-1.76a7.77,7.77,0,0,1-.49-1.22c-.33-.75-.72-1.47-1-2.22s-.5-1.37-.76-2c-.52-1.31-.72-2.73-1.63-3.89a16.16,16.16,0,0,0-5.58-4.58c-1.43-.71-3-1.2-4.47-1.79s-3-1.17-4.56-1.81a2.94,2.94,0,0,1-1.94-1.64c-.09-.28-.3-.38-.61-.17-.56.36-.91.25-1.14-.35-.68-1.82-1.4-3.63-2-5.48-.36-1.11-.55-2.28-.8-3.42-.34-1.6-.68-3.19-1-4.79s-.52-3.27-1-4.84c-.35-1.15-.25-2.37-.9-3.49a11.43,11.43,0,0,1-.81-3L5.52,84l.55.39-.84-2.26-.17.05.09,1-.21,0A20,20,0,0,1,3,79.37c.5,0,.57.85,1.18.56-.19.61-.06,1,.48,1.23ZM96.28,4.77l.22-.23-.92-.87-.19.2Z"/><path d="M104.22,108.36c.69-.89,1.39-1.82,2.12-2.73,1.26-1.57,2.53-3.12,3.78-4.7.41-.53.74-1.13,1.12-1.68a12.89,12.89,0,0,1,1-1.39,7.44,7.44,0,0,0,1.87-3.6,4.08,4.08,0,0,1,.32-.71c.24-.6.46-1.21.71-1.81.18-.43.4-.85.58-1.29a33.58,33.58,0,0,0,1.37-3.29c.5-1.66.83-3.38,1.3-5a14.57,14.57,0,0,1,.83-2l1-2.18c.55-1.25,1.15-2.48,1.62-3.75.22-.6.15-1.3.31-1.93a17.15,17.15,0,0,1,.72-2.31c.37-.92.81-1.82,1.21-2.73a.45.45,0,0,0,0-.34,4,4,0,0,1,.5-3.14c.4-.9.65-1.87,1-2.81,0-.13.07-.31.16-.38a6.37,6.37,0,0,1,.72-.41,2.9,2.9,0,0,1,0,.73c-.47,1.51-1.3,2.91-1.46,4.52a9.06,9.06,0,0,1-.23,1.81c-.32,1-.76,1.92-1.15,2.87a2.67,2.67,0,0,0-.13.4,27.64,27.64,0,0,1-2.18,6.66,39.22,39.22,0,0,0-1.55,4c-.23.59-.5,1.17-.67,1.78-.56,2-1,3.94-1.65,5.89a20.3,20.3,0,0,1-1,2.4l-.58,1.29c-.2.46-.36.93-.58,1.37a9.28,9.28,0,0,0-.91,2.64,3.29,3.29,0,0,1-.84,1.52c-.69.81-1.55,1.48-2.2,2.32-1.56,2-3,4.15-4.55,6.19-.61.81-1.35,1.52-2,2.31a10.67,10.67,0,0,0-.59,1.11c-.18.28-.39.72-.63.76-1.62.22-3.26.34-4.49-1.06a1.62,1.62,0,0,1-.38-1c0-2.25,0-4.5,0-6.76,0-1.87-.14-3.74-.13-5.62,0-1.33.13-2.67.21-4a6.68,6.68,0,0,1,0-2,27.3,27.3,0,0,0,.73-3.25c.23-1.12.44-2.23.66-3.35.29-1.46.59-2.92.86-4.39a6.21,6.21,0,0,0,0-1l-.52.36-.16-.09c.12-.25.19-.58.39-.74,1.18-1,1.3-2.41,1.7-3.73.35-1.13.67-2.28,1-3.43s.52-2.1.77-3.16c0-.15,0-.32.1-.47.5-1.46,1-2.92,1.5-4.4a19,19,0,0,0,.48-2.14,3.61,3.61,0,0,1,.66-1.93,3.29,3.29,0,0,0,.48-1.15c.35-1.08.67-2.17,1.05-3.23.08-.21.4-.32.59-.5s.39-.36.36-.5a7.71,7.71,0,0,1,.73-4.3c.41-1,.66-2,1-3a18.41,18.41,0,0,1,1-2.18c.09-.19.42-.25.64-.37.07.28.26.59.19.83-.14.49-.49.92-.64,1.41-.38,1.31-.69,2.65-1.06,4-.22.78-.5,1.54-.75,2.32q-.48,1.44-.93,2.88a1.11,1.11,0,0,0-.05.48c.29,2.11-.8,3.89-1.39,5.79-.26.82-.44,1.65-.66,2.47-.11.44-.21.88-.35,1.31-.81,2.39-1.67,4.77-2.44,7.17-.68,2.13-1.64,4.19-1.84,6.46a1,1,0,0,1-.2.41c-.18.28-.47.52-.55.82-.33,1.29-.6,2.6-.9,3.89-.1.43-.21.85-.31,1.28-.46,2.13-.86,4.29-1.41,6.4-.45,1.71-.16,3.41-.18,5.11,0,2,.14,3.94.22,5.92a1.18,1.18,0,0,1,0,.42,6.07,6.07,0,0,0,0,2.78,9.4,9.4,0,0,1,0,1.19c0,.69.26.84,1,.84a14.07,14.07,0,0,1,2.09.36c.29.05.59,0,.86.11A6.57,6.57,0,0,1,104.22,108.36Zm-2,1.87a2.24,2.24,0,0,0,.48,0c.24-.1.47-.23.7-.34a4.2,4.2,0,0,0-.41-.72c-.6-.67-1.48-.63-2.26-.76-.26,0-.59.36-.89.56l.81.79s.12,0,.18,0l.78.26Z"/><path d="M24.39,89.21a1.57,1.57,0,0,1,.82-1.53c1-.69,2-1.42,2.95-2.13a.48.48,0,0,1,.33-.12c1.05.15,1.62-.56,2.27-1.2a1.58,1.58,0,0,1,.81-.25c.48-.08,1-.1,1.46-.18,1.37-.23,2.63-1.08,4.11-.79.88.17,1.76.31,2.63.48a.39.39,0,0,1,.24.23,10.47,10.47,0,0,1,.67,3.38A.88.88,0,0,1,40,88c-1.29.41-2.61.71-3.88,1.18a26.64,26.64,0,0,0-2.36,1.24,4.51,4.51,0,0,1-.86.19c-.23,0-.53.06-.68.21a5.62,5.62,0,0,0-1.69,3.6c0,.45-.21.9-.21,1.35,0,1.06.06,2.11.12,3.17,0,.16.15.31.23.47.23.5.45,1,.69,1.51a1.43,1.43,0,0,0,.26.45c.52.52,1,1,1.6,1.51a2.47,2.47,0,0,0,1.11.66,14.67,14.67,0,0,0,3,.1c.4,0,.77-.44,1.16-.67.58-.35,1.19-.67,1.74-1a1.43,1.43,0,0,0,.59-.73c.22-1,1.21-1,1.79-1.52.06,0,.27,0,.39.06.82.37,1.63.75,2.44,1.14,1.06.5,1.24.76.91,1.86a24.28,24.28,0,0,1-1.17,3c-.14.31-.5.52-.77.77l-1,.91-.46-.69-1.2.76c-.78.48-1.55,1-2.34,1.44a2.44,2.44,0,0,1-.77.21,11.25,11.25,0,0,1-1.51.23,4.88,4.88,0,0,1-1.58-.12c-1.48-.46-3-1-4.4-1.52a6,6,0,0,1-1.64-1.06A14.07,14.07,0,0,1,26,102.23a18.67,18.67,0,0,1-1.1-3.74,13.58,13.58,0,0,1-.17-4.75A18.55,18.55,0,0,1,26,89.89a13.46,13.46,0,0,1,.64-1.46c.18-.35.4-.68.59-1a2.53,2.53,0,0,0,.3-.69c-1.36.45-2.15,1.6-3.14,2.48Zm6.26,13.2-.11.13c-.19-.11-.44-.18-.55-.34a5.69,5.69,0,0,1-.77-4.56c.24-1.15.44-2.31.61-3.47a5.82,5.82,0,0,1,1.52-3.36,12.75,12.75,0,0,1,2.23-1.57,4.35,4.35,0,0,1,2.82-.84,1.29,1.29,0,0,0,.58-.1c.68-.22,1.35-.47,2-.7.85-.29,1-.62.67-1.45a6.58,6.58,0,0,1-.15-1.55c0-.26.06-.62-.08-.76s-.5-.07-.77-.07c-.5,0-1,0-1.51,0a7.62,7.62,0,0,0-1.65,0c-1.25.29-2.5.65-3.72,1.06A8.2,8.2,0,0,0,27.12,89a11.74,11.74,0,0,0-1.56,4.68c0,.56-.12,1.11-.15,1.67-.11,2.69-.05,5.35,1.74,7.61a12.94,12.94,0,0,0,1.29,1.64,31.36,31.36,0,0,0,3.13,2.49,6.63,6.63,0,0,0,2.37,1,13.12,13.12,0,0,0,2.73,0,2.2,2.2,0,0,1,.36,0v.11l-1,.32c.84.45,1.58.1,2.38-.07l-.22-.57c.67-.25,1.3-.48,1.93-.73.85-.34,1.7-.68,2.54-1a3.75,3.75,0,0,0,2.13-2c.25-.63.51-1.25.79-1.87.16-.33.06-.6-.26-.65-1-.16-1.92-.26-2.89-.36a.89.89,0,0,0-.54.21c-.4.32-.75.71-1.16,1s-1,.67-1.44,1c-.12.09-.33.2-.32.29,0,.51-.34.45-.66.47-1,.06-2.08.1-3.11.21a3,3,0,0,1-2.51-.88c-.78-.8-1.45-1.69-2.17-2.54a1.7,1.7,0,0,0-.26-.18l-.16.09Z"/><path d="M121.31,38.12a4.9,4.9,0,0,1-.49-.73A13.46,13.46,0,0,0,118,33.12a2.2,2.2,0,0,1-.48-.68,4.41,4.41,0,0,0-1.73-1.67c-.38-.24-.55-.79-.88-1.14-1.35-1.39-2.73-2.74-4.07-4.13-.52-.53-1.22-.84-1.61-1.55a3.61,3.61,0,0,0-1.2-1.16c-1.34-.89-2.69-1.76-4.09-2.57-1.88-1.08-3.8-2.1-5.72-3.11a15.44,15.44,0,0,0-1.9-.71c-1.73-.6-3.48-1.15-5.18-1.82a19.27,19.27,0,0,0-4.42-1c-1.16-.15-2.32-.27-3.48-.44a29,29,0,0,0-6-.39,54.31,54.31,0,0,0-5.71.52c-1.71.29-3.37.87-5.05,1.33a1.33,1.33,0,0,0-.38.18,1.7,1.7,0,0,0-.79,1.57,1.77,1.77,0,0,0,1.5.93,1.16,1.16,0,0,1,.5.11,1.13,1.13,0,0,1-1.22.2A1.79,1.79,0,0,1,65,14.74c.24-.46.44-.94.68-1.4A.72.72,0,0,1,66,13c.08,0,.29.13.34.25.17.41.43.43.82.32,1.08-.32,2.17-.61,3.26-.9a5.78,5.78,0,0,1,1-.16q3.2-.22,6.39-.41a22.34,22.34,0,0,1,5.77.37c.83.17,1.7.12,2.55.21s1.78.25,2.66.36,1.76.15,2.61.32a17.65,17.65,0,0,1,2.12.61c1.21.38,2.43.74,3.62,1.17,1.5.54,3,1.15,4.45,1.73.58.24,1.17.45,1.73.74a12.65,12.65,0,0,1,1.73,1.05c1.68,1.28,3.33,2.59,5,3.88a11.93,11.93,0,0,0,1.4.9,2.52,2.52,0,0,1,1.06,1.71,2.06,2.06,0,0,0,.32.74c1.06,1.15,2.14,2.26,3.21,3.4.35.37.68.78,1,1.17.56.65,1.06,1.36,1.67,1.95a7.64,7.64,0,0,1,1.68,3.05c.27.69.59,1.35.87,2a4.84,4.84,0,0,1,.17.54ZM104.46,19.2c.61.36.93,1.22,1.94,1.1C106,19.42,105.13,19.46,104.46,19.2ZM109,22c-.56-.28-.78-.94-1.5-.78C107.92,21.93,108.36,22.2,109,22Z"/><path d="M35.45,38.15l-.92.45A1.16,1.16,0,0,0,36,38.55c1-.64,1.72-.37,2.05.73.11.38.25.75.41,1.23-.56,0-.74-.24-.75-.68a1,1,0,0,0-1.24-.92c-.82.19-1.67.24-2.47.48a14,14,0,0,0-2,.88,10.78,10.78,0,0,0-2.9,2.35c-.37.36-1,.51-1.25.9a15.67,15.67,0,0,0-1.14,2.19c-.19.4-.36.82-.51,1.24A9.89,9.89,0,0,0,25.51,49a14.94,14.94,0,0,0,.26,5.29c.21.88.65,1.71.87,2.6a6.79,6.79,0,0,0,2.61,3.5,37.78,37.78,0,0,0,7,4.16,3.39,3.39,0,0,0,2.94.25,10.91,10.91,0,0,1,1.92-.41,10.67,10.67,0,0,0,5.32-2.93c.56-.57,1.13-1.12,1.69-1.69.3-.32.2-.5-.15-.8a16.7,16.7,0,0,1-1.6-1.75c-.36-.39-.81-.45-1.13-.08a10.29,10.29,0,0,1-4.69,2.71,5.3,5.3,0,0,1-4.24-.17c-.8-.41-1.53-.94-2.33-1.33a4,4,0,0,1-1.83-1.8c-.33-.61-.91-1.07-1.23-1.68a7.27,7.27,0,0,1-.48-4.22,10,10,0,0,1,.6-2.66,22,22,0,0,1,1.47-2.4,10.35,10.35,0,0,1,2.71-3.14c.17-.13.37-.31.56-.31a3.9,3.9,0,0,0,2.63-1.27A.68.68,0,0,1,38.26,42a12.92,12.92,0,0,1-1.63,1.1,13.33,13.33,0,0,0-3.29,2.83,5.35,5.35,0,0,0-.92,1.85c-.13.34-.19.67-.56.84a.93.93,0,0,0-.53.93c0,1.23,0,2.46-.08,3.7a.13.13,0,0,0,0,.06c.79,1.49,1.25,3.21,2.85,4.15C35,58,35.94,58.5,36.87,59a4.13,4.13,0,0,0,3.63.19c.43-.17.91-.2,1.31-.4a8.09,8.09,0,0,0,3.24-2.37c.48-.69.6-.66,1.24-.11a26.88,26.88,0,0,1,2.25,2,1.72,1.72,0,0,1,.36,1.79c-.23.59-.41,1.34-1.31,1.36-.14,0-.31.17-.41.31a6.87,6.87,0,0,1-2.89,2.06c-1.52.73-3.18,1-4.72,1.61-1.91.75-3.36-.07-4.89-.9-.31-.18-.63-.34-.94-.51L29.5,61.75a1.5,1.5,0,0,1-.42-.33c-.74-.83-1.53-1.64-2.2-2.52a12.93,12.93,0,0,1-1-1.85c-.25-.5-.57-1-.77-1.49A5.36,5.36,0,0,1,25,54.34l-.42-3.74a4.6,4.6,0,0,1,.56-2.36l1.26-3c.26-.63.5-1.28.79-1.91a1,1,0,0,1,.44-.46c1.12-.41,1.73-1.39,2.53-2.15A7.64,7.64,0,0,1,33,38.84a4.24,4.24,0,0,0,1.25-.69C34.63,37.86,34.92,37.76,35.45,38.15Z"/><path d="M132.06,71.57c-.07-.91-.1-1.82-.19-2.73a5.91,5.91,0,0,1,0-3,.37.37,0,0,0,0-.23c-.26-.64-.54-1.28-.78-1.93,0-.13.05-.32.09-.48a1.21,1.21,0,0,0,0-.6,4.48,4.48,0,0,1,1.48-.42,5.43,5.43,0,0,1,1.74.59,2,2,0,0,1,1.27,1.73.91.91,0,0,0,.11.34,4.61,4.61,0,0,1,.4,2.68c0,1.68-.13,3.37-.19,5.06,0,.93.07,1.88,0,2.8a7.35,7.35,0,0,1-.83,3.19c-.22.34-.11.88-.28,1.26-.5,1.09-1.08,2.14-1.62,3.21-.34.7-.64,1.41-1,2.09a1.69,1.69,0,0,1-1.58,1.07c-.44,0-.88.24-1.32.25s-1.57-1.14-1.51-1.66c0-.16.17-.31.28-.44a2.13,2.13,0,0,0,.71-1.46,1.49,1.49,0,0,1,.27-.64,10.45,10.45,0,0,1,.71-1,1.29,1.29,0,0,1,.41-.25c0,.16.09.32.12.48a.37.37,0,0,1,0,.17c-.39.89-.75,1.8-1.18,2.67-.15.31-.32.55,0,.85a.89.89,0,0,0,1.09.19,2.35,2.35,0,0,0,.67-.5,7.07,7.07,0,0,0,1.27-1.42,28.08,28.08,0,0,0,1.25-2.8c.15-.37.25-.76.4-1.12a18.6,18.6,0,0,0,.51-2.37c.27-1,.28-1.94.45-2.9a25.07,25.07,0,0,0,.47-7.42,14.35,14.35,0,0,0-.8-2.68A2.64,2.64,0,0,0,133.39,63a1,1,0,0,0-.88,0,.79.79,0,0,0-.27.68c.12.54.36,1,.52,1.57a5.47,5.47,0,0,1,.36,1.46c0,1.77,0,3.54-.08,5.32,0,1-.28,2-.38,3a13.92,13.92,0,0,1-1.12,3.74c-.2.5-.34,1-.53,1.52-.06.14-.22.23-.33.35-.11-.13-.27-.25-.32-.4a1.18,1.18,0,0,1,0-.59c.15-.82.3-1.63.49-2.45a15.69,15.69,0,0,0,.63-4.53c0-.36.3-.74.47-1.11Z"/><path d="M55.54,44.29a6.21,6.21,0,0,1,3.36,1.06,5.15,5.15,0,0,1,1.54,1.1,11.16,11.16,0,0,1,1.12,1.68,1.19,1.19,0,0,1,0,1.41,1.28,1.28,0,0,1-.54.32c-.35.14-.74.2-1.08.37-1.18.6-2.34,1.26-3.54,1.85-.41.21-.37.5-.36.84,0,1,0,1,1,1.15.2,0,.39.09.59.14a.76.76,0,0,0,.87-.41,7.37,7.37,0,0,1,1.46-1.59,2,2,0,0,1,2.92,1.17c.38,1.33-.22,2.38-.75,3.46a2.35,2.35,0,0,1-1,.82A9.49,9.49,0,0,1,56.59,59a3.18,3.18,0,0,1-1.21-.27,24.43,24.43,0,0,1-2.68-1.29,4.77,4.77,0,0,1-2.28-2.86c0-.13,0-.32-.13-.39-1-.75-.91-1.91-.91-2.91a8.12,8.12,0,0,1,2.69-6.15c.87-.79,2-.73,3.11-.86A2.16,2.16,0,0,1,55.54,44.29ZM50,51.48l.21,0a3,3,0,0,0,.57,2.38,8.06,8.06,0,0,1,.6,1.17A3.47,3.47,0,0,0,53.1,57c.71.34,1.46.6,2.16,1a3.72,3.72,0,0,0,3.39,0c.47-.22,1-.37,1.43-.61a4.25,4.25,0,0,0,2-2.77,1.63,1.63,0,0,0,0-.66,1.15,1.15,0,0,0-1.49-1.09c-.32.13-.55.49-.82.75-.73.73-1.21,1.93-2.61,1.37a1.17,1.17,0,0,0-.42,0c-1.22,0-1.47-.29-1.81-2.14-.12-.61.23-1,1.13-1.36A11.78,11.78,0,0,0,57.37,51c.89-.44,1.73-1,2.62-1.4s.81-.48.59-1.34c-.52-2-3.76-3.27-5.53-3.25-2.16,0-3.31,1.36-4.17,2.91A13,13,0,0,0,50,51.48Z"/><path d="M52,97.38c1,.24,1.82.78,2.79.58a.8.8,0,0,0,.5-.47,3.84,3.84,0,0,1,1.94-1.87,1.58,1.58,0,0,1,2,.33,2.45,2.45,0,0,1,.35,2.79,4.44,4.44,0,0,1-1.94,2c-.46.27-.85.67-1.31.92a6.07,6.07,0,0,1-6,.29,5.61,5.61,0,0,1-2-1.54,15.64,15.64,0,0,1-.78-1.59c-.9-1.45-.72-3-.59-4.6a6.06,6.06,0,0,1,.73-1.88c.58-1.22,1.14-2.46,2.6-2.87a11.94,11.94,0,0,1,2.24-.59c1.76-.15,2.79,1,3.69,2.31.29.43.51.91.79,1.35.52.82.29,1.33-.6,1.71A11.21,11.21,0,0,0,52,97.38ZM47.54,96a6.27,6.27,0,0,0,1.22,3.83,3.5,3.5,0,0,0,3.11,1.94,9.25,9.25,0,0,0,3.18-.22,14.53,14.53,0,0,0,3.48-2.26,2,2,0,0,0,.54-2.54,1.07,1.07,0,0,0-1.62-.39c-.56.48-1.05,1-1.6,1.56-.35.33-.74.87-1.13.88a6.68,6.68,0,0,1-3.46-1,.61.61,0,0,1-.08-1c.38-.32.9-.48,1.27-.81a16.33,16.33,0,0,1,3.63-2.23c.48-.25.56-.56.24-1a5,5,0,0,1-.72-1.09,3.29,3.29,0,0,0-1.75-1.71c-1.18-.56-2.29,0-3.38.42a2.39,2.39,0,0,0-1.16.8A7.68,7.68,0,0,0,47.54,96Z"/><path d="M65.25,96.24c.81-.45,1.53-.85,2.26-1.24.92-.49,1-.68.43-1.57-.73-1.23-1.45-2.48-2.17-3.72-1.35-2.35-2.65-4.72-4.06-7-.83-1.36-1.86-2.59-2.75-3.91a5,5,0,0,1-1.16-2.44,5.72,5.72,0,0,0-.64-1.77c-.19-.43-.48-.25-.8-.11-.88.39-1.77.78-2.69,1.1-.38.13-.71,0-.68-.53a8.89,8.89,0,0,0,1.52-.37,13.35,13.35,0,0,0,1.76-1c.36-.23.61-.23.86.13.5.74,1.06,1.45,1.53,2.21.79,1.26,1.56,2.55,2.28,3.86.41.74.63,1.59,1.06,2.33,1.25,2.19,2.57,4.35,3.86,6.53.75,1.29,1.49,2.6,2.24,3.89.27.47.56.92.83,1.39.45.77.33,1.08-.46,1.5S66.79,96.47,66,97c-.37.22-.32.53-.2.89a2.2,2.2,0,0,1,0,.67c-.2-.16-.5-.27-.59-.48a37.51,37.51,0,0,0-2.25-4.7c-.56-.92-1.15-1.81-1.68-2.75S60.44,89,60,88.15c-.61-1.12-1.27-2.2-1.9-3.31s-1.11-2-1.68-2.94c-.44-.75-.86-1.51-1.37-2.21s-1.36-1.6-2-2.43a3.83,3.83,0,0,1-.37-1l.2-.11a1.3,1.3,0,0,1,.35.25c1,1.51,2.13,3,3.06,4.56,1.69,2.87,3.26,5.81,4.92,8.7.85,1.48,1.76,2.93,2.64,4.4.38.63.76,1.26,1.15,1.89A1.66,1.66,0,0,0,65.25,96.24Z"/><path d="M63.88,44.14a14.47,14.47,0,0,1,.4-1.47,7.54,7.54,0,0,1,1.8-3.33,6,6,0,0,1,3-1.43,9.5,9.5,0,0,1,2.54.16c.44,0,.89.78.91,1.36a1.72,1.72,0,0,1-1.77,2.06,2.47,2.47,0,0,0-2.16,2.28.81.81,0,0,1,0,.35c-.52,1,.18,1.72.72,2.4a1.5,1.5,0,0,0,2.31.1,12.83,12.83,0,0,1,1.51-1.12,1,1,0,0,1,.68-.14,3.58,3.58,0,0,1,2.35,1.29,1.53,1.53,0,0,1-.22,2,8.54,8.54,0,0,1-2.59,2c-1.8.76-3.94,1.07-5.6-.42a11.49,11.49,0,0,1-2.66-3.19.43.43,0,0,0-.13-.19A3.63,3.63,0,0,1,63.88,44.14Zm7.79-4.52c0-1.09-.46-1.41-1.47-1a2.07,2.07,0,0,1-.74.21A3.79,3.79,0,0,0,65.8,41a14,14,0,0,1-.69,1.58A2.71,2.71,0,0,0,65,45.08a11.28,11.28,0,0,0,2.67,4.34,4.59,4.59,0,0,0,5,1c1.46-.55,2.18-1.78,2.94-3a.85.85,0,0,0-.19-.76,1.85,1.85,0,0,0-2.72.1,2.82,2.82,0,0,1-4.54-.76,3.72,3.72,0,0,1,2.6-5.36C71.57,40.56,71.65,40.43,71.67,39.62Z"/><path d="M71.61,85a1.4,1.4,0,0,0,.39-.2A2,2,0,0,1,73.75,84a2.22,2.22,0,0,1,.49.18c-.14.14-.28.4-.43.41a2.24,2.24,0,0,0-1.63.91,2.66,2.66,0,0,0-.54,2.51,3.76,3.76,0,0,0,1.42,2.15,1.3,1.3,0,0,0,.91.22c.44,0,.86-.32,1.3-.37,1.58-.19,2.39-1.39,3.33-2.43.09-.1.21-.25.2-.36-.15-1.11.34-2.29-.31-3.35l-.13-.18c-.33.31-.44.13-.62-.2A9.7,9.7,0,0,0,76.63,82a7.3,7.3,0,0,0-1.21-1.15c-.76-.56-1.57-1-2.35-1.56l-.24-.18c.15,0,.23-.07.29-.05.89.35,1.92.44,2.57,1.28.08.09.15.21.25.25a4.58,4.58,0,0,0,.53.14c0-.16,0-.32,0-.48s0-.14-.09-.29c.14,0,.23.06.26.1.73.94,1.42,1.91,2.18,2.82a4.31,4.31,0,0,1,1.06,2.69c0,.48.52,1,.88,1.56a2.49,2.49,0,0,1-.81,0c-.35-.11-.48,0-.66.29a7.44,7.44,0,0,1-3.28,3,10.59,10.59,0,0,1-1.13.54c-1.6.44-2.76-.18-3.71-1.75a3.3,3.3,0,0,1-.09-3.35c.19-.39,0-.51-.31-.65-.78-.29-1.54-.61-2.29-1A1,1,0,0,1,68.15,83a7,7,0,0,1,2.46-3.09,2.77,2.77,0,0,1,2.45-.31c-.64.2-1.14.35-1.64.53a1,1,0,0,0-.44.27c-.59.69-1.15,1.4-1.73,2.1s-.62,1.1.17,1.72,1.22.55,1.64-.34.94-1.57,2-1.56a1.36,1.36,0,0,1,1.29,1.4,3.55,3.55,0,0,1-.43-.61.64.64,0,0,0-1-.34,2.46,2.46,0,0,0-1.48,1.83C71.49,84.66,71.57,84.78,71.61,85Z"/><path d="M110.46,88.31c-.3,1.09-.55,2.19-.91,3.26-.43,1.28-.93,2.55-1.42,3.81-.6,1.52-1.24,3-1.84,4.54-.36.9-.64,1.84-1,2.74-.58,1.44-1.19,2.87-1.81,4.29-.07.16-.28.39-.4.37a.65.65,0,0,1-.46-.37,1.93,1.93,0,0,1,0-.86c.46-1.91.94-3.82,1.42-5.72.18-.72.37-1.43.55-2.14.36-1.42.72-2.84,1.1-4.26a8.09,8.09,0,0,1,.33-.81c.25-.77.53-1.53.74-2.31.32-1.13.58-2.27.87-3.4a.53.53,0,0,1,.72-.43l1.23.29A1.05,1.05,0,0,1,110.46,88.31Zm-6.19,14.42.2.08c.12-.22.25-.43.35-.66.49-1.24,1-2.49,1.46-3.73s.89-2.18,1.3-3.28c.52-1.44,1-2.88,1.48-4.34a16.6,16.6,0,0,0,.56-2.18.71.71,0,0,0-.3-.63,1,1,0,0,0-.77.08,1.07,1.07,0,0,0-.41.56c-.16.45-.23.92-.36,1.38q-1.17,4.15-2.37,8.33c-.22.76-.47,1.51-.67,2.28S104.42,102,104.27,102.73Z"/><path d="M18.05,60.22a1,1,0,0,0-.51,1.07,1.11,1.11,0,0,1-.32,1.2,1.92,1.92,0,0,1-.09-.54,13.31,13.31,0,0,1,.59-3,8.44,8.44,0,0,0,.7-2.91,8.52,8.52,0,0,1,1-3.16c.69-1.64,1.32-3.31,2-5a2,2,0,0,1,.25-.53,4.07,4.07,0,0,0,.81-2.08,7.26,7.26,0,0,1,1.38-3.62.24.24,0,0,0,.05-.1c.33-1.64,1.66-2.59,2.6-3.81.33-.44.67-.88,1-1.31.06-.07.16-.09.36,0-.29.5-.57,1-.88,1.49a28,28,0,0,1-1.7,2.58,10.19,10.19,0,0,0-1,2.47c-.74,1.67-1.54,3.31-2.3,5-.13.28-.15.62-.26.91-.18.52-.42,1-.58,1.55-.24.79-.44,1.59-.64,2.4s-.29,1.35-.41,1.89c-.44.13-.77.23-1.08.35,0,0,0,.27.09.29a3,3,0,0,0,.67.14c-.15.94-.31,2-.45,3s-.22,1.85-.37,2.77-.37,1.77-.52,2.66c-.06.31,0,.64,0,1,0,.14-.17.27-.26.41-.12-.14-.35-.28-.34-.41.05-.85.14-1.69.23-2.54.08-.66.18-1.32.27-2Zm.19-1.14.28,0,.23-1.57-.27,0Z"/><path d="M130.52,106.76a9.55,9.55,0,0,1-.73,4.26,48,48,0,0,1-2,5.25,10.35,10.35,0,0,1-2,2.4,1.83,1.83,0,0,1-.93.35c-.44.11-.9.15-1.34.25a2.51,2.51,0,0,1-2.51-1c-.11-.15-.18-.31-.29-.45a2.08,2.08,0,0,1,.11-3,28.68,28.68,0,0,0,4.56-7c.48-1.1.81-2.28,1.26-3.4a1.65,1.65,0,0,1,2.2-1,2.65,2.65,0,0,1,1.65,2.18C130.53,106,130.52,106.37,130.52,106.76Zm-7.08,12c1.78.2,2.89-.88,3.63-2.36s1.19-2.91,1.76-4.37a12.22,12.22,0,0,0,.7-2.09,14.76,14.76,0,0,0,.22-4.15,2.08,2.08,0,0,0-.9-1.59.93.93,0,0,0-1.53.71,5.55,5.55,0,0,1-.32,1.26c-.24.59-.53,1.16-.82,1.72a35,35,0,0,1-1.94,3.69,26.79,26.79,0,0,1-2.55,3c-1.11,1.23-1.15,2.17-.1,3.42A1.84,1.84,0,0,0,123.44,118.74Z"/><path d="M20,96.2a1.55,1.55,0,0,1-1-1.39c-.12-1.55-.24-3.1-.37-4.64a.7.7,0,0,0-.12-.45c-.9-.85-.82-2-1.09-3.09a30.32,30.32,0,0,1-.65-3.15c-.33-2.35-.7-4.69-.85-7.06a25,25,0,0,1,.42-3.9,6,6,0,0,0-.1-1.18,4.61,4.61,0,0,1,.08-2.75,2.46,2.46,0,0,0,.07-1l.24,0,.09.68c0,.34.09.68.13,1a2.12,2.12,0,0,1,.08.41c-.12,1.3-.34,2.6-.33,3.9,0,1.71.18,3.42.29,5.12,0,.07.08.13.12.19h.18V75.26h.21c0,.8.08,1.61.13,2.41.08,1.21.17,2.42.25,3.62a4.74,4.74,0,0,1,0,.84,1.28,1.28,0,0,0,.46,1.22c.17.15.09.63.07,1s-.14.93-.14,1.39c0,.23.19.45.28.68a3.71,3.71,0,0,1,.24.71c.17,1.14.33,2.29.49,3.43C19.46,92.42,19.73,94.31,20,96.2Z"/><path d="M80.5,38.65a1.86,1.86,0,0,1-.43-.46c-.49-1-1-2-1.41-3-.22-.53.46-1.43,1.21-1.74,1.17-.49,1.7-.35,2.47,1s1.32,2.59,2,3.88a20.39,20.39,0,0,0,1,1.86,7.43,7.43,0,0,1,1.07,2.64,1.9,1.9,0,0,0,.64.89c.46.4.53.68,0,1a8.69,8.69,0,0,1-1.8.91c-.5.18-.82.35-.74,1,0,.14-.2.31-.31.47-.13-.13-.3-.23-.37-.38-.62-1.37-.78-2.89-1.7-4.18A9.66,9.66,0,0,1,81,39.24c.21.39.44.77.64,1.17.38.74.73,1.51,1.15,2.23a6.43,6.43,0,0,0,.77.8,1.77,1.77,0,0,1,.46.74c.12.71.56,1,1.23.71l.21-.11c1-.51,1-.71.43-1.63a3.13,3.13,0,0,1-.5-1,12.83,12.83,0,0,0-1.6-3.26,13.1,13.1,0,0,1-1-2.33A5.5,5.5,0,0,0,81,34.12c-.42-.37-.83-.09-1.19.17a.88.88,0,0,0-.26,1.08c.35,1.07.69,2.14,1,3.21Z"/><path d="M16,95.28a4.11,4.11,0,0,1-.52-1.16,19.93,19.93,0,0,0-1.3-4.21c-.62-1.8-1-3.68-1.64-5.48a19.12,19.12,0,0,1-.67-6.2c0-.79,0-1.58,0-2.37A2.31,2.31,0,0,1,12,75.4l.41,3.06.31,0V75l.27,0a3.86,3.86,0,0,1,.12.57c.07.64.14,1.27.16,1.91a11.2,11.2,0,0,1-.1,1.29,4,4,0,0,0,0,.47,7.16,7.16,0,0,1-.3,3.18,2.17,2.17,0,0,0,.05,1.18c.25,1,.54,2.07.83,3.09,0,.13.2.23.31.34.05-.16.16-.33.14-.47-.1-.53-.27-1-.35-1.58a1.9,1.9,0,0,1,.17-.66l.17,0L16.1,95.22Z"/><path d="M91,110.1c-1.59.25-3.17.57-4.77.74q-3,.33-6.08.44a7.48,7.48,0,0,1-2.27-.4.92.92,0,0,1-.56-.7c0-.39.15-1,.42-1.13a8,8,0,0,1,2.6-.73c1.84-.14,3.7-.13,5.55-.13a14.22,14.22,0,0,1,5,.68,14.39,14.39,0,0,0,1.64.3,2.64,2.64,0,0,1,.69.35c-.22.2-.41.5-.67.57a11.34,11.34,0,0,1-1.54.17Zm.19-.63-.29-.11a18.67,18.67,0,0,0-5.86-.57c-1.36,0-2.72.06-4.07.11a5.23,5.23,0,0,0-2.67.47c-.16.11-.4.35-.37.46a.9.9,0,0,0,.47.54,4.53,4.53,0,0,0,1.44.31,27.08,27.08,0,0,0,3-.06c1.83-.16,3.64-.43,5.46-.53A6.43,6.43,0,0,0,91.2,109.47Z"/><path d="M92.18,80.2c-.11.65-.23,1.44-.37,2.22a.81.81,0,0,1-.27.45A4.71,4.71,0,0,1,89.31,84a2.47,2.47,0,0,1-2.45-1,2.77,2.77,0,0,1-.43-2.77,2,2,0,0,1,1.48-1.42c.69-.16,1.39-.29,2.08-.47a.71.71,0,0,0,.47-.34c.19-.53.5-.44.75-.15A3.6,3.6,0,0,1,92.18,80.2Zm-1.09.7c0-1.05-.27-1.69-.76-1.66a5.21,5.21,0,0,0-2.28.48,1.84,1.84,0,0,0,.29,3.37,2.13,2.13,0,0,0,2.36-.67A7.07,7.07,0,0,0,91.09,80.9Z"/><path d="M74.08,130.38c-.22.11-.4.29-.57.29-2.37,0-4.75-.06-7.12-.15a31.89,31.89,0,0,1-3.9-.33,3.22,3.22,0,0,1-2-.7,1,1,0,0,0-.61-.2,9,9,0,0,1-3.2-1,9.65,9.65,0,0,1-1-.37c-.21-.12-.33-.39-.49-.59a2.52,2.52,0,0,1,.72,0c.72.18,1.43.41,2.15.61.07,0,.2,0,.22.06.27.68,1,.4,1.46.76.08.06.23,0,.34.06a8.29,8.29,0,0,1,1.52.41,1.87,1.87,0,0,0,1.49.17,1.51,1.51,0,0,1,1.41.13,1.27,1.27,0,0,0,.63.1c.66,0,1.37-.19,1.94.4,0,.06.39-.07.51-.19a1.21,1.21,0,0,1,1.52-.24c.7.25,1.33,1,2.2.48C72.16,130.44,73.09,129.75,74.08,130.38Z"/><path d="M18,47.18a6.39,6.39,0,0,1-.13.63c-.3.91-.63,1.81-.91,2.72a5.06,5.06,0,0,0-.06,1c0,.1,0,.22,0,.29-.91,1.67-1.11,3.57-1.7,5.34A38,38,0,0,0,14,61.43c-.33,1.59-.55,3.21-.75,4.82-.07.49-.13.88-.78,1,0-.28,0-.52.09-.76a16.94,16.94,0,0,0,.4-1.82c.13-1.27.15-2.55.28-3.82.11-1.11.29-2.21.51-3.31a1.3,1.3,0,0,1,.57-.85,1.19,1.19,0,0,0,.6-.91c.23-.84.58-1.65.81-2.49.31-1.1.53-2.23.85-3.33a16.67,16.67,0,0,1,.68-1.64c.09-.24.12-.5.2-.75a4.22,4.22,0,0,1,.25-.53Z"/><path d="M91.84,126.32a5.31,5.31,0,0,1-.76.47c-1.65.61-3.21,1.47-5,1.57-.36,0-.7.35-1.07.44-1.5.34-3,.64-4.52,1-.26.06-.5.16-.76.2-.71.09-1.42.18-2.14.23-.16,0-.34-.16-.57-.28.15-.11.2-.18.24-.17,1.15.29,2.05-.62,3.15-.63.23,0,.45-.33.71-.41.86-.27,1.72-.53,2.6-.73,1.54-.35,3.1-.64,4.64-1,.36-.08.69-.32,1-.42.61-.17,1.23-.31,1.85-.44C91.36,126.11,91.52,126.22,91.84,126.32Z"/><path d="M100.58,21.86l.12.6c-.11,0-.18,0-.22,0-.71-.52-1.39-1.08-2.12-1.57a15.62,15.62,0,0,0-2.12-1.17c-1.17-.53-2.4-1-3.58-1.48-1-.45-2-1-3.06-1.45a1.6,1.6,0,0,1-.23-.16l.08-.14a8.87,8.87,0,0,1,1.16.26c.79.26,1.58.53,2.35.87,1.93.84,3.85,1.71,5.77,2.59.72.33,1.43.7,2.13,1.07l4.32,2.37c.57.32,1,1,.84,1.4,0,.16-.22.37-.36.39a.55.55,0,0,1-.45-.28c-.15-1.43-1.4-1.78-2.36-2.37A16.41,16.41,0,0,0,100.58,21.86Z"/><path d="M36,27a3.31,3.31,0,0,1-.71,0,1.17,1.17,0,0,1-.58-.37A2,2,0,0,1,35,24.66c.61-.58,1.2-1.17,1.83-1.72a7.7,7.7,0,0,1,3.45-1.5,1.65,1.65,0,0,1,.92.14,1,1,0,0,1,.46,1.5,11.92,11.92,0,0,1-4.47,3.78,4.4,4.4,0,0,1-1.16.2Zm.5-.49a2.9,2.9,0,0,0,.6-.21,7.41,7.41,0,0,0,1.47-.92A24.56,24.56,0,0,0,40.79,23c.38-.45.13-.9-.46-.82a6.27,6.27,0,0,0-2.35.6,14.23,14.23,0,0,0-2.55,2.24,1.53,1.53,0,0,0-.17,1.12c0,.12.49.2.75.28A3.2,3.2,0,0,0,36.5,26.51Z"/><path d="M96.17,107.37l-.42.62c-.22-.18-.52-.31-.65-.55a4.18,4.18,0,0,1-.49-1.27,4.16,4.16,0,0,0-1.2-2A9.33,9.33,0,0,1,92,102.31a.93.93,0,0,1,.07-.91,1.15,1.15,0,0,1,1-.08,3.55,3.55,0,0,1,1.83,2.23,26.77,26.77,0,0,0,1.13,3.18A4.83,4.83,0,0,1,96.17,107.37Z"/><path d="M18.89,43.87A9.79,9.79,0,0,1,21,39.35a2.47,2.47,0,0,0,.38-.67,13,13,0,0,1,3.9-4.9,3,3,0,0,1,3,0c.25.23.22.66-.05,1.21a4.11,4.11,0,0,0-1.12-.76,2.16,2.16,0,0,0-2,.54,13.91,13.91,0,0,0-3.41,4.39A13.73,13.73,0,0,1,21,40.39c-.52.94-1,1.89-1.55,2.83A5.38,5.38,0,0,1,18.89,43.87Z"/><path d="M128.87,100.29c-1.74-.13-2.22-1-1.51-2.63a6.85,6.85,0,0,1,1.37-2.15c.49-.49,1-.34,1.55-.18a1.07,1.07,0,0,1,.78,1A4.34,4.34,0,0,1,131,99,2.11,2.11,0,0,1,128.87,100.29Zm1.38-3h.07a8.16,8.16,0,0,0-.26-1c-.19-.49-.6-.58-.89-.15-.42.62-.75,1.3-1.12,2a1,1,0,0,0,.21,1.41,1.38,1.38,0,0,0,1.09.19,1.25,1.25,0,0,0,.89-1.16C130.27,98.13,130.25,97.71,130.25,97.29Z"/><path d="M71.93,16.49c0-.09.1-.28.19-.31a9,9,0,0,1,2-.65c2.08-.19,4.18-.29,6.27-.38,1.31-.05,2.63,0,3.94,0,.18,0,.35.17.53.26a3.82,3.82,0,0,1-.43.6c-.07.07-.27,0-.4,0a65,65,0,0,0-10.16.24Z"/><path d="M118.11,39a5,5,0,0,1-1.38-1.38c-.46-.77-.91-1.55-1.41-2.29a12.09,12.09,0,0,0-.86-.9c-.28-.32-.47-.73-.77-1-1.09-1.1-2.21-2.17-3.3-3.28s-2.26-2.34-3.39-3.51c-.28-.29-.57-.57-.86-.85l.1-.12a.91.91,0,0,1,.33.15c.79.78,1.55,1.6,2.35,2.37,1,1,2.14,1.91,3.15,2.93a22.55,22.55,0,0,1,4.16,4.66c.57,1,1.31,1.93,2,2.9a.74.74,0,0,1,.07.21Z"/><path d="M50.44,129.17a2.82,2.82,0,0,1-1-.06,5.89,5.89,0,0,1-2.35-1.22,9.62,9.62,0,0,0-1.36-.94,7.44,7.44,0,0,1-1.91-1.68,5.24,5.24,0,0,1-.56-2.55c0-.77.76-1.21,1.32-1.67.08-.06.42,0,.43.1a.73.73,0,0,1-.07.57,6.78,6.78,0,0,1-.84.76.86.86,0,0,0-.16,1.31,11.09,11.09,0,0,0,2.53,3s0,0,0,0a6.19,6.19,0,0,1,2.3,1.27c.53.33,1.09.62,1.63.93Z"/><path d="M79.11,29.46c-.06,1.09-.15,1.29-1.28,1.53a7.45,7.45,0,0,1-2.11,0,1,1,0,0,1-.63-.49,2.93,2.93,0,0,1,.57-2.33c.83-.56,1.56-.92,2.43-.31C78.6,28.23,79.29,28.6,79.11,29.46Zm-1.75,1a.65.65,0,0,0,.68-.67,1.47,1.47,0,0,0-1.11-1.3c-.52,0-1,.56-1,1.27C75.9,30.15,76.36,30.39,77.36,30.43Z"/><path d="M106,116.13c0,.16,0,.32,0,.48a.69.69,0,0,1-1,.67,3.8,3.8,0,0,1-2.33-3.66,1.18,1.18,0,0,1,.43-.89,1.23,1.23,0,0,1,1,.1A3.4,3.4,0,0,1,106,116.13Zm-.7-.19a3.57,3.57,0,0,0-1.32-2.16c-.28-.24-.5,0-.53.35a2.61,2.61,0,0,0,1.38,2.07C105,116.24,105.14,116,105.29,115.94Z"/><path d="M97.61,116.52c-1,.33-2,1.06-3,.25a10,10,0,0,1,.44-1.18,8.49,8.49,0,0,1,1-1.41,13.13,13.13,0,0,1,1.42-1.37,2.3,2.3,0,0,1,.65-.31l.17.24c-.39.4-.79.79-1.17,1.2a11.3,11.3,0,0,0-1.18,1.41c-.13.21,0,.58,0,.87.31-.07.78,0,.91-.24a23.8,23.8,0,0,0,1.43-2.38c.15-.28.2-.61.37-.88s.34-.21.52-.31c0,.21.17.47.1.64-.37.85-.79,1.68-1.19,2.52C97.89,115.85,97.77,116.14,97.61,116.52Z"/><path d="M91,132c.9-.82,1.8-1.63,2.68-2.46.35-.32.64-.71,1-1.05a11.41,11.41,0,0,0,.92-.92,1.52,1.52,0,0,0,.36-.86c0-.13-.43-.32-.68-.38-.59-.12-1.19-.17-1.77-.28-.17,0-.46-.19-.46-.28a.81.81,0,0,1,.29-.53c.53-.41,2.66-.33,3,.21a2.28,2.28,0,0,1,.13,1.53,1.85,1.85,0,0,1-1.09,1.34c-.26.1-.4.51-.6.77a9.29,9.29,0,0,1-.89,1.08c-.67.62-1.38,1.19-2.08,1.77a6.61,6.61,0,0,1-.55.37Z"/><path d="M48.2,122.8c.07,1.18,1,1.45,1.66,1.92A16.14,16.14,0,0,0,54,126.46a1.88,1.88,0,0,1,.82.66,17.81,17.81,0,0,1-5.14-1.56,13.85,13.85,0,0,1-4.36-3.74l.12-.16A2.65,2.65,0,0,1,46,122a7.77,7.77,0,0,1,.78.74A.85.85,0,0,0,48.2,122.8Z"/><path d="M16.38,96.07l1.09.08c.11.23.22.51.36.76s.53.74-.13,1.07c-.13.07-.13.63,0,.91.44,1.27,1.51,2.1,2.3,3.12a1.85,1.85,0,0,0,.33.23l.27-2.55h.23c.08,1,.19,2,.23,3a.79.79,0,0,1-.44.56.7.7,0,0,1-.6-.23c-.3-.38-.53-.83-.8-1.24s-.48-1-.87-1.18a2.45,2.45,0,0,1-1.16-2.09,6.88,6.88,0,0,0-.3-.87C16.68,97.16,16.54,96.62,16.38,96.07Z"/><path d="M73.87,87.44c.07-1.3.24-1.59,1.37-2.1a1.78,1.78,0,0,1,1.91.45,1.67,1.67,0,0,1,0,1.8,7.3,7.3,0,0,1-.6.75,1.46,1.46,0,0,1-2.21.28C74.07,88.38,74,87.84,73.87,87.44Zm.64,0a2.53,2.53,0,0,0,.39.77.7.7,0,0,0,.7,0,4.54,4.54,0,0,0,1-1.22,1,1,0,0,0-.23-.87,1.17,1.17,0,0,0-1-.09A1.38,1.38,0,0,0,74.51,87.48Z"/><path d="M110.36,107.77c.26.18.66.33.81.61a.84.84,0,0,1-.32,1.05c-.39.34-.76.71-1.12,1.08a.77.77,0,0,1-1.07.14c-.41-.25-.8-.55-1.32-.27a.41.41,0,0,1-.34-.13.86.86,0,0,1,.08-.5c.2-.33.44-.64.66-1,.07-.09.14-.22.24-.25C108.73,108.28,109.49,108,110.36,107.77Zm-2.19,1.35v.24c.08.06.17.1.25.17.83.74,1.61.5,1.9-.58.08-.31,0-.53-.33-.46C109.36,108.66,108.77,108.91,108.17,109.12Z"/><path d="M67.68,17.38a5.32,5.32,0,0,1,3.37-.82C70.81,17.59,69.58,17.89,67.68,17.38Z"/><path d="M139.5,78.08a10,10,0,0,0,.43-1c.15-.47.26-1,.38-1.42,0-.07,0-.18.06-.23.2-.2.43-.39.65-.59a3.3,3.3,0,0,1,.11.87,8.37,8.37,0,0,0-.32,1.13c0,.86-.73,1-1.15,1.37Z"/><path d="M16.57,67.17A11.66,11.66,0,0,1,17.15,63C17.58,64.49,17.05,65.83,16.57,67.17Z"/><path d="M120.18,40c1.21.35,1.34-.59,1.73-1.21a1.54,1.54,0,0,1-.52,1.87C120.91,40.91,120.56,40.65,120.18,40Z"/><path d="M93.66,81.46c-.29.53-.55,1-.83,1.47a2.49,2.49,0,0,1-.42.44c-.11-.22-.36-.54-.29-.64a8.74,8.74,0,0,1,1.08-1.2C93.28,81.45,93.49,81.48,93.66,81.46Z"/><path d="M85.13,15.49A9.1,9.1,0,0,1,88,16C87.28,16.45,85.34,16.07,85.13,15.49Z"/><path d="M86.16,133.37a3.14,3.14,0,0,1,2.58-.41A3,3,0,0,1,86.16,133.37Z"/><path d="M137.84,81.13a4.2,4.2,0,0,1-1.74,2.78Z"/><path d="M24.38,89.19a2.56,2.56,0,0,1-.1.69c-.34.68-.72,1.33-1.12,2.06,0-.29-.1-.63,0-.85.36-.65.8-1.26,1.21-1.88Z"/><path d="M12.69,72.94l-.57,2C11.61,73.92,11.85,73.17,12.69,72.94Z"/><path d="M63,133.59l-2.12-.31C61.69,132.87,62.77,133,63,133.59Z"/><path d="M71.7,134a2.15,2.15,0,0,1-2.28,0Z"/><path d="M85,133.92c-.36,0-.72.1-1.08.11-.07,0-.2-.16-.19-.23s.13-.3.21-.3a9.24,9.24,0,0,1,1,.06Z"/><path d="M99.94,38.24,98.46,39A1.07,1.07,0,0,1,99.94,38.24Z"/><path d="M29.78,71.92l-1.33.67-.08-.17a1.62,1.62,0,0,1,1.29-.74Z"/><path d="M18.3,45.2c0-.31.05-.62.11-.93,0-.06.19-.1.29-.15,0,.1.15.22.13.3-.08.28-.2.56-.3.84Z"/><path d="M73.18,134.47c.28-.06.56-.13.85-.17.08,0,.18.09.28.14-.06.1-.1.27-.17.27-.32,0-.64,0-1,0Z"/><path d="M141,73.4l-.12-1.19.32,0,.09,1.22Z"/><path d="M112.41,71.87l-.72.41-.15-.11c.06-.19.06-.5.19-.56s.42,0,.63.06Z"/><path d="M17.71,68.06l.11-1.59H18l-.12,1.58Z"/><path d="M101.67,23.06l.68.54-.16.21-.73-.48Z"/><path d="M47,104.92c.1-.39.42-.32.79-.12l-.66.34Z"/><path d="M67.12,133.8c.31-.32.55-.17.89.27l-.89-.06Z"/><path class="cls-1" d="M96.28,4.77l-.89-.9.19-.2.92.87Z"/><path class="cls-1" d="M4.21,79.93l.49,1.23c-.54-.23-.67-.62-.48-1.23Z"/><path class="cls-1" d="M102.24,110.23l-.61-.24-.78-.26c-.06,0-.14,0-.18,0l-.81-.79c.3-.2.63-.61.89-.56.78.13,1.66.09,2.26.76a4.2,4.2,0,0,1,.41.72c-.23.11-.46.24-.7.34A2.24,2.24,0,0,1,102.24,110.23Z"/><path class="cls-1" d="M30.65,102.41l-.53-1.36.16-.09a1.7,1.7,0,0,1,.26.18c.72.85,1.39,1.74,2.17,2.54a3,3,0,0,0,2.51.88c1-.11,2.07-.15,3.11-.21.32,0,.66,0,.66-.47,0-.09.2-.2.32-.29.48-.34,1-.65,1.44-1s.76-.71,1.16-1a.89.89,0,0,1,.54-.21c1,.1,1.93.2,2.89.36.32,0,.42.32.26.65-.28.62-.54,1.24-.79,1.87a3.75,3.75,0,0,1-2.13,2c-.84.36-1.69.7-2.54,1-.63.25-1.26.48-1.93.73l.22.57c-.8.17-1.54.52-2.38.07l1-.32v-.11a2.2,2.2,0,0,0-.36,0,13.12,13.12,0,0,1-2.73,0,6.63,6.63,0,0,1-2.37-1,31.36,31.36,0,0,1-3.13-2.49A12.94,12.94,0,0,1,27.15,103c-1.79-2.26-1.85-4.92-1.74-7.61,0-.56.12-1.11.15-1.67A11.74,11.74,0,0,1,27.12,89a8.2,8.2,0,0,1,4.68-4.21c1.22-.41,2.47-.77,3.72-1.06a7.62,7.62,0,0,1,1.65,0c.5,0,1,0,1.51,0,.27,0,.62-.07.77.07s.06.5.08.76a6.58,6.58,0,0,0,.15,1.55c.28.83.18,1.16-.67,1.45-.68.23-1.35.48-2,.7a1.29,1.29,0,0,1-.58.1,4.35,4.35,0,0,0-2.82.84,12.75,12.75,0,0,0-2.23,1.57,5.82,5.82,0,0,0-1.52,3.36c-.17,1.16-.37,2.32-.61,3.47A5.69,5.69,0,0,0,30,102.2c.11.16.36.23.55.34Z"/><path class="cls-1" d="M104.46,19.2c.67.26,1.52.22,1.94,1.1C105.39,20.42,105.07,19.56,104.46,19.2Z"/><path class="cls-1" d="M109,22c-.61.24-1,0-1.5-.78C108.19,21,108.41,21.68,109,22Z"/><path class="cls-1" d="M50,51.48a13,13,0,0,1,.88-3.6c.86-1.55,2-2.88,4.17-2.91,1.77,0,5,1.27,5.53,3.25.22.86.19,1-.59,1.34s-1.73,1-2.62,1.4a11.78,11.78,0,0,1-1.34.47c-.9.33-1.25.75-1.13,1.36.34,1.85.59,2.15,1.81,2.14a1.17,1.17,0,0,1,.42,0c1.4.56,1.88-.64,2.61-1.37.27-.26.5-.62.82-.75a1.15,1.15,0,0,1,1.49,1.09,1.63,1.63,0,0,1,0,.66,4.25,4.25,0,0,1-2,2.77c-.46.24-1,.39-1.43.61a3.72,3.72,0,0,1-3.39,0c-.7-.35-1.45-.61-2.16-1a3.47,3.47,0,0,1-1.72-1.91,8.06,8.06,0,0,0-.6-1.17,3,3,0,0,1-.57-2.38Zm7.78-2.71c-1.16-1.23-1.54-1.57-2.73-1.07a1.87,1.87,0,0,1-.41.09,1.79,1.79,0,0,0-1,1.91.82.82,0,0,0,.49.39A1.8,1.8,0,0,0,55,50c.58-.2,1.15-.44,1.71-.69C57.07,49.17,57.39,49,57.78,48.77Z"/><path class="cls-1" d="M47.54,96a7.68,7.68,0,0,1,1.77-4.82,2.39,2.39,0,0,1,1.16-.8c1.09-.38,2.2-1,3.38-.42a3.29,3.29,0,0,1,1.75,1.71,5,5,0,0,0,.72,1.09c.32.42.24.73-.24,1A16.33,16.33,0,0,0,52.45,96c-.37.33-.89.49-1.27.81a.61.61,0,0,0,.08,1,6.68,6.68,0,0,0,3.46,1c.39,0,.78-.55,1.13-.88.55-.51,1-1.08,1.6-1.56a1.07,1.07,0,0,1,1.62.39,2,2,0,0,1-.54,2.54,14.53,14.53,0,0,1-3.48,2.26,9.25,9.25,0,0,1-3.18.22,3.5,3.5,0,0,1-3.11-1.94A6.27,6.27,0,0,1,47.54,96Zm4.55-2.12a4.73,4.73,0,0,1,.94-.71c.4-.17.43-.35.16-.6a11.51,11.51,0,0,0-1.34-1.08.68.68,0,0,0-.63.09,3.34,3.34,0,0,0-.54,3c.06.15,0,.36,0,.54l0,.48c.21,0,.5,0,.6-.07.46-.51.88-1.07,1.31-1.61l.18.13Z"/><path class="cls-1" d="M71.67,39.62c0,.81-.1.94-1,1.08a3.72,3.72,0,0,0-2.6,5.36,2.82,2.82,0,0,0,4.54.76,1.85,1.85,0,0,1,2.72-.1.85.85,0,0,1,.19.76c-.76,1.2-1.48,2.43-2.94,3a4.59,4.59,0,0,1-5-1A11.28,11.28,0,0,1,65,45.08a2.71,2.71,0,0,1,.14-2.46A14,14,0,0,0,65.8,41a3.79,3.79,0,0,1,3.66-2.23,2.07,2.07,0,0,0,.74-.21C71.21,38.21,71.69,38.53,71.67,39.62Z"/><path class="cls-1" d="M104.27,102.73c.15-.7.29-1.41.47-2.11s.45-1.52.67-2.28q1.2-4.17,2.37-8.33c.13-.46.2-.93.36-1.38a1.07,1.07,0,0,1,.41-.56,1,1,0,0,1,.77-.08.71.71,0,0,1,.3.63,16.6,16.6,0,0,1-.56,2.18c-.47,1.46-1,2.9-1.48,4.34-.41,1.1-.87,2.18-1.3,3.28s-1,2.49-1.46,3.73c-.1.23-.23.44-.35.66Z"/><path class="cls-1" d="M18.24,59.08l.24-1.57.27,0-.23,1.57Z"/><path class="cls-1" d="M123.44,118.74a1.84,1.84,0,0,1-1.85-.76c-1-1.25-1-2.19.1-3.42a26.79,26.79,0,0,0,2.55-3,35,35,0,0,0,1.94-3.69c.29-.56.58-1.13.82-1.72a5.55,5.55,0,0,0,.32-1.26.93.93,0,0,1,1.53-.71,2.08,2.08,0,0,1,.9,1.59,14.76,14.76,0,0,1-.22,4.15,12.22,12.22,0,0,1-.7,2.09c-.57,1.46-1.07,3-1.76,4.37S125.22,118.94,123.44,118.74Z"/><path class="cls-1" d="M91.2,109.47a6.43,6.43,0,0,1-2.9.62c-1.82.1-3.63.37-5.46.53a27.08,27.08,0,0,1-3,.06,4.53,4.53,0,0,1-1.44-.31.9.9,0,0,1-.47-.54c0-.11.21-.35.37-.46A5.23,5.23,0,0,1,81,108.9c1.35-.05,2.71-.08,4.07-.11a18.67,18.67,0,0,1,5.86.57Z"/><path class="cls-1" d="M91.09,80.9a7.07,7.07,0,0,1-.39,1.52,2.13,2.13,0,0,1-2.36.67,1.84,1.84,0,0,1-.29-3.37,5.21,5.21,0,0,1,2.28-.48C90.82,79.21,91.1,79.85,91.09,80.9Z"/><path class="cls-1" d="M36.5,26.51a3.2,3.2,0,0,1-.49-.05c-.26-.08-.73-.16-.75-.28a1.53,1.53,0,0,1,.17-1.12A14.23,14.23,0,0,1,38,22.82a6.27,6.27,0,0,1,2.35-.6c.59-.08.84.37.46.82a24.56,24.56,0,0,1-2.22,2.34,7.41,7.41,0,0,1-1.47.92A2.9,2.9,0,0,1,36.5,26.51Z"/><path class="cls-1" d="M130.25,97.29c0,.42,0,.84,0,1.26a1.25,1.25,0,0,1-.89,1.16,1.38,1.38,0,0,1-1.09-.19,1,1,0,0,1-.21-1.41c.37-.65.7-1.33,1.12-2,.29-.43.7-.34.89.15a8.16,8.16,0,0,1,.26,1Z"/><path class="cls-1" d="M77.36,30.43c-1,0-1.46-.28-1.44-.7,0-.71.49-1.29,1-1.27A1.47,1.47,0,0,1,78,29.76.65.65,0,0,1,77.36,30.43Z"/><path class="cls-1" d="M105.29,115.94c-.15.09-.34.3-.47.26a2.61,2.61,0,0,1-1.38-2.07c0-.36.25-.59.53-.35A3.57,3.57,0,0,1,105.29,115.94Z"/><path class="cls-1" d="M74.51,87.48a1.38,1.38,0,0,1,.9-1.38,1.17,1.17,0,0,1,1,.09,1,1,0,0,1,.23.87,4.54,4.54,0,0,1-1,1.22.7.7,0,0,1-.7,0A2.53,2.53,0,0,1,74.51,87.48Z"/><path class="cls-1" d="M108.17,109.12c.6-.21,1.19-.46,1.81-.63.28-.07.41.15.33.46-.29,1.08-1.07,1.32-1.9.58-.08-.07-.17-.11-.25-.17Z"/><path d="M57.78,48.77c-.39.21-.71.4-1,.55-.56.25-1.13.49-1.71.69a1.8,1.8,0,0,1-.86.08.82.82,0,0,1-.49-.39,1.79,1.79,0,0,1,1-1.91,1.87,1.87,0,0,0,.41-.09C56.24,47.2,56.62,47.54,57.78,48.77Zm-3,.66c.55-.25,1.07-.45,1.56-.72s.29-.45-.07-.59A1.23,1.23,0,0,0,54.78,49.43Z"/><path d="M52.09,93.86l.61.18-.18-.13c-.43.54-.85,1.1-1.31,1.61-.1.11-.39,0-.6.07l0-.48c0-.18.1-.39,0-.54a3.34,3.34,0,0,1,.54-3,.68.68,0,0,1,.63-.09,11.51,11.51,0,0,1,1.34,1.08c.27.25.24.43-.16.6A4.73,4.73,0,0,0,52.09,93.86Zm-.15-1.55a1.23,1.23,0,0,0-.68,1.21C52,93.23,52.12,93,51.94,92.31Z"/><path class="cls-1" d="M54.78,49.43a1.23,1.23,0,0,1,1.49-1.31c.36.14.44.39.07.59S55.33,49.18,54.78,49.43Z"/><path class="cls-1" d="M51.94,92.31c.18.67,0,.92-.68,1.21A1.23,1.23,0,0,1,51.94,92.31Z"/></g></g></svg>