<svg xmlns="http://www.w3.org/2000/svg" viewBox="0 0 146.29 145.18"><defs><style>.cls-1{fill:none;stroke:#000;stroke-miterlimit:10;}.cls-2{fill:#fff;}</style></defs><g id="Calque_2" data-name="Calque 2"><g id="Calque_1-2" data-name="Calque 1"><path class="cls-1" d="M123.33,122.24h0a24.93,24.93,0,0,0-12.79,10.47h0a24.89,24.89,0,0,1-29.87,10.44h0a24.93,24.93,0,0,0-16.55-.23h0a25,25,0,0,1-29.66-11.25h0a25.21,25.21,0,0,0-12.58-10.82h0A25.1,25.1,0,0,1,6.31,93.18h0A25.13,25.13,0,0,0,3.59,76.83h0a25,25,0,0,1,5.8-31.15h0a24.87,24.87,0,0,0,8.42-14.23h0a24.85,24.85,0,0,1,24.46-20h0A24.85,24.85,0,0,0,57.88,6h0a25,25,0,0,1,31.68.44h0a25,25,0,0,0,15.5,5.87h0A25.12,25.12,0,0,1,129.13,33h0a25.06,25.06,0,0,0,8.14,14.46h0a25.06,25.06,0,0,1,5.19,31.3h0a24.94,24.94,0,0,0-3,16.27h0A24.9,24.9,0,0,1,123.33,122.24Z"/></g><g id="Calque_3" data-name="Calque 3"><path d="M97,4.14l.22-.22-.91-.87-.19.2Z"/><path d="M105,107.74c.68-.89,1.39-1.82,2.12-2.73,1.25-1.57,2.53-3.12,3.77-4.7.42-.53.74-1.13,1.13-1.68a14.28,14.28,0,0,1,1-1.39,7.45,7.45,0,0,0,1.88-3.61,3.57,3.57,0,0,1,.31-.7c.24-.6.47-1.21.72-1.81.18-.43.39-.85.58-1.29a33.5,33.5,0,0,0,1.36-3.29c.51-1.66.83-3.38,1.3-5.05a14.63,14.63,0,0,1,.84-2l1-2.18c.55-1.25,1.14-2.48,1.62-3.75a17.25,17.25,0,0,0,.3-1.93,17.19,17.19,0,0,1,.73-2.31c.36-.92.81-1.82,1.21-2.73a.53.53,0,0,0,0-.35,4.06,4.06,0,0,1,.49-3.13c.41-.9.66-1.87,1-2.81.05-.13.07-.31.17-.38a6.23,6.23,0,0,1,.71-.41,2.9,2.9,0,0,1,0,.73c-.46,1.51-1.29,2.91-1.45,4.52a8.39,8.39,0,0,1-.24,1.81c-.31,1-.75,1.92-1.14,2.87a2.67,2.67,0,0,0-.13.4A27.67,27.67,0,0,1,122,76.54a39.22,39.22,0,0,0-1.55,4c-.22.59-.49,1.17-.66,1.78-.57,2-1.06,3.94-1.65,5.89a24.23,24.23,0,0,1-1.05,2.4c-.2.43-.4.86-.59,1.29s-.36.93-.57,1.37A8.88,8.88,0,0,0,115,95.9a3.38,3.38,0,0,1-.84,1.52c-.69.81-1.56,1.48-2.21,2.32-1.55,2-3,4.15-4.54,6.19-.61.81-1.36,1.52-2,2.31-.25.32-.37.76-.59,1.11s-.39.72-.63.76c-1.62.22-3.25.34-4.48-1.06a1.63,1.63,0,0,1-.39-1c0-2.25,0-4.5,0-6.76,0-1.87-.14-3.74-.14-5.62,0-1.33.14-2.67.21-4a7,7,0,0,1,.06-2,29.41,29.41,0,0,0,.73-3.25c.23-1.12.44-2.23.66-3.35.28-1.46.58-2.92.86-4.39a6.36,6.36,0,0,0,0-1l-.52.36L101,78c.13-.25.2-.58.4-.74,1.18-1,1.3-2.41,1.7-3.73.34-1.13.67-2.28,1-3.43s.52-2.11.78-3.16a3.56,3.56,0,0,1,.1-.47c.5-1.47,1-2.92,1.5-4.4A19,19,0,0,0,107,60a3.53,3.53,0,0,1,.66-1.93,3.28,3.28,0,0,0,.47-1.15c.36-1.08.67-2.17,1.06-3.23.08-.21.4-.32.58-.5s.39-.36.37-.5a7.69,7.69,0,0,1,.72-4.3c.42-1,.66-2,1-3a18.47,18.47,0,0,1,1-2.18c.09-.19.42-.25.63-.38.08.28.27.6.2.84-.15.49-.5.92-.64,1.41-.39,1.31-.69,2.65-1.06,4-.22.78-.51,1.54-.76,2.31-.31,1-.62,1.93-.92,2.89a1.12,1.12,0,0,0-.06.48c.29,2.11-.8,3.89-1.39,5.79-.25.81-.44,1.65-.65,2.47-.12.44-.21.88-.36,1.31-.81,2.39-1.66,4.77-2.43,7.17-.69,2.13-1.65,4.19-1.85,6.46a.92.92,0,0,1-.2.41c-.17.28-.46.52-.54.82-.33,1.29-.61,2.59-.91,3.89-.1.43-.21.85-.3,1.28-.47,2.13-.86,4.29-1.41,6.4a19.92,19.92,0,0,0-.18,5.11c0,2,.13,3.94.21,5.92a1.12,1.12,0,0,1,0,.41,5.85,5.85,0,0,0,0,2.79,7.85,7.85,0,0,1,0,1.19c0,.69.27.84,1,.84a13.64,13.64,0,0,1,2.09.36,8.27,8.27,0,0,1,.87.11A7.27,7.27,0,0,1,105,107.74Zm-2,1.87a2.87,2.87,0,0,0,.47,0c.24-.1.47-.23.7-.34a3.63,3.63,0,0,0-.41-.72c-.6-.67-1.48-.63-2.26-.76-.25,0-.59.36-.88.56.27.27.53.53.81.79,0,0,.12,0,.17,0l.79.26Z"/><path d="M25.11,88.58a1.58,1.58,0,0,1,.83-1.53c1-.68,2-1.41,2.95-2.12a.46.46,0,0,1,.32-.12c1.06.15,1.63-.56,2.27-1.2a1.53,1.53,0,0,1,.82-.25c.48-.08,1-.1,1.45-.18,1.38-.23,2.64-1.08,4.12-.79.87.17,1.75.31,2.63.48a.37.37,0,0,1,.23.23,10.49,10.49,0,0,1,.68,3.38.9.9,0,0,1-.67.93c-1.29.41-2.62.71-3.88,1.18a25.32,25.32,0,0,0-2.36,1.24,4.69,4.69,0,0,1-.86.19c-.23,0-.54.06-.68.21a5.63,5.63,0,0,0-1.7,3.6c0,.45-.2.9-.2,1.35,0,1.06.05,2.11.11,3.17,0,.16.16.31.23.47.24.5.46,1,.69,1.51a1.68,1.68,0,0,0,.27.45c.52.52,1,1,1.6,1.51a2.42,2.42,0,0,0,1.11.66,14.54,14.54,0,0,0,3,.1c.41,0,.78-.44,1.17-.67.58-.35,1.18-.67,1.74-1.06a1.35,1.35,0,0,0,.58-.72c.22-1,1.22-1,1.8-1.52.06,0,.27,0,.39.06.81.37,1.63.75,2.44,1.14,1.06.5,1.24.76.91,1.86a23.61,23.61,0,0,1-1.18,3c-.14.32-.5.53-.76.78s-.61.57-1,.91l-.45-.69-1.2.76c-.78.48-1.55,1-2.34,1.44a2.19,2.19,0,0,1-.77.2,10,10,0,0,1-1.52.24,4.84,4.84,0,0,1-1.57-.12c-1.49-.46-3-1-4.4-1.52a5.7,5.7,0,0,1-1.64-1.06,14.07,14.07,0,0,1-3.49-4.49,18.7,18.7,0,0,1-1.11-3.74,13.57,13.57,0,0,1-.16-4.75,18.93,18.93,0,0,1,1.23-3.85,13.54,13.54,0,0,1,.65-1.46c.17-.35.39-.68.59-1a2.24,2.24,0,0,0,.29-.69c-1.36.45-2.14,1.6-3.14,2.48Zm6.26,13.21-.1.13c-.19-.11-.45-.18-.56-.34A5.77,5.77,0,0,1,29.94,97c.24-1.15.44-2.31.62-3.47a5.81,5.81,0,0,1,1.51-3.36,14.22,14.22,0,0,1,2.23-1.58,4.42,4.42,0,0,1,2.82-.83,1.36,1.36,0,0,0,.59-.1c.68-.22,1.35-.47,2-.7.84-.29.94-.62.67-1.45A7.15,7.15,0,0,1,40.25,84c0-.26.06-.62-.08-.76s-.5-.07-.76-.07c-.51,0-1,0-1.51,0a7.63,7.63,0,0,0-1.65,0c-1.26.29-2.5.65-3.72,1.06a8.18,8.18,0,0,0-4.69,4.21,11.57,11.57,0,0,0-1.55,4.68c0,.56-.13,1.11-.15,1.67-.12,2.69-.06,5.35,1.74,7.61A13,13,0,0,0,29.16,104a31.17,31.17,0,0,0,3.13,2.5,6.63,6.63,0,0,0,2.37,1.05,13.12,13.12,0,0,0,2.73,0,2.2,2.2,0,0,1,.36,0l0,.11-1,.32c.85.45,1.58.1,2.38-.08l-.22-.56c.67-.25,1.31-.48,1.93-.73.86-.34,1.71-.68,2.55-1a3.73,3.73,0,0,0,2.12-2c.25-.63.52-1.25.8-1.87.15-.33.06-.6-.27-.65-1-.16-1.92-.27-2.88-.36a.8.8,0,0,0-.54.21c-.4.32-.76.71-1.16,1s-1,.67-1.45,1c-.12.09-.32.2-.32.29,0,.51-.34.45-.66.47-1,.06-2.07.1-3.1.21a3,3,0,0,1-2.51-.89c-.78-.79-1.45-1.68-2.18-2.53a2.71,2.71,0,0,0-.25-.19l-.17.1Z"/><path d="M122,37.5a5.9,5.9,0,0,1-.5-.73,13.29,13.29,0,0,0-2.78-4.27,2.53,2.53,0,0,1-.48-.68,4.39,4.39,0,0,0-1.72-1.67c-.38-.24-.55-.79-.89-1.14-1.34-1.39-2.73-2.74-4.06-4.13-.52-.53-1.23-.84-1.61-1.56a3.68,3.68,0,0,0-1.2-1.15c-1.34-.89-2.7-1.77-4.09-2.57-1.89-1.08-3.8-2.1-5.73-3.11a14.85,14.85,0,0,0-1.9-.71c-1.72-.6-3.47-1.15-5.18-1.82a19.19,19.19,0,0,0-4.41-1c-1.16-.15-2.33-.27-3.49-.44a28.91,28.91,0,0,0-6-.4,56.67,56.67,0,0,0-5.7.53c-1.71.29-3.38.87-5.06,1.33a1.06,1.06,0,0,0-.37.18,1.66,1.66,0,0,0-.79,1.57,1.75,1.75,0,0,0,1.49.93,1.13,1.13,0,0,1,.5.11,1.15,1.15,0,0,1-1.22.2,1.79,1.79,0,0,1-1.16-2.84c.24-.46.44-.94.68-1.4a.7.7,0,0,1,.34-.34c.09,0,.3.13.35.25.17.41.43.43.81.32,1.09-.32,2.18-.61,3.27-.9a5.49,5.49,0,0,1,1-.16q3.19-.23,6.38-.41a22.34,22.34,0,0,1,5.77.37c.84.17,1.71.12,2.56.21s1.77.25,2.66.36,1.75.15,2.61.31a19.58,19.58,0,0,1,2.11.62c1.21.38,2.44.74,3.63,1.17,1.49.54,3,1.15,4.45,1.73a17.46,17.46,0,0,1,1.72.74A12.07,12.07,0,0,1,105.81,18c1.69,1.28,3.34,2.59,5,3.88a12.82,12.82,0,0,0,1.4.9,2.5,2.5,0,0,1,1.07,1.7,2,2,0,0,0,.32.75c1,1.14,2.14,2.26,3.2,3.39.36.38.68.79,1,1.18a23.85,23.85,0,0,0,1.67,1.95,7.89,7.89,0,0,1,1.68,3.05c.27.69.58,1.35.87,2a5.34,5.34,0,0,1,.16.53ZM105.18,18.58c.61.36.94,1.22,1.94,1.1C106.71,18.8,105.86,18.84,105.18,18.58Zm4.52,2.76c-.56-.28-.78-.94-1.51-.78C108.64,21.31,109.09,21.58,109.7,21.34Z"/><path d="M36.18,37.53l-.92.45a1.16,1.16,0,0,0,1.44,0c.95-.65,1.71-.37,2,.73.12.38.25.75.41,1.23-.55,0-.74-.25-.75-.68a1,1,0,0,0-1.24-.92c-.82.19-1.66.24-2.46.48a14,14,0,0,0-2,.88A10.78,10.78,0,0,0,29.81,42c-.37.35-1,.51-1.25.9a15.67,15.67,0,0,0-1.14,2.19c-.19.4-.36.82-.51,1.24a9.92,9.92,0,0,0-.68,2.08,15.11,15.11,0,0,0,.27,5.28c.21.89.65,1.72.87,2.61A6.72,6.72,0,0,0,30,59.8,37.78,37.78,0,0,0,37,64,3.33,3.33,0,0,0,40,64.2a12.11,12.11,0,0,1,1.92-.4,10.7,10.7,0,0,0,5.32-2.93c.57-.57,1.14-1.12,1.69-1.7.3-.31.21-.49-.14-.79a17.76,17.76,0,0,1-1.6-1.75A.72.72,0,0,0,46,56.55a10.24,10.24,0,0,1-4.69,2.71,5.3,5.3,0,0,1-4.24-.17c-.79-.41-1.52-.94-2.32-1.33A4.06,4.06,0,0,1,32.91,56c-.32-.61-.9-1.07-1.22-1.68a7.19,7.19,0,0,1-.48-4.22,9.19,9.19,0,0,1,.6-2.66A22,22,0,0,1,33.27,45,10.38,10.38,0,0,1,36,41.86c.17-.13.37-.31.55-.31a3.91,3.91,0,0,0,2.64-1.27A.68.68,0,0,1,39,41.36a12.51,12.51,0,0,1-1.63,1.09,13.82,13.82,0,0,0-3.3,2.84,5.34,5.34,0,0,0-.91,1.85c-.13.34-.19.67-.57.84a.94.94,0,0,0-.53.93c0,1.23,0,2.46-.08,3.7a.07.07,0,0,0,0,0c.79,1.5,1.26,3.22,2.86,4.16.91.53,1.82,1.06,2.75,1.56a4.16,4.16,0,0,0,3.64.19c.42-.17.91-.2,1.31-.4a8,8,0,0,0,3.23-2.37c.49-.69.61-.66,1.24-.12s1.57,1.28,2.26,2a1.74,1.74,0,0,1,.36,1.8c-.23.59-.41,1.34-1.31,1.36-.14,0-.32.17-.42.31A6.84,6.84,0,0,1,45,63.22c-1.52.72-3.19,1-4.73,1.61-1.91.75-3.36-.07-4.88-.9-.31-.18-.63-.35-.95-.51l-4.24-2.29a1.45,1.45,0,0,1-.41-.33c-.75-.83-1.53-1.64-2.21-2.52a12.89,12.89,0,0,1-1-1.85,13.15,13.15,0,0,1-.77-1.49,5.36,5.36,0,0,1-.18-1.22c-.15-1.25-.28-2.5-.43-3.74a4.51,4.51,0,0,1,.57-2.36c.42-1,.84-2,1.25-3,.27-.63.51-1.28.8-1.91a.94.94,0,0,1,.44-.46,8,8,0,0,0,2.53-2.15,7.64,7.64,0,0,1,2.91-1.91,4,4,0,0,0,1.24-.7C35.36,37.24,35.64,37.14,36.18,37.53Z"/><path d="M132.78,71c-.06-.91-.09-1.82-.19-2.73a5.8,5.8,0,0,1,.06-3,.31.31,0,0,0,0-.23c-.26-.65-.53-1.28-.77-1.93-.05-.14,0-.32.09-.48a1.35,1.35,0,0,0,0-.6,4.41,4.41,0,0,1,1.48-.42,5.52,5.52,0,0,1,1.74.59,2,2,0,0,1,1.27,1.73.65.65,0,0,0,.11.34,4.61,4.61,0,0,1,.4,2.68c0,1.68-.14,3.37-.19,5.06,0,.93.07,1.87,0,2.8a7.36,7.36,0,0,1-.84,3.19c-.21.34-.1.87-.28,1.26-.5,1.09-1.07,2.14-1.61,3.21-.35.7-.64,1.41-1,2.09a1.7,1.7,0,0,1-1.59,1.07c-.44,0-.88.24-1.32.25s-1.57-1.14-1.51-1.66a.94.94,0,0,1,.29-.44,2.21,2.21,0,0,0,.71-1.46,1.38,1.38,0,0,1,.27-.64,10.36,10.36,0,0,1,.7-1,1.46,1.46,0,0,1,.42-.25c0,.16.09.32.12.48a.29.29,0,0,1-.06.17c-.38.89-.75,1.8-1.17,2.67-.15.31-.32.55,0,.84a.9.9,0,0,0,1.1.2,2.35,2.35,0,0,0,.67-.5,7.7,7.7,0,0,0,1.27-1.42,28,28,0,0,0,1.24-2.8c.16-.37.25-.76.41-1.12a18.54,18.54,0,0,0,.5-2.37,26.81,26.81,0,0,0,.45-2.9,24.41,24.41,0,0,0,.47-7.42,13.6,13.6,0,0,0-.79-2.68,2.7,2.7,0,0,0-1.06-1.09,1,1,0,0,0-.88,0,.74.74,0,0,0-.27.68c.11.54.36,1,.52,1.57a5.88,5.88,0,0,1,.36,1.46c0,1.77,0,3.54-.08,5.31-.05,1-.29,2-.38,3a14.29,14.29,0,0,1-1.12,3.74c-.2.5-.34,1-.54,1.52,0,.14-.21.23-.33.35-.11-.13-.27-.25-.32-.4a1.3,1.3,0,0,1,0-.59c.15-.82.31-1.64.49-2.45a15.35,15.35,0,0,0,.63-4.53c0-.36.31-.74.47-1.11Z"/><path d="M56.27,43.67a6.15,6.15,0,0,1,3.35,1.06,5.07,5.07,0,0,1,1.55,1.1,11.16,11.16,0,0,1,1.12,1.68,1.19,1.19,0,0,1,0,1.41,1.34,1.34,0,0,1-.54.32c-.35.14-.75.2-1.08.37-1.19.6-2.35,1.26-3.54,1.85-.42.21-.37.5-.37.84,0,1,0,1,1,1.15a5.45,5.45,0,0,1,.58.14.77.77,0,0,0,.88-.41,6.91,6.91,0,0,1,1.46-1.59,2,2,0,0,1,2.91,1.17c.38,1.33-.21,2.38-.74,3.46a2.48,2.48,0,0,1-1,.82,9.65,9.65,0,0,1-4.46,1.36,3.13,3.13,0,0,1-1.2-.27,23.59,23.59,0,0,1-2.68-1.29A4.7,4.7,0,0,1,51.15,54c0-.14,0-.32-.13-.39-1-.75-.91-1.91-.91-2.91a8.09,8.09,0,0,1,2.69-6.15c.86-.79,2-.73,3.11-.86A2.16,2.16,0,0,1,56.27,43.67Zm-5.54,7.19.2,0a3,3,0,0,0,.58,2.39,7.12,7.12,0,0,1,.59,1.17,3.49,3.49,0,0,0,1.73,1.91c.71.33,1.45.6,2.15.95a3.74,3.74,0,0,0,3.4,0c.47-.22,1-.38,1.43-.61a4.2,4.2,0,0,0,2-2.77,1.82,1.82,0,0,0,0-.66,1.15,1.15,0,0,0-1.5-1.09c-.32.13-.55.49-.81.75-.73.73-1.21,1.93-2.62,1.37a1.12,1.12,0,0,0-.41,0c-1.22,0-1.47-.29-1.82-2.14-.11-.61.24-1,1.14-1.36a11.78,11.78,0,0,0,1.34-.47c.88-.44,1.72-1,2.62-1.4s.81-.48.58-1.34c-.51-2-3.75-3.27-5.53-3.25-2.15,0-3.3,1.36-4.17,2.9A13.53,13.53,0,0,0,50.73,50.86Z"/><path d="M52.75,96.75c1,.25,1.82.79,2.79.59a.85.85,0,0,0,.5-.47A3.82,3.82,0,0,1,58,95a1.58,1.58,0,0,1,2,.33,2.44,2.44,0,0,1,.36,2.79,4.41,4.41,0,0,1-2,2c-.45.27-.84.67-1.3.92a6.09,6.09,0,0,1-6,.29,5.7,5.7,0,0,1-2-1.54,15.59,15.59,0,0,1-.77-1.59c-.91-1.45-.72-3-.59-4.6a6,6,0,0,1,.73-1.89c.57-1.21,1.14-2.45,2.6-2.86a11.84,11.84,0,0,1,2.23-.59c1.77-.15,2.8,1,3.7,2.31.29.43.51.91.78,1.35.52.82.3,1.32-.6,1.71A11.25,11.25,0,0,0,52.75,96.75Zm-4.48-1.39a6.33,6.33,0,0,0,1.21,3.83,3.51,3.51,0,0,0,3.12,1.94,9.26,9.26,0,0,0,3.18-.22,14.73,14.73,0,0,0,3.48-2.26,2,2,0,0,0,.54-2.54,1.07,1.07,0,0,0-1.62-.39c-.56.48-1.06,1-1.6,1.56-.36.33-.75.87-1.13.88a6.69,6.69,0,0,1-3.47-1,.61.61,0,0,1-.08-1c.38-.32.91-.48,1.27-.81a16.62,16.62,0,0,1,3.64-2.23c.48-.25.55-.56.23-1A5.36,5.36,0,0,1,56.33,91a3.29,3.29,0,0,0-1.75-1.71c-1.18-.56-2.3,0-3.38.42a2.3,2.3,0,0,0-1.16.8A7.62,7.62,0,0,0,48.27,95.36Z"/><path d="M66,95.62l2.27-1.24c.91-.49,1-.68.43-1.57-.74-1.23-1.45-2.48-2.17-3.72-1.35-2.35-2.65-4.73-4.06-7-.83-1.36-1.86-2.59-2.75-3.91a5,5,0,0,1-1.16-2.44,6,6,0,0,0-.65-1.77c-.18-.43-.47-.25-.79-.11-.88.39-1.78.78-2.69,1.1-.38.13-.71,0-.69-.53A9,9,0,0,0,55.24,74,14,14,0,0,0,57,73c.35-.23.61-.23.85.13.51.74,1.07,1.45,1.54,2.21.79,1.26,1.56,2.55,2.27,3.86.41.74.64,1.59,1.06,2.33,1.26,2.19,2.58,4.35,3.86,6.53.76,1.29,1.49,2.6,2.24,3.89.27.47.56.92.83,1.39.46.77.33,1.08-.45,1.5s-1.68,1-2.52,1.49c-.37.22-.31.53-.2.89a1.71,1.71,0,0,1,0,.67c-.2-.16-.5-.27-.58-.48a37.57,37.57,0,0,0-2.26-4.7c-.55-.92-1.15-1.81-1.67-2.75s-.78-1.65-1.21-2.45c-.61-1.12-1.27-2.2-1.9-3.31s-1.11-2-1.68-2.94a24,24,0,0,0-1.38-2.21c-.62-.84-1.36-1.6-2-2.43a3.49,3.49,0,0,1-.37-1l.19-.11c.12.08.28.14.35.25,1,1.51,2.13,3,3.06,4.56,1.69,2.87,3.27,5.81,4.92,8.7.85,1.48,1.76,2.93,2.65,4.4l1.14,1.89A2.21,2.21,0,0,0,66,95.62Z"/><path d="M64.61,43.52A12.9,12.9,0,0,1,65,42a7.58,7.58,0,0,1,1.81-3.32,5.92,5.92,0,0,1,3-1.43,9.57,9.57,0,0,1,2.55.16c.43,0,.88.78.91,1.35a1.74,1.74,0,0,1-1.77,2.07,2.47,2.47,0,0,0-2.16,2.28,1,1,0,0,1,0,.35c-.51,1,.18,1.72.72,2.4a1.5,1.5,0,0,0,2.31.1,13.83,13.83,0,0,1,1.52-1.12,1,1,0,0,1,.68-.14A3.58,3.58,0,0,1,76.91,46a1.53,1.53,0,0,1-.23,2,8.38,8.38,0,0,1-2.58,2c-1.81.75-3.94,1.07-5.61-.42a11.63,11.63,0,0,1-2.65-3.19.69.69,0,0,0-.13-.2A3.54,3.54,0,0,1,64.61,43.52ZM72.4,39c0-1.09-.46-1.41-1.48-1a2,2,0,0,1-.73.21,3.77,3.77,0,0,0-3.66,2.23c-.27.51-.38,1.11-.69,1.58a2.65,2.65,0,0,0-.14,2.46,11.17,11.17,0,0,0,2.67,4.34,4.61,4.61,0,0,0,5,1c1.46-.55,2.18-1.78,2.93-3a.82.82,0,0,0-.19-.76,1.84,1.84,0,0,0-2.72.1,2.82,2.82,0,0,1-4.54-.76,3.71,3.71,0,0,1,2.61-5.36C72.29,39.94,72.38,39.81,72.4,39Z"/><path d="M72.33,84.33a1.4,1.4,0,0,0,.39-.2,2,2,0,0,1,1.76-.71,2.67,2.67,0,0,1,.49.18c-.15.14-.29.4-.44.41a2.28,2.28,0,0,0-1.63.9,2.69,2.69,0,0,0-.54,2.52,3.86,3.86,0,0,0,1.42,2.15,1.32,1.32,0,0,0,.91.22c.45-.06.87-.32,1.31-.37,1.58-.19,2.39-1.39,3.33-2.43.09-.1.21-.25.19-.36-.15-1.11.35-2.29-.31-3.35l-.12-.19c-.33.32-.44.14-.63-.19a10.32,10.32,0,0,0-1.1-1.52,7.36,7.36,0,0,0-1.22-1.15c-.76-.56-1.56-1-2.35-1.57-.06,0-.11-.08-.24-.17.15,0,.24-.07.29,0,.9.35,1.92.44,2.58,1.28a.75.75,0,0,0,.25.25,4.42,4.42,0,0,0,.52.14,3.91,3.91,0,0,0,0-.48,1.22,1.22,0,0,0-.09-.29c.13.05.22.05.26.1.73.94,1.42,1.91,2.18,2.82A4.36,4.36,0,0,1,80.65,85c0,.49.51,1,.87,1.57a2.47,2.47,0,0,1-.81,0c-.35-.11-.47,0-.66.28a7.36,7.36,0,0,1-3.28,3,10.44,10.44,0,0,1-1.12.54c-1.6.44-2.76-.18-3.71-1.75a3.3,3.3,0,0,1-.09-3.35c.19-.39,0-.51-.32-.65-.77-.29-1.54-.61-2.29-1a1,1,0,0,1-.37-1.32,7.07,7.07,0,0,1,2.47-3.09A2.76,2.76,0,0,1,73.79,79c-.64.2-1.15.35-1.64.53a1,1,0,0,0-.45.27c-.58.69-1.15,1.4-1.72,2.1s-.62,1.1.16,1.72,1.23.55,1.65-.34.94-1.58,2-1.56a1.37,1.37,0,0,1,1.3,1.4,4.28,4.28,0,0,1-.44-.61c-.21-.44-.49-.52-1-.34A2.47,2.47,0,0,0,72.25,84C72.22,84,72.29,84.16,72.33,84.33Z"/><path d="M111.19,87.69c-.3,1.09-.56,2.19-.91,3.26-.43,1.28-.93,2.55-1.43,3.81-.6,1.51-1.24,3-1.83,4.54-.36.9-.65,1.84-1,2.74-.58,1.44-1.19,2.87-1.81,4.29-.07.16-.28.39-.4.37a.65.65,0,0,1-.46-.37,1.92,1.92,0,0,1,0-.86q.7-2.86,1.43-5.72c.18-.72.36-1.43.55-2.14.36-1.42.72-2.84,1.09-4.26.08-.28.24-.54.33-.81.26-.77.53-1.54.75-2.31.31-1.13.58-2.27.87-3.4a.53.53,0,0,1,.72-.43l1.22.29A1.06,1.06,0,0,1,111.19,87.69ZM105,102.11l.21.08c.11-.22.25-.43.34-.66.5-1.24,1-2.49,1.46-3.73s.9-2.18,1.3-3.28c.52-1.44,1-2.89,1.49-4.34a18,18,0,0,0,.56-2.19.72.72,0,0,0-.3-.62,1,1,0,0,0-.77.08,1,1,0,0,0-.42.56c-.15.45-.22.92-.35,1.38l-2.37,8.33c-.22.76-.47,1.51-.67,2.28S105.15,101.41,105,102.11Z"/><path d="M18.78,59.6a1,1,0,0,0-.51,1.06A1.15,1.15,0,0,1,18,61.87a1.61,1.61,0,0,1-.09-.54,13.29,13.29,0,0,1,.58-3,8.23,8.23,0,0,0,.71-2.92,8.51,8.51,0,0,1,1-3.15c.69-1.64,1.33-3.31,2-5a2.32,2.32,0,0,1,.24-.53,4.08,4.08,0,0,0,.82-2.08A7.15,7.15,0,0,1,24.54,41a.27.27,0,0,0,.06-.1c.32-1.64,1.66-2.59,2.59-3.81.34-.44.68-.88,1-1.31.05-.07.15-.09.36,0-.3.5-.57,1-.88,1.49A29.54,29.54,0,0,1,26,39.84a10.15,10.15,0,0,0-1,2.47c-.74,1.67-1.55,3.31-2.31,5-.12.28-.15.62-.25.91-.18.52-.43,1-.59,1.55-.23.79-.43,1.59-.63,2.4s-.3,1.34-.42,1.89c-.44.13-.76.23-1.08.35,0,0,0,.27.09.29a3.87,3.87,0,0,0,.67.14c-.14.94-.3,2-.45,3s-.22,1.85-.37,2.77-.36,1.77-.52,2.66c-.05.31,0,.64,0,1,0,.14-.17.27-.26.41-.12-.14-.35-.28-.34-.41,0-.85.13-1.69.23-2.54.07-.66.18-1.32.27-2ZM19,58.46l.27,0,.24-1.57-.28,0Z"/><path d="M131.24,106.14a9.54,9.54,0,0,1-.72,4.26,50.12,50.12,0,0,1-2,5.25,10.36,10.36,0,0,1-2,2.4,1.8,1.8,0,0,1-.92.35c-.44.11-.9.15-1.35.25a2.52,2.52,0,0,1-2.51-1c-.1-.15-.18-.31-.29-.46a2.08,2.08,0,0,1,.11-3,28.4,28.4,0,0,0,4.56-7c.49-1.1.82-2.28,1.27-3.4a1.65,1.65,0,0,1,2.2-1,2.66,2.66,0,0,1,1.65,2.18C131.26,105.34,131.24,105.74,131.24,106.14Zm-7.07,12c1.77.2,2.89-.88,3.62-2.36s1.19-2.91,1.76-4.37a12.26,12.26,0,0,0,.71-2.09,14.75,14.75,0,0,0,.21-4.15,2.07,2.07,0,0,0-.89-1.59.94.94,0,0,0-1.54.71,5.34,5.34,0,0,1-.32,1.25,18.23,18.23,0,0,1-.82,1.73,36.87,36.87,0,0,1-1.93,3.69,26.79,26.79,0,0,1-2.55,3c-1.12,1.23-1.16,2.17-.1,3.42A1.83,1.83,0,0,0,124.17,118.12Z"/><path d="M20.72,95.58a1.56,1.56,0,0,1-1-1.39c-.12-1.55-.24-3.1-.37-4.64a.83.83,0,0,0-.12-.46c-.9-.84-.82-2-1.09-3.08a27.93,27.93,0,0,1-.65-3.15c-.33-2.35-.7-4.7-.85-7.06a26.22,26.22,0,0,1,.41-3.9,5.33,5.33,0,0,0-.1-1.18A4.61,4.61,0,0,1,17.05,68a2.67,2.67,0,0,0,.07-1l.23,0,.09.68c0,.34.09.67.14,1a2.07,2.07,0,0,1,.07.41c-.11,1.3-.33,2.6-.33,3.9,0,1.71.18,3.42.29,5.12,0,.07.08.13.12.19h.18V74.64h.22c0,.8.07,1.61.12,2.41.08,1.21.17,2.42.25,3.62a6,6,0,0,1,0,.84A1.27,1.27,0,0,0,19,82.73c.18.16.1.64.08,1s-.15.93-.15,1.39c0,.22.19.45.28.68a3.71,3.71,0,0,1,.24.71c.18,1.14.33,2.29.5,3.43Q20.32,92.75,20.72,95.58Z"/><path d="M81.22,38a2.33,2.33,0,0,1-.43-.46c-.49-1-1-2-1.4-3-.22-.53.46-1.43,1.2-1.74,1.18-.49,1.7-.35,2.47,1s1.33,2.59,2,3.88c.32.63.59,1.27,1,1.86a7.63,7.63,0,0,1,1.08,2.64,1.86,1.86,0,0,0,.63.89c.47.4.54.68,0,1a8.77,8.77,0,0,1-1.81.91c-.5.18-.81.35-.73.95,0,.14-.21.31-.32.47-.12-.13-.29-.23-.36-.39-.63-1.36-.79-2.88-1.7-4.17a10,10,0,0,1-1.12-3.2c.22.4.44.78.65,1.18.38.74.72,1.51,1.14,2.23.18.31.54.52.78.8a1.77,1.77,0,0,1,.45.73c.12.71.56,1,1.24.72l.21-.11c1-.51,1-.71.43-1.63a3.13,3.13,0,0,1-.5-1,12.83,12.83,0,0,0-1.6-3.26,13.77,13.77,0,0,1-1-2.33A5.44,5.44,0,0,0,81.7,33.5c-.41-.37-.83-.09-1.19.17a.86.86,0,0,0-.25,1.08c.35,1.06.68,2.14,1,3.21Z"/><path d="M16.7,94.66a4.45,4.45,0,0,1-.53-1.16,19.9,19.9,0,0,0-1.29-4.21c-.63-1.8-1-3.68-1.65-5.48a19.11,19.11,0,0,1-.66-6.2c0-.79,0-1.58,0-2.37a2.07,2.07,0,0,1,.16-.46l.41,3.06.31,0V74.35l.27,0a3.9,3.9,0,0,1,.13.57c.06.64.13,1.27.15,1.91,0,.43-.06.86-.09,1.29a4,4,0,0,0-.06.47,7.31,7.31,0,0,1-.29,3.18,2.08,2.08,0,0,0,.05,1.18c.24,1,.53,2.07.83,3.09,0,.13.2.23.3.34.05-.16.17-.33.14-.47-.09-.53-.27-1-.35-1.58a1.72,1.72,0,0,1,.18-.66l.16,0L16.82,94.6Z"/><path d="M91.73,109.48c-1.59.25-3.17.57-4.76.74q-3,.33-6.08.44a7.49,7.49,0,0,1-2.28-.4,1,1,0,0,1-.56-.7c0-.39.16-1,.42-1.13a8,8,0,0,1,2.6-.73c1.85-.14,3.71-.13,5.56-.13a14.17,14.17,0,0,1,5,.68,15,15,0,0,0,1.65.3,3,3,0,0,1,.69.35c-.22.2-.42.5-.67.57a11.34,11.34,0,0,1-1.54.17Zm.2-.63-.29-.11a18.73,18.73,0,0,0-5.87-.57c-1.35,0-2.71.06-4.06.11a5.21,5.21,0,0,0-2.67.47c-.17.11-.41.35-.37.46a.89.89,0,0,0,.46.54,4.89,4.89,0,0,0,1.45.31,27.08,27.08,0,0,0,3-.06c1.82-.16,3.63-.43,5.46-.53A6.45,6.45,0,0,0,91.93,108.85Z"/><path d="M92.9,79.58c-.1.65-.22,1.44-.37,2.22a.79.79,0,0,1-.26.45A4.75,4.75,0,0,1,90,83.42a2.5,2.5,0,0,1-2.45-1,2.79,2.79,0,0,1-.42-2.77,2,2,0,0,1,1.47-1.42c.7-.16,1.4-.29,2.09-.47a.73.73,0,0,0,.47-.34c.18-.53.5-.45.75-.15A3.6,3.6,0,0,1,92.9,79.58Zm-1.08.7c0-1-.27-1.69-.76-1.66a5.25,5.25,0,0,0-2.29.48,1.85,1.85,0,0,0,.3,3.37,2.14,2.14,0,0,0,2.36-.67A7.07,7.07,0,0,0,91.82,80.28Z"/><path d="M74.81,129.76c-.22.11-.4.29-.57.29-2.38,0-4.75-.06-7.12-.15a31.56,31.56,0,0,1-3.9-.33,3.2,3.2,0,0,1-2-.7,1,1,0,0,0-.61-.2,9.07,9.07,0,0,1-3.21-1c-.32-.14-.69-.2-1-.37a2.61,2.61,0,0,1-.49-.59,2.55,2.55,0,0,1,.72,0c.73.18,1.44.41,2.15.61.08,0,.21,0,.23.06.27.67,1,.4,1.46.75.08.07.23,0,.34.07a7.56,7.56,0,0,1,1.52.41,1.87,1.87,0,0,0,1.49.17,1.51,1.51,0,0,1,1.41.13,1.23,1.23,0,0,0,.62.1c.67,0,1.38-.19,1.94.4,0,0,.4-.07.52-.2.47-.49.89-.45,1.52-.23s1.33,1,2.2.48C72.89,129.82,73.82,129.13,74.81,129.76Z"/><path d="M18.72,46.55a4.26,4.26,0,0,1-.13.64c-.29.91-.63,1.81-.9,2.72a4.35,4.35,0,0,0-.06,1c0,.1,0,.22,0,.29-.9,1.67-1.11,3.57-1.7,5.34a40.21,40.21,0,0,0-1.14,4.31c-.33,1.59-.55,3.21-.76,4.82-.06.49-.13.87-.78,1.05,0-.28,0-.52.09-.76.13-.61.34-1.21.41-1.82.12-1.27.14-2.56.27-3.82s.3-2.21.52-3.31a1.29,1.29,0,0,1,.56-.85,1.14,1.14,0,0,0,.6-.91c.24-.84.59-1.65.82-2.49.31-1.1.53-2.23.84-3.33A16.75,16.75,0,0,1,18,47.75c.09-.24.11-.5.19-.75s.17-.35.25-.53Z"/><path d="M92.57,125.7a5.29,5.29,0,0,1-.77.47c-1.64.61-3.2,1.47-5,1.57-.37,0-.7.35-1.07.44-1.51.34-3,.64-4.53,1-.25.06-.5.16-.75.2-.71.09-1.43.18-2.14.23-.17,0-.34-.16-.58-.28.16-.11.21-.18.25-.17,1.14.29,2-.62,3.14-.63.24,0,.46-.33.71-.41.86-.27,1.73-.53,2.61-.73,1.54-.35,3.09-.64,4.64-1,.36-.08.68-.32,1.05-.42.6-.18,1.22-.31,1.84-.44C92.09,125.49,92.24,125.6,92.57,125.7Z"/><path d="M101.31,21.24l.11.6c-.1,0-.18,0-.21,0-.71-.52-1.39-1.09-2.13-1.57A15.51,15.51,0,0,0,97,19.1c-1.18-.53-2.4-1-3.59-1.48-1-.45-2-1-3-1.45a1.25,1.25,0,0,1-.24-.16l.08-.14a11.59,11.59,0,0,1,1.17.25c.79.27,1.58.54,2.34.88,1.94.84,3.86,1.71,5.78,2.59.72.33,1.42.7,2.12,1.07q2.17,1.17,4.33,2.37c.57.32,1,1,.84,1.4,0,.16-.22.37-.36.39s-.44-.16-.45-.28c-.15-1.43-1.4-1.78-2.36-2.37A16.41,16.41,0,0,0,101.31,21.24Z"/><path d="M36.72,26.38a2.8,2.8,0,0,1-.71-.05,1.17,1.17,0,0,1-.58-.36A2,2,0,0,1,35.71,24c.61-.58,1.2-1.17,1.83-1.72A7.66,7.66,0,0,1,41,20.82a1.69,1.69,0,0,1,.93.14,1,1,0,0,1,.45,1.5,11.85,11.85,0,0,1-4.47,3.78,4.33,4.33,0,0,1-1.16.2Zm.51-.49a3.12,3.12,0,0,0,.6-.21,7.9,7.9,0,0,0,1.47-.92,25.88,25.88,0,0,0,2.22-2.34c.38-.45.12-.9-.47-.82a6.17,6.17,0,0,0-2.34.6,14.23,14.23,0,0,0-2.55,2.24A1.52,1.52,0,0,0,36,25.55c0,.13.48.21.75.29A3.05,3.05,0,0,0,37.23,25.89Z"/><path d="M96.9,106.75l-.42.62a2.76,2.76,0,0,1-.66-.55,4.78,4.78,0,0,1-.49-1.27,4.15,4.15,0,0,0-1.19-2,9.78,9.78,0,0,1-1.4-1.85,1,1,0,0,1,.07-.91,1.16,1.16,0,0,1,1-.08,3.49,3.49,0,0,1,1.83,2.23,25.17,25.17,0,0,0,1.14,3.18A4.83,4.83,0,0,1,96.9,106.75Z"/><path d="M19.62,43.25a9.68,9.68,0,0,1,2.07-4.52,2.8,2.8,0,0,0,.39-.67,13,13,0,0,1,3.9-4.9,3,3,0,0,1,3,0c.26.23.23.66,0,1.21-.37-.25-.71-.66-1.13-.76a2.13,2.13,0,0,0-2,.54,13.94,13.94,0,0,0-3.42,4.39,11.62,11.62,0,0,1-.72,1.23c-.52.94-1,1.89-1.56,2.83A5.29,5.29,0,0,1,19.62,43.25Z"/><path d="M129.6,99.67c-1.74-.13-2.23-1-1.51-2.63a6.68,6.68,0,0,1,1.37-2.15c.49-.49,1-.34,1.55-.18a1,1,0,0,1,.77,1,4.34,4.34,0,0,1-.1,2.69A2.12,2.12,0,0,1,129.6,99.67Zm1.37-3h.08c-.09-.32-.14-.66-.26-1-.19-.49-.61-.58-.9-.15-.42.62-.74,1.3-1.12,1.95A1,1,0,0,0,129,98.9a1.42,1.42,0,0,0,1.1.19,1.26,1.26,0,0,0,.89-1.16C131,97.51,131,97.09,131,96.67Z"/><path d="M72.65,15.87c.06-.1.1-.28.2-.31a8.89,8.89,0,0,1,2-.65c2.08-.19,4.17-.29,6.26-.38,1.32,0,2.63,0,4,0,.17,0,.35.17.52.26a3.77,3.77,0,0,1-.42.6c-.08.07-.27,0-.41,0a63.85,63.85,0,0,0-10.16.24Z"/><path d="M118.83,38.37A5,5,0,0,1,117.46,37c-.47-.77-.91-1.55-1.41-2.29a12.25,12.25,0,0,0-.87-.9c-.27-.32-.47-.73-.77-1-1.08-1.11-2.21-2.18-3.3-3.28s-2.26-2.34-3.39-3.51l-.85-.85L107,25a1.33,1.33,0,0,1,.34.16c.78.78,1.54,1.6,2.35,2.37,1,1,2.13,1.91,3.15,2.93A22.75,22.75,0,0,1,117,35.1c.57,1,1.3,1.94,2,2.91,0,.05,0,.14.07.21Z"/><path d="M51.17,128.55a2.81,2.81,0,0,1-1-.06,5.82,5.82,0,0,1-2.35-1.22,10.23,10.23,0,0,0-1.36-.94,7.44,7.44,0,0,1-1.91-1.68A5.36,5.36,0,0,1,44,122.1c0-.77.76-1.21,1.33-1.67a.5.5,0,0,1,.43.1.73.73,0,0,1-.07.57,6.87,6.87,0,0,1-.85.76.86.86,0,0,0-.15,1.31,11.06,11.06,0,0,0,2.52,3s0,0,.05,0a6.27,6.27,0,0,1,2.3,1.27c.53.33,1.08.62,1.63.93Z"/><path d="M79.83,28.84c0,1.09-.15,1.29-1.27,1.53a7.52,7.52,0,0,1-2.12,0,1,1,0,0,1-.62-.49,2.89,2.89,0,0,1,.57-2.33c.83-.56,1.56-.92,2.43-.31C79.33,27.61,80,28,79.83,28.84Zm-1.74,1a.65.65,0,0,0,.67-.67,1.47,1.47,0,0,0-1.11-1.3c-.51,0-1,.56-1,1.27C76.63,29.53,77.09,29.77,78.09,29.81Z"/><path d="M106.71,115.51a3.88,3.88,0,0,1,0,.48.69.69,0,0,1-1,.67,3.78,3.78,0,0,1-2.33-3.66,1.17,1.17,0,0,1,.42-.9,1.3,1.3,0,0,1,1,.11A3.37,3.37,0,0,1,106.71,115.51Zm-.7-.19a3.56,3.56,0,0,0-1.31-2.16c-.28-.24-.51,0-.54.35a2.66,2.66,0,0,0,1.38,2.07C105.67,115.62,105.87,115.41,106,115.32Z"/><path d="M98.34,115.9c-1,.33-2,1.06-3,.25a8.14,8.14,0,0,1,.43-1.18,8.54,8.54,0,0,1,1-1.41,14.14,14.14,0,0,1,1.41-1.38,2.76,2.76,0,0,1,.65-.3l.17.24c-.39.4-.79.79-1.16,1.2a10.5,10.5,0,0,0-1.18,1.41c-.14.21,0,.58,0,.87.31-.07.77,0,.91-.24A25.93,25.93,0,0,0,98.94,113c.16-.27.21-.61.38-.87s.34-.21.52-.31c0,.21.17.47.1.64-.37.85-.8,1.68-1.2,2.52C98.61,115.23,98.5,115.52,98.34,115.9Z"/><path d="M91.68,131.34c.89-.82,1.8-1.63,2.68-2.46.34-.33.63-.71,1-1a11.54,11.54,0,0,0,.93-.92,1.52,1.52,0,0,0,.36-.86c0-.13-.43-.32-.69-.38-.58-.12-1.18-.17-1.77-.28-.17,0-.45-.19-.45-.28a.81.81,0,0,1,.29-.53c.53-.41,2.65-.33,3,.21a2.22,2.22,0,0,1,.12,1.53A1.81,1.81,0,0,1,96,127.66c-.27.1-.4.51-.61.77a8.37,8.37,0,0,1-.89,1.08c-.67.61-1.38,1.19-2.08,1.77-.17.14-.36.24-.54.37Z"/><path d="M48.93,122.18c.06,1.18,1,1.45,1.66,1.92a16.14,16.14,0,0,0,4.18,1.74,1.81,1.81,0,0,1,.81.66,17.74,17.74,0,0,1-5.13-1.56,13.64,13.64,0,0,1-4.36-3.74l.11-.16a2.39,2.39,0,0,1,.52.29,6.09,6.09,0,0,1,.78.74A.86.86,0,0,0,48.93,122.18Z"/><path d="M17.1,95.45l1.09.08c.11.23.23.5.37.76s.53.74-.13,1.07c-.14.07-.14.63,0,.91.43,1.27,1.5,2.09,2.3,3.12a1.66,1.66,0,0,0,.32.23l.28-2.55h.22c.09,1,.2,2,.23,3a.77.77,0,0,1-.44.56.68.68,0,0,1-.59-.23,14.56,14.56,0,0,1-.8-1.24c-.28-.41-.49-.95-.88-1.18a2.49,2.49,0,0,1-1.16-2.09,4.72,4.72,0,0,0-.3-.87C17.41,96.54,17.26,96,17.1,95.45Z"/><path d="M74.6,86.82c.06-1.3.24-1.59,1.37-2.1a1.76,1.76,0,0,1,1.9.45,1.65,1.65,0,0,1,0,1.8q-.29.39-.6.75a1.46,1.46,0,0,1-2.21.28C74.8,87.76,74.76,87.22,74.6,86.82Zm.64,0a2.33,2.33,0,0,0,.39.77.73.73,0,0,0,.7,0,4.32,4.32,0,0,0,1-1.22.9.9,0,0,0-.23-.87,1.15,1.15,0,0,0-1-.09A1.38,1.38,0,0,0,75.24,86.86Z"/><path d="M111.09,107.15c.26.18.66.33.81.61a.85.85,0,0,1-.32,1,14.28,14.28,0,0,0-1.12,1.08.78.78,0,0,1-1.07.14c-.41-.25-.8-.55-1.32-.27a.39.39,0,0,1-.34-.13.78.78,0,0,1,.07-.5c.2-.33.44-.64.67-1,.07-.09.14-.22.24-.26C109.46,107.66,110.21,107.42,111.09,107.15Zm-2.2,1.35v.24a2.07,2.07,0,0,1,.24.17c.84.74,1.62.5,1.9-.58.09-.31,0-.53-.33-.46C110.09,108,109.5,108.29,108.89,108.5Z"/><path d="M68.4,16.76a5.29,5.29,0,0,1,3.38-.82C71.53,17,70.3,17.27,68.4,16.76Z"/><path d="M140.23,77.46c.14-.34.31-.67.43-1s.26-1,.38-1.42c0-.08,0-.18.05-.23l.65-.59a2.93,2.93,0,0,1,.11.87c0,.39-.31.75-.31,1.13,0,.86-.73,1-1.15,1.37Z"/><path d="M17.3,66.55a11.66,11.66,0,0,1,.58-4.14C18.31,63.87,17.78,65.21,17.3,66.55Z"/><path d="M120.91,39.41c1.21.35,1.33-.59,1.73-1.22a1.54,1.54,0,0,1-.52,1.87C121.63,40.29,121.29,40,120.91,39.41Z"/><path d="M94.38,80.84c-.29.52-.54,1-.82,1.46a2.29,2.29,0,0,1-.43.45c-.1-.22-.35-.54-.28-.64a8.13,8.13,0,0,1,1.07-1.2C94,80.82,94.22,80.86,94.38,80.84Z"/><path d="M85.85,14.87a8.77,8.77,0,0,1,2.85.54C88,15.83,86.06,15.45,85.85,14.87Z"/><path d="M86.89,132.74a3.14,3.14,0,0,1,2.57-.4A2.91,2.91,0,0,1,86.89,132.74Z"/><path d="M138.56,80.51a4.23,4.23,0,0,1-1.73,2.78Z"/><path d="M25.1,88.57a2.21,2.21,0,0,1-.1.69c-.33.68-.71,1.33-1.11,2.06,0-.29-.1-.63,0-.85.35-.65.8-1.26,1.2-1.88Z"/><path d="M13.42,72.32l-.58,2C12.34,73.3,12.58,72.55,13.42,72.32Z"/><path d="M63.74,133l-2.11-.31C62.42,132.25,63.49,132.4,63.74,133Z"/><path d="M72.43,133.42a2.15,2.15,0,0,1-2.28,0Z"/><path d="M85.73,133.3c-.36,0-.73.1-1.09.11-.06,0-.19-.16-.18-.23s.13-.3.21-.3a9.07,9.07,0,0,1,1,.06Z"/><path d="M100.66,37.62l-1.48.77A1.07,1.07,0,0,1,100.66,37.62Z"/><path d="M30.5,71.3,29.18,72l-.09-.17a1.64,1.64,0,0,1,1.3-.74Z"/><path d="M19,44.58c0-.31,0-.62.11-.93,0-.06.18-.1.28-.15s.15.22.13.29a6.61,6.61,0,0,1-.3.85Z"/><path d="M73.9,133.85c.29-.06.57-.13.85-.17.09,0,.19.09.29.14-.06.1-.11.27-.17.27-.32,0-.65,0-1,0Z"/><path d="M141.74,72.78l-.11-1.19.32,0,.08,1.22Z"/><path d="M113.14,71.25l-.72.41-.15-.11c.06-.19.06-.5.19-.57s.41,0,.63.07Z"/><path d="M18.44,67.44l.1-1.59h.21l-.13,1.58Z"/><path d="M102.4,22.44l.67.54-.15.21-.73-.48Z"/><path d="M47.76,104.3c.1-.39.41-.32.78-.12l-.65.34Z"/><path d="M67.85,133.18c.3-.32.54-.17.88.27l-.89-.06Z"/><path class="cls-2" d="M97,4.14l-.88-.89.19-.2.91.87Z"/><path class="cls-2" d="M4.94,79.31l.49,1.23c-.54-.23-.67-.62-.49-1.23Z"/><path class="cls-2" d="M103,109.61l-.61-.24-.79-.26s-.14,0-.17,0c-.28-.26-.54-.52-.81-.79.29-.2.63-.61.88-.56.78.13,1.66.09,2.26.76a3.63,3.63,0,0,1,.41.72c-.23.11-.46.24-.7.34A2.87,2.87,0,0,1,103,109.61Z"/><path class="cls-2" d="M31.37,101.79l-.53-1.36.17-.1a2.71,2.71,0,0,1,.25.19c.73.85,1.4,1.74,2.18,2.53a3,3,0,0,0,2.51.89c1-.11,2.07-.15,3.1-.21.32,0,.67,0,.66-.47,0-.09.2-.2.32-.29.48-.34,1-.65,1.45-1s.76-.71,1.16-1a.8.8,0,0,1,.54-.21c1,.09,1.93.2,2.88.36.33,0,.42.32.27.65-.28.62-.55,1.24-.8,1.87a3.73,3.73,0,0,1-2.12,2c-.84.36-1.69.7-2.55,1-.62.25-1.26.48-1.93.73l.22.56c-.8.18-1.53.53-2.38.08l1-.32,0-.11a2.2,2.2,0,0,0-.36,0,13.12,13.12,0,0,1-2.73,0,6.63,6.63,0,0,1-2.37-1.05,31.17,31.17,0,0,1-3.13-2.5,13,13,0,0,1-1.28-1.63c-1.8-2.26-1.86-4.92-1.74-7.61,0-.56.12-1.11.15-1.67a11.57,11.57,0,0,1,1.55-4.68,8.18,8.18,0,0,1,4.69-4.21c1.22-.41,2.46-.77,3.72-1.06a7.63,7.63,0,0,1,1.65,0c.5,0,1,0,1.51,0,.26,0,.62-.07.76.07s.06.5.08.76a7.15,7.15,0,0,0,.16,1.55c.27.83.17,1.16-.67,1.45-.68.23-1.35.48-2,.7a1.36,1.36,0,0,1-.59.1,4.42,4.42,0,0,0-2.82.83,14.22,14.22,0,0,0-2.23,1.58,5.81,5.81,0,0,0-1.51,3.36c-.18,1.16-.38,2.32-.62,3.47a5.77,5.77,0,0,0,.77,4.56c.11.16.37.23.56.34Z"/><path class="cls-2" d="M105.18,18.58c.68.26,1.53.22,1.94,1.1C106.12,19.8,105.79,18.94,105.18,18.58Z"/><path class="cls-2" d="M109.7,21.34c-.61.24-1.06,0-1.51-.78C108.92,20.4,109.14,21.06,109.7,21.34Z"/><path class="cls-2" d="M50.73,50.86a13.53,13.53,0,0,1,.87-3.61c.87-1.54,2-2.87,4.17-2.9,1.78,0,5,1.27,5.53,3.25.23.86.2,1-.58,1.34s-1.74,1-2.62,1.4a11.78,11.78,0,0,1-1.34.47c-.9.33-1.25.75-1.14,1.36.35,1.85.6,2.15,1.82,2.14a1.12,1.12,0,0,1,.41,0c1.41.56,1.89-.64,2.62-1.37.26-.26.49-.62.81-.75a1.15,1.15,0,0,1,1.5,1.09,1.82,1.82,0,0,1,0,.66,4.2,4.2,0,0,1-2,2.77c-.46.23-1,.39-1.43.61a3.74,3.74,0,0,1-3.4,0c-.7-.35-1.44-.62-2.15-.95a3.49,3.49,0,0,1-1.73-1.91,7.12,7.12,0,0,0-.59-1.17,3,3,0,0,1-.58-2.39Zm7.77-2.71c-1.15-1.23-1.54-1.57-2.73-1.07a1.35,1.35,0,0,1-.4.08,1.8,1.8,0,0,0-1,1.92.79.79,0,0,0,.49.39,1.81,1.81,0,0,0,.86-.08c.58-.2,1.14-.45,1.7-.69C57.8,48.55,58.11,48.36,58.5,48.15Z"/><path class="cls-2" d="M48.27,95.36A7.62,7.62,0,0,1,50,90.54a2.3,2.3,0,0,1,1.16-.8c1.08-.38,2.2-1,3.38-.42A3.29,3.29,0,0,1,56.33,91,5.36,5.36,0,0,0,57,92.12c.32.42.25.73-.23,1a16.62,16.62,0,0,0-3.64,2.23c-.36.33-.89.49-1.27.81a.61.61,0,0,0,.08,1,6.69,6.69,0,0,0,3.47,1c.38,0,.77-.55,1.13-.88.54-.51,1-1.08,1.6-1.56a1.07,1.07,0,0,1,1.62.39,2,2,0,0,1-.54,2.54,14.73,14.73,0,0,1-3.48,2.26,9.26,9.26,0,0,1-3.18.22,3.51,3.51,0,0,1-3.12-1.94A6.33,6.33,0,0,1,48.27,95.36Zm4.55-2.12a4.14,4.14,0,0,1,.94-.71c.4-.17.43-.35.16-.6a11.62,11.62,0,0,0-1.35-1.08.67.67,0,0,0-.62.09,3.28,3.28,0,0,0-.54,3c.06.15,0,.35,0,.54s0,.32,0,.48c.2,0,.49,0,.59-.07.47-.51.88-1.07,1.32-1.61l.18.12Z"/><path class="cls-2" d="M72.4,39c0,.81-.11.94-1,1.08a3.71,3.71,0,0,0-2.61,5.36,2.82,2.82,0,0,0,4.54.76,1.84,1.84,0,0,1,2.72-.1.82.82,0,0,1,.19.76c-.75,1.2-1.47,2.43-2.93,3a4.61,4.61,0,0,1-5-1,11.17,11.17,0,0,1-2.67-4.34A2.65,2.65,0,0,1,65.84,42c.31-.47.42-1.07.69-1.58a3.77,3.77,0,0,1,3.66-2.23,2,2,0,0,0,.73-.21C71.94,37.59,72.42,37.91,72.4,39Z"/><path class="cls-2" d="M105,102.11c.16-.7.29-1.42.48-2.11s.45-1.52.67-2.28l2.37-8.33c.13-.46.2-.93.35-1.38a1,1,0,0,1,.42-.56,1,1,0,0,1,.77-.08.72.72,0,0,1,.3.62,18,18,0,0,1-.56,2.19c-.47,1.45-1,2.9-1.49,4.34-.4,1.1-.87,2.18-1.3,3.28s-1,2.49-1.46,3.73c-.09.23-.23.44-.34.66Z"/><path class="cls-2" d="M19,58.46l.23-1.57.28,0-.24,1.57Z"/><path class="cls-2" d="M124.17,118.12a1.83,1.83,0,0,1-1.85-.76c-1.06-1.25-1-2.19.1-3.42a26.79,26.79,0,0,0,2.55-3,36.87,36.87,0,0,0,1.93-3.69,18.23,18.23,0,0,0,.82-1.73,5.34,5.34,0,0,0,.32-1.25.94.94,0,0,1,1.54-.71,2.07,2.07,0,0,1,.89,1.59,14.75,14.75,0,0,1-.21,4.15,12.26,12.26,0,0,1-.71,2.09c-.57,1.46-1.06,3-1.76,4.37S125.94,118.32,124.17,118.12Z"/><path class="cls-2" d="M91.93,108.85a6.45,6.45,0,0,1-2.9.62c-1.83.1-3.64.37-5.46.53a27.08,27.08,0,0,1-3,.06,4.89,4.89,0,0,1-1.45-.31.89.89,0,0,1-.46-.54c0-.11.2-.35.37-.46a5.21,5.21,0,0,1,2.67-.47c1.35,0,2.71-.08,4.06-.11a18.73,18.73,0,0,1,5.87.57Z"/><path class="cls-2" d="M91.82,80.28a7.07,7.07,0,0,1-.39,1.52,2.14,2.14,0,0,1-2.36.67,1.85,1.85,0,0,1-.3-3.37,5.25,5.25,0,0,1,2.29-.48C91.55,78.59,91.83,79.23,91.82,80.28Z"/><path class="cls-2" d="M37.23,25.89a3.05,3.05,0,0,1-.49-.05c-.27-.08-.74-.16-.75-.29a1.52,1.52,0,0,1,.17-1.11,14.23,14.23,0,0,1,2.55-2.24,6.17,6.17,0,0,1,2.34-.6c.59-.08.85.37.47.82a25.88,25.88,0,0,1-2.22,2.34,7.9,7.9,0,0,1-1.47.92A3.12,3.12,0,0,1,37.23,25.89Z"/><path class="cls-2" d="M131,96.67c0,.42,0,.84,0,1.26a1.26,1.26,0,0,1-.89,1.16,1.42,1.42,0,0,1-1.1-.19,1,1,0,0,1-.21-1.41c.38-.65.7-1.33,1.12-1.95.29-.43.71-.34.9.15.12.31.17.65.26,1Z"/><path class="cls-2" d="M78.09,29.81c-1,0-1.46-.28-1.44-.7,0-.71.49-1.29,1-1.27a1.47,1.47,0,0,1,1.11,1.3A.65.65,0,0,1,78.09,29.81Z"/><path class="cls-2" d="M106,115.32c-.14.09-.34.3-.47.26a2.66,2.66,0,0,1-1.38-2.07c0-.36.26-.59.54-.35A3.56,3.56,0,0,1,106,115.32Z"/><path class="cls-2" d="M75.24,86.86a1.38,1.38,0,0,1,.9-1.38,1.15,1.15,0,0,1,1,.09.9.9,0,0,1,.23.87,4.32,4.32,0,0,1-1,1.22.73.73,0,0,1-.7,0A2.33,2.33,0,0,1,75.24,86.86Z"/><path class="cls-2" d="M108.89,108.5c.61-.21,1.2-.46,1.81-.63.29-.07.42.15.33.46-.28,1.08-1.06,1.32-1.9.58a2.07,2.07,0,0,0-.24-.17Z"/><path d="M58.5,48.15c-.39.21-.7.4-1,.55-.56.24-1.12.49-1.7.69a1.81,1.81,0,0,1-.86.08.79.79,0,0,1-.49-.39,1.8,1.8,0,0,1,1-1.92,1.35,1.35,0,0,0,.4-.08C57,46.58,57.35,46.92,58.5,48.15Zm-3,.66c.54-.25,1.07-.46,1.56-.72s.28-.45-.08-.59A1.22,1.22,0,0,0,55.51,48.81Z"/><path d="M52.82,93.24l.61.17-.18-.12c-.44.54-.85,1.1-1.32,1.61-.1.11-.39,0-.59.07,0-.16,0-.32,0-.48s.1-.39,0-.54a3.28,3.28,0,0,1,.54-3,.67.67,0,0,1,.62-.09,11.62,11.62,0,0,1,1.35,1.08c.27.25.24.43-.16.6A4.14,4.14,0,0,0,52.82,93.24Zm-.15-1.55A1.21,1.21,0,0,0,52,92.9C52.71,92.61,52.84,92.36,52.67,91.69Z"/><path class="cls-2" d="M55.51,48.81A1.22,1.22,0,0,1,57,47.5c.36.14.44.39.08.59S56.05,48.56,55.51,48.81Z"/><path class="cls-2" d="M52.67,91.69c.17.67,0,.92-.68,1.21A1.21,1.21,0,0,1,52.67,91.69Z"/></g></g></svg>