<?xml version="1.0" encoding="UTF-8" standalone="no"?>
<!-- Created with Inkscape (http://www.inkscape.org/) -->

<svg
   width="210mm"
   height="297mm"
   viewBox="0 0 210 297"
   version="1.1"
   id="svg1"
   xml:space="preserve"
   inkscape:version="1.3.2 (091e20e, 2023-11-25, custom)"
   sodipodi:docname="STANZ2.svg"
   xmlns:inkscape="http://www.inkscape.org/namespaces/inkscape"
   xmlns:sodipodi="http://sodipodi.sourceforge.net/DTD/sodipodi-0.dtd"
   xmlns="http://www.w3.org/2000/svg"
   xmlns:svg="http://www.w3.org/2000/svg"><sodipodi:namedview
     id="namedview1"
     pagecolor="#ffffff"
     bordercolor="#000000"
     borderopacity="0.25"
     inkscape:showpageshadow="2"
     inkscape:pageopacity="0.0"
     inkscape:pagecheckerboard="0"
     inkscape:deskcolor="#d1d1d1"
     inkscape:document-units="mm"
     inkscape:zoom="1.2334528"
     inkscape:cx="456.44227"
     inkscape:cy="794.92299"
     inkscape:window-width="1920"
     inkscape:window-height="991"
     inkscape:window-x="-9"
     inkscape:window-y="-9"
     inkscape:window-maximized="1"
     inkscape:current-layer="layer1" /><defs
     id="defs1" /><g
     inkscape:label="Calque 1"
     inkscape:groupmode="layer"
     id="layer1"><path
       d="m 75.116345,167.97993 c -0.09292,-0.0147 -0.153996,-0.001 -0.153996,0.0341 0,0.0639 -0.312411,0.36691 -0.378271,0.36691 -0.02239,0 -0.04082,0.0225 -0.04082,0.0501 0,0.0707 -1.06907,1.13995 -1.755449,1.75597 -0.317031,0.2845 -0.829973,0.75493 -1.139982,1.04541 -0.31001,0.29048 -0.665253,0.62266 -0.789099,0.73794 -0.123845,0.11528 -0.620532,0.58687 -1.103809,1.048 -0.483216,0.46114 -1.059823,1.00767 -1.281058,1.2144 -0.482991,0.4512 -0.294124,0.26307 -1.716691,1.71307 -0.646471,0.65888 -1.189999,1.25562 -1.207679,1.32602 -0.02264,0.0902 0.001,0.16331 0.07958,0.24701 0.06143,0.0654 0.102497,0.12878 0.09147,0.14108 -0.01121,0.0123 -0.03638,0.30527 -0.05581,0.65112 -0.01943,0.34585 -0.05861,0.78212 -0.08682,0.96945 -0.11975,0.7953 -0.04782,3.52642 0.115239,4.38113 0.05859,0.30713 0.204029,0.49196 0.387056,0.49196 0.125161,0 0.204828,0.069 0.778247,0.67489 0.139734,0.14762 0.271429,0.26872 0.292489,0.26872 0.02106,0 0.09265,0.11586 0.159163,0.25786 0.06651,0.14199 0.189135,0.33674 0.272335,0.43254 0.222653,0.25632 0.233926,0.27187 0.355017,0.49402 0.11086,0.20339 0.349772,0.5352 0.60048,0.83303 0.311853,0.37038 0.542925,0.6969 0.65009,0.91984 0.06313,0.13133 0.159864,0.28713 0.214974,0.34623 0.05511,0.0592 0.147729,0.19948 0.206189,0.31161 0.05846,0.11213 0.201377,0.30616 0.317293,0.43098 0.115917,0.12481 0.224803,0.27181 0.242363,0.32711 0.01756,0.0553 0.06032,0.10077 0.09457,0.10077 0.03425,0 0.09194,0.0679 0.128675,0.1509 0.06219,0.14051 0.27648,0.40955 0.805119,1.01234 0.11879,0.13553 0.254206,0.30524 0.300756,0.37724 0.04655,0.072 0.217699,0.29129 0.380339,0.4873 0.162639,0.19601 0.339738,0.4304 0.393258,0.5209 0.05352,0.0905 0.177472,0.30292 0.275952,0.47181 0.209468,0.35923 0.183285,0.32749 0.787549,0.94413 0.485742,0.49575 0.618177,0.72501 0.439766,0.76171 -0.05291,0.0109 -0.319963,-0.0122 -0.593762,-0.0512 -0.369238,-0.0526 -0.741709,-0.0603 -1.441256,-0.0305 -0.518716,0.0221 -1.084878,0.0318 -1.257804,0.0217 -0.614372,-0.0359 -3.481774,0.0152 -4.058667,0.0651 -0.0044,0.19339 -0.02065,0.38602 -0.04393,0.57878 -0.02088,0.16281 -0.02125,0.16575 -0.03049,0.23875 0.0038,0.0167 0.0081,0.0222 0.01188,0.0403 0.03592,0.17303 0.04063,0.32995 0.0072,0.43822 -0.02664,0.0929 -0.04802,0.70278 -0.04754,1.35496 4.8e-4,0.65219 -0.01533,1.56453 -0.03514,2.02778 -0.03725,0.87099 0.01012,1.22783 0.162264,1.22783 0.09856,0 1.113847,0.94004 1.283642,1.18856 0.04323,0.0633 0.245497,0.33471 0.449585,0.60306 0.580086,0.76275 0.695177,0.96208 1.619023,2.79932 0.233441,0.46417 0.482625,0.91437 0.553454,1.00097 0.07089,0.0866 0.163993,0.2101 0.207223,0.2744 0.04323,0.0643 0.119599,0.16828 0.169499,0.23048 0.14992,0.18682 0.16807,0.21185 0.26665,0.36535 0.0891,0.13874 0.137074,0.19966 0.363285,0.46715 0.05043,0.0597 0.09147,0.1247 0.09147,0.1447 0,0.02 0.04154,0.0854 0.09198,0.14521 0.0881,0.10448 0.664352,0.92952 0.772562,1.10587 0.02882,0.047 0.06414,0.0972 0.07855,0.11163 0.04011,0.0401 0.135691,0.2051 0.318326,0.55035 0.461362,0.87188 0.979275,-0.009 1.126547,-0.29766 0.152823,-0.30004 0.62952,-1.00362 0.828373,-1.22214 0.104906,-0.11528 0.262373,-0.33139 0.349332,-0.4806 0.08702,-0.14922 0.175151,-0.27935 0.196371,-0.28835 0.02122,-0.009 0.120758,-0.14637 0.220658,-0.30489 0.0999,-0.15851 0.222995,-0.33426 0.273885,-0.39016 0.05089,-0.0559 0.0925,-0.13048 0.0925,-0.16588 0,-0.0354 0.01909,-0.072 0.04238,-0.0816 0.02329,-0.01 0.122372,-0.13546 0.220141,-0.27957 0.09783,-0.1441 0.20858,-0.29314 0.24598,-0.33124 0.03739,-0.038 0.06821,-0.0856 0.06821,-0.10542 0,-0.0198 0.05417,-0.0949 0.120923,-0.16692 0.06675,-0.072 0.188901,-0.24834 0.271301,-0.39222 0.08239,-0.14388 0.222462,-0.36795 0.311092,-0.49765 0.225969,-0.33066 0.283278,-0.42317 0.372587,-0.60254 0.08992,-0.18046 0.13657,-0.25707 0.396875,-0.65474 0.1039,-0.15869 0.301591,-0.46546 0.439767,-0.68162 0.43301,-0.67748 0.62406,-0.9687 0.65319,-0.9958 0.04871,-0.0453 0.421163,-0.62559 0.421163,-0.65629 0,-0.0161 0.02348,-0.0577 0.05271,-0.0925 0.06286,-0.0749 0.184848,-0.26216 0.593245,-0.91209 0.166617,-0.26512 0.384815,-0.5482 0.484725,-0.6289 0.02875,-0.0232 0.03456,-0.0473 0.05529,-0.0703 -0.0016,-0.0287 -0.0019,-0.0583 -5.17e-4,-0.0899 0.01474,-0.32577 0.01594,-0.65163 0.01344,-0.97772 -6.01e-4,-0.0784 0.0087,-0.14705 0.02481,-0.2067 -0.01584,-0.0993 -0.0186,-0.31558 -0.0186,-0.79014 0,-0.97963 0.0099,-1.01305 0.252698,-0.86144 0.0977,0.061 0.378442,-0.0499 0.698665,-0.27544 0.0765,-0.0539 0.163757,-0.0977 0.193787,-0.0977 0.03003,0 0.191371,-0.0804 0.358635,-0.17828 0.167204,-0.0979 0.406923,-0.20546 0.532784,-0.23926 0.125801,-0.0338 0.275773,-0.10557 0.333313,-0.15917 0.05754,-0.0536 0.308677,-0.18438 0.557588,-0.29093 0.248911,-0.10655 0.517817,-0.24013 0.597897,-0.29663 0.08008,-0.0566 0.224117,-0.12449 0.319877,-0.15089 0.09576,-0.0264 0.242538,-0.107 0.326078,-0.1788 0.08354,-0.0719 0.167322,-0.13071 0.186552,-0.13074 0.01923,-4e-5 0.149126,-0.0512 0.288354,-0.11421 0.458644,-0.20728 0.533274,-0.1802 0.737423,0.26975 0.07232,0.1594 0.201288,0.43937 0.286288,0.62219 0.085,0.18282 0.163516,0.3798 0.174666,0.4377 0.01115,0.0579 0.04068,0.13226 0.06563,0.16536 0.02495,0.0331 0.08793,0.17461 0.139526,0.31419 0.0516,0.13958 0.209812,0.4278 0.351917,0.64027 0.142105,0.21246 0.34318,0.56913 0.446484,0.79272 0.172474,0.3733 0.413907,0.79093 0.494027,0.85473 0.07485,0.0596 0.306745,0.58227 0.465088,1.048 0.09309,0.2738 0.221877,0.61553 0.286287,0.75964 0.06441,0.1441 0.183167,0.49779 0.264067,0.786 0.168543,0.60044 0.374116,1.18203 0.564823,1.59835 0.152241,0.33234 0.379022,1.03344 0.432532,1.33739 0.02017,0.1146 0.06554,0.25556 0.100769,0.31316 0.03523,0.0576 0.137623,0.31068 0.227893,0.56172 0.168501,0.46858 0.244269,0.62823 0.372587,0.78806 0.115927,0.14436 0.451379,0.11465 0.843359,-0.0713 0.187336,-0.0894 0.455201,-0.19696 0.595313,-0.23926 0.140112,-0.0423 0.387847,-0.14219 0.550354,-0.22169 0.162508,-0.0795 0.649274,-0.25834 1.081588,-0.39739 0.432254,-0.13904 0.832745,-0.27685 0.890385,-0.30645 0.05764,-0.0296 0.175539,-0.0894 0.261999,-0.13229 0.285838,-0.14172 0.281521,-0.26247 -0.0072,-0.40049 -0.203266,-0.0965 -0.335172,-0.28318 -0.436149,-0.61598 -0.03714,-0.1224 -0.102424,-0.30121 -0.144694,-0.39791 -0.113269,-0.25905 -0.03588,-0.30444 0.340031,-0.19896 0.169147,0.0475 0.383637,0.0863 0.476457,0.0863 0.09282,0 0.362201,0.0457 0.59893,0.10129 0.454456,0.10681 1.134765,0.22559 2.002462,0.34985 0.373034,0.0534 0.559255,0.0592 0.645955,0.0207 l 0.121956,-0.0537 -0.03411,-0.7984 c -0.01872,-0.43917 -0.04174,-0.82297 -0.05064,-0.85267 -0.0089,-0.0298 0.0044,-0.18295 0.02946,-0.34054 0.02507,-0.15758 0.04761,-0.40471 0.04961,-0.54881 0.0044,-0.31238 0.123738,-1.3617 0.262516,-2.3058 0.112797,-0.76735 0.166638,-1.03366 0.252698,-1.2485 0.05596,-0.13972 0.07403,-0.14689 0.307991,-0.12299 0.366466,0.0375 0.504946,0.0752 1.131202,0.31109 0.61544,0.23209 0.67792,0.2873 0.76532,0.67851 0.0303,0.13579 0.11384,0.38087 0.18604,0.54415 0.0722,0.16328 0.15603,0.45036 0.18603,0.63821 0.03,0.18786 0.0773,0.38351 0.10491,0.43511 0.0276,0.0516 0.0501,0.15021 0.0501,0.21911 0,0.0689 0.0587,0.294 0.13074,0.50023 0.0721,0.20623 0.13126,0.41117 0.13126,0.45527 0,0.0441 0.0496,0.19208 0.11007,0.32866 0.21502,0.48532 0.51909,1.40491 0.51883,1.5689 -1e-4,0.0635 0.0206,0.16944 0.0476,0.23564 0.0263,0.0662 0.0996,0.25615 0.16329,0.4222 0.13813,0.36033 0.21897,0.39491 0.72503,0.30851 0.19052,-0.0326 0.46568,-0.07 0.60978,-0.0832 0.14411,-0.0133 0.52841,-0.0486 0.85421,-0.078 0.3258,-0.0294 0.61364,-0.0664 0.63924,-0.0822 0.0256,-0.0158 0.18298,-0.0535 0.35036,-0.0842 0.16739,-0.0307 0.34596,-0.0928 0.39636,-0.13798 0.0633,-0.0567 0.0915,-0.0623 0.0915,-0.0176 0,0.0451 0.0518,0.0544 0.17053,0.0305 0.39816,-0.0801 0.44985,-0.14 0.32556,-0.37827 -0.0418,-0.0802 -0.0763,-0.23453 -0.0765,-0.34261 v -0.19638 h 0.37517 c 0.20658,0 0.6456,0.0389 0.97514,0.0863 0.49899,0.0719 0.60645,0.0744 0.64285,0.0155 0.0238,-0.0388 0.0318,-0.0891 0.0176,-0.11214 -0.0143,-0.023 -0.002,-0.0419 0.0274,-0.0419 0.0292,0 0.118,-0.14179 0.1974,-0.31471 0.0794,-0.17293 0.16272,-0.31419 0.18552,-0.31419 0.0228,0 0.0419,-0.0473 0.0419,-0.1049 0,-0.0576 0.0182,-0.10491 0.0408,-0.10491 0.049,0 0.30772,-0.54269 0.35502,-0.74465 0.0183,-0.0781 0.0666,-0.16908 0.10697,-0.20258 0.0404,-0.0335 0.0734,-0.0899 0.0734,-0.12505 0,-0.0352 0.0473,-0.10697 0.1049,-0.15917 0.0576,-0.0521 0.10491,-0.11342 0.10491,-0.13642 0,-0.023 0.1179,-0.24722 0.262,-0.49765 0.14411,-0.25044 0.262,-0.47501 0.262,-0.49971 0,-0.0247 0.0212,-0.045 0.0475,-0.045 0.0542,0 0.31884,-0.50877 0.31884,-0.61288 0,-0.0375 0.092,-0.25097 0.20412,-0.47439 0.2993,-0.59636 0.46303,-0.9651 0.49713,-1.11828 0.0371,-0.16675 0.22626,-0.41496 0.31626,-0.41496 0.0365,0 0.0954,0.0636 0.13074,0.14108 0.0353,0.0775 0.18023,0.28738 0.32246,0.46612 0.14222,0.17873 0.2589,0.34284 0.2589,0.36484 0,0.022 0.055,0.11285 0.12248,0.20205 0.17653,0.23312 0.61081,0.99925 0.61081,1.07745 0,0.0364 0.11866,0.25791 0.26355,0.49248 0.3132,0.50706 0.30436,0.49245 0.55811,0.92398 0.1101,0.18725 0.22863,0.38775 0.26303,0.44545 0.0344,0.0577 0.19352,0.36862 0.35347,0.69039 0.15996,0.32178 0.30841,0.59255 0.33021,0.60255 0.0523,0.0232 0.21409,0.29491 0.28319,0.47594 0.0303,0.0793 0.0763,0.14418 0.10231,0.14418 0.026,0 0.047,0.0309 0.047,0.0687 0,0.0378 0.0705,0.13607 0.15606,0.21807 0.13389,0.12829 0.20165,0.15065 0.48473,0.15865 0.18099,0.005 0.4585,0.0374 0.61701,0.0708 0.15852,0.0334 0.38236,0.0566 0.49765,0.0506 0.11528,-0.006 0.38998,0.0403 0.6103,0.10283 0.49471,0.1403 1.11409,0.16461 1.33635,0.0476 0.26505,-0.13706 0.25497,-0.11334 0.41186,-1.00563 0.0405,-0.23057 0.085,-0.4664 0.0987,-0.524 0.10343,-0.43367 0.18831,-0.95545 0.21291,-1.30999 0.016,-0.23056 0.0506,-0.54893 0.077,-0.70745 0.0264,-0.15851 0.072,-0.43481 0.10077,-0.61392 0.0288,-0.17911 0.0658,-0.34712 0.0822,-0.37362 0.0164,-0.0265 0.042,-0.23372 0.0574,-0.46044 0.0154,-0.22671 0.0433,-0.48297 0.062,-0.56947 0.0188,-0.0865 0.0389,-0.19245 0.0439,-0.23565 0.0735,-0.60163 0.16359,-0.96913 0.31523,-1.28416 0.18428,-0.38278 0.24542,-0.71286 0.31522,-1.70273 0.0193,-0.2738 0.0498,-0.52156 0.0682,-0.55036 0.0183,-0.0288 0.0599,-0.22929 0.092,-0.44545 0.0321,-0.21558 0.10948,-0.62853 0.17208,-0.91674 0.11808,-0.54296 0.13364,-0.63679 0.18914,-1.13998 0.0183,-0.16572 0.0511,-0.30127 0.0729,-0.30127 0.0217,0 0.0291,-0.07 0.0165,-0.15555 -0.021,-0.14327 0.0565,-0.71494 0.12609,-0.93121 0.0251,-0.0777 0.0207,-0.0796 -0.0269,-0.0134 -0.0415,0.0578 -0.0568,0.0481 -0.0574,0.01 -0.001,-0.11499 0.11624,-0.55648 0.16484,-0.61908 0.0252,-0.0324 0.0324,-0.095 0.0155,-0.13901 -0.0169,-0.0439 -0.007,-0.095 0.0227,-0.11317 0.0296,-0.0182 0.0431,-0.0615 0.03,-0.0966 -0.0132,-0.0351 -0.0329,-0.14321 -0.0439,-0.23977 -0.0373,-0.32876 -0.16503,-0.39298 -0.80408,-0.40618 -0.31065,-0.006 -0.74141,-0.038 -0.95757,-0.0698 -0.21616,-0.0319 -0.71162,-0.0803 -1.10071,-0.10801 -1.09528,-0.0779 -1.32502,-0.10183 -1.5105,-0.15503 -0.0947,-0.0276 -0.20581,-0.036 -0.24701,-0.0202 -0.0412,0.0158 -0.19222,-4.1e-4 -0.33538,-0.0341 -0.3871,-0.0929 -0.56434,-0.0363 -0.62994,0.19999 -0.0295,0.10596 -0.0544,0.29871 -0.0553,0.4284 -8.7e-4,0.1297 -0.0476,0.3734 -0.10387,0.54157 -0.0563,0.16817 -0.11763,0.42162 -0.13643,0.56327 -0.0187,0.14166 -0.0537,0.25735 -0.0775,0.25735 -0.0238,0 -0.059,0.0888 -0.0786,0.19689 -0.0194,0.10808 -0.0531,0.21976 -0.0744,0.24856 -0.0213,0.0288 -0.0554,0.14576 -0.076,0.25993 -0.0206,0.11417 -0.12796,0.49174 -0.23823,0.83871 -0.31871,1.00287 -0.47205,1.51697 -0.4718,1.58027 1.2e-4,0.0323 -0.0551,0.18378 -0.12247,0.33641 -0.12989,0.29437 -0.202,0.28837 -0.2155,-0.0238 -0.004,-0.0893 -0.0262,-0.19361 -0.0496,-0.23151 -0.0235,-0.0379 -0.0646,-0.33265 -0.092,-0.65474 -0.0712,-0.83775 -0.23586,-1.87992 -0.37775,-2.39314 -0.0438,-0.15851 -0.10199,-0.50077 -0.12919,-0.76016 -0.0771,-0.73465 -0.15432,-1.09843 -0.3235,-1.526 -0.0241,-0.0611 -0.06,-0.22019 -0.0801,-0.35399 -0.02,-0.13381 -0.0577,-0.25653 -0.0832,-0.27233 -0.0255,-0.0158 -0.046,-0.0743 -0.046,-0.13023 0,-0.0559 -0.0239,-0.1018 -0.0527,-0.1018 -0.0288,0 -0.0522,-0.0327 -0.0522,-0.0729 0,-0.1194 -0.11875,-0.13142 -0.74259,-0.0827 -1.54184,0.12325 -1.76308,0.15477 -2.15698,0.30645 -0.25302,0.0975 -0.55532,0.16535 -0.85472,0.19275 -0.25513,0.0232 -0.47601,0.0456 -0.49041,0.0486 -0.25702,0.061 -0.33065,0.17356 -0.39585,0.60359 -0.0197,0.12966 -0.0896,0.38936 -0.15502,0.5767 -0.0653,0.18734 -0.13192,0.43204 -0.14832,0.54416 -0.0164,0.11212 -0.0901,0.29452 -0.16329,0.40514 -0.0732,0.11063 -0.13281,0.23485 -0.13281,0.27595 0,0.0411 -0.0446,0.16515 -0.0987,0.27595 -0.0541,0.1108 -0.1516,0.3661 -0.21549,0.56689 -0.0645,0.20084 -0.16797,0.4366 -0.22997,0.524 -0.2088,0.29515 -0.43682,0.8256 -0.66249,1.5472 -0.0676,0.21616 -0.17968,0.55842 -0.24908,0.76016 -0.0694,0.20175 -0.15637,0.4848 -0.19327,0.6289 -0.0904,0.35312 -0.37314,1.07379 -0.53433,1.36219 -0.11209,0.2005 -0.14182,0.22405 -0.20412,0.16175 -0.0402,-0.0401 -0.0848,-0.19879 -0.0992,-0.35295 -0.0145,-0.15416 -0.063,-0.46913 -0.10801,-0.6997 -0.10979,-0.56239 -0.18089,-1.10226 -0.22479,-1.70274 -0.033,-0.45071 -0.0467,-0.49816 -0.14159,-0.49816 -0.1012,0 -0.10359,0.0329 -0.0982,1.07435 0.004,0.59083 0.0336,1.25094 0.0661,1.4671 0.14827,0.98014 0.17055,1.25046 0.11265,1.35857 -0.0965,0.18019 -0.079,1.10255 0.0253,1.34255 0.0831,0.19108 0.11219,0.29407 0.22841,0.80977 0.0227,0.10087 0.0885,0.27798 0.14625,0.39326 0.0577,0.11529 0.14565,0.35107 0.19585,0.524 0.0502,0.17292 0.117,0.36635 0.1478,0.42995 0.0406,0.0839 0.0374,0.2017 -0.0109,0.42943 -0.0583,0.27451 -0.055,0.35702 0.0263,0.65732 0.0562,0.20769 0.12101,0.34365 0.16381,0.34365 0.0389,0 0.0708,0.0463 0.0708,0.10284 0,0.0565 0.0319,0.13216 0.0708,0.16846 0.0594,0.0554 0.0594,0.0775 0,0.13694 -0.0987,0.0989 -0.1088,0.60947 0.008,0.71056 0.0432,0.0432 0.0785,0.11636 0.0785,0.16226 0,0.046 0.0577,0.11001 0.12816,0.14211 0.15161,0.0695 0.19764,0.16528 0.15554,0.3328 -0.0386,0.15398 -0.2608,0.23973 -0.44132,0.17053 -0.2078,-0.0797 -1.0341,-0.0142 -1.39939,0.11059 -0.26631,0.0911 -0.44965,0.1111 -1.00356,0.1111 h -0.67799 l -0.11008,-0.36174 c -0.0605,-0.19902 -0.11047,-0.40517 -0.1111,-0.45837 -6.4e-4,-0.0532 -0.0474,-0.1994 -0.10439,-0.32504 -0.0571,-0.12563 -0.10387,-0.27441 -0.10387,-0.33021 0,-0.0955 -0.30413,-0.96989 -0.53226,-1.52911 -0.0568,-0.13941 -0.16025,-0.52844 -0.22945,-0.86454 -0.0692,-0.33613 -0.17181,-0.71729 -0.22841,-0.84698 -0.0566,-0.1297 -0.16706,-0.45375 -0.24546,-0.71985 -0.0784,-0.2661 -0.18669,-0.52356 -0.24029,-0.57206 -0.0536,-0.0485 -0.29178,-0.14097 -0.52917,-0.20567 -0.2374,-0.0647 -0.66661,-0.19059 -0.953948,-0.28009 -0.287337,-0.0895 -0.647996,-0.17785 -0.801502,-0.19585 -0.25499,-0.03 -0.292244,-0.0204 -0.428914,0.11058 -0.107658,0.10314 -0.149345,0.19391 -0.149345,0.3235 0,0.099 -0.02703,0.21248 -0.05994,0.25218 -0.125443,0.15122 -0.170291,0.39338 -0.237711,1.28984 -0.03298,0.43857 -0.06916,0.73586 -0.133842,1.10019 -0.139612,0.78618 -0.212209,2.39901 -0.134359,2.98587 l 0.03617,0.27078 -0.198955,-0.0289 c -0.109375,-0.0158 -0.376115,-0.0532 -0.592211,-0.0837 -0.216157,-0.0305 -0.581269,-0.0914 -0.811837,-0.13488 -0.230567,-0.0434 -0.56088,-0.10482 -0.733806,-0.13642 -0.172865,-0.0316 -0.467921,-0.0994 -0.655257,-0.1509 -0.187336,-0.0515 -0.443375,-0.10831 -0.569474,-0.12661 -0.33818,-0.049 -0.400588,-0.10088 -0.526583,-0.43408 -0.06293,-0.16671 -0.170338,-0.42181 -0.238228,-0.56534 -0.06789,-0.14411 -0.150025,-0.39184 -0.182935,-0.55035 -0.143,-0.68872 -0.257944,-1.07326 -0.406177,-1.36219 -0.105107,-0.20499 -0.0859,-0.26907 0.211357,-0.71159 0.153397,-0.22836 0.347065,-0.53286 0.430465,-0.67696 0.0834,-0.14411 0.176345,-0.28786 0.206705,-0.31936 0.05745,-0.0595 0.304044,-0.54797 0.49351,-0.97772 0.21996,-0.49875 0.31083,-0.70113 0.468706,-1.04386 0.08855,-0.19223 0.176677,-0.41033 0.195337,-0.48473 0.01866,-0.0744 0.05041,-0.13539 0.0708,-0.13539 0.03813,0 0.109577,-0.16886 0.453203,-1.07383 0.10937,-0.28821 0.242122,-0.58768 0.295072,-0.66508 0.05296,-0.0774 0.09093,-0.15995 0.08423,-0.18345 -0.0068,-0.0235 0.01343,-0.0897 0.04496,-0.14728 0.03153,-0.0576 0.07478,-0.18605 0.09612,-0.28525 0.02134,-0.0993 0.104542,-0.32311 0.185002,-0.49765 0.142858,-0.3099 0.240898,-0.56685 0.501261,-1.3131 0.0704,-0.20175 0.172256,-0.47285 0.225826,-0.60254 0.147443,-0.35696 0.306019,-0.88898 0.343649,-1.1529 0.06204,-0.43508 0.153717,-0.7412 0.235127,-0.7829 0.09386,-0.0481 0.433264,-0.094 1.024227,-0.13798 0.230568,-0.0172 0.501735,-0.0505 0.602547,-0.0744 0.100874,-0.0238 0.318943,-0.059 0.484209,-0.078 0.165206,-0.019 0.313827,-0.0569 0.330727,-0.0842 0.0169,-0.0268 0.048,-0.0389 0.0692,-0.0258 0.0212,0.0131 0.14368,0.001 0.27182,-0.0295 0.12814,-0.0294 0.27984,-0.0627 0.33744,-0.0739 0.0576,-0.0112 0.27006,-0.055 0.47181,-0.0972 0.37744,-0.079 0.71006,-0.12241 1.2578,-0.16381 0.17292,-0.0131 0.45546,-0.0459 0.62839,-0.0734 1.59612,-0.25366 1.77631,-0.23221 1.71721,0.20825 -0.0152,0.11352 -0.005,0.23655 0.0222,0.27285 0.0275,0.0363 0.0555,0.1721 0.0625,0.30179 0.007,0.1297 0.0333,0.31822 0.0584,0.4191 0.0251,0.10087 0.0598,0.36004 0.077,0.57619 0.0173,0.21616 0.0411,0.4519 0.0532,0.524 0.012,0.0721 0.0364,0.44963 0.0543,0.83871 0.0468,1.01569 0.0527,1.06557 0.11782,1.08727 0.032,0.0108 0.0459,0.0537 0.03,0.0951 -0.0158,0.0413 -0.003,0.0749 0.0289,0.0749 0.0319,0 0.0606,-0.0411 0.0646,-0.0915 0.004,-0.0504 0.0157,-0.15063 0.0264,-0.22273 0.0396,-0.26581 0.098,-1.24087 0.092,-1.54564 -0.0117,-0.6451 -0.0564,-1.42596 -0.0847,-1.47226 -0.0161,-0.0263 -0.0458,-0.34311 -0.0661,-0.7028 -0.0203,-0.36026 -0.058,-0.69449 -0.0837,-0.74259 -0.0747,-0.13997 -0.35693,-0.20231 -0.78135,-0.17311 -0.21589,0.0149 -0.45138,0.0388 -0.52348,0.0532 -0.0721,0.0144 -0.21384,0.0376 -0.31471,0.0517 -0.10088,0.014 -0.32471,0.0486 -0.49764,0.0765 -0.17292,0.028 -0.60919,0.0759 -0.96945,0.10645 -0.67753,0.0576 -1.01032,0.11294 -1.4149,0.23668 -0.12969,0.0397 -0.38107,0.0849 -0.55862,0.10025 -0.17755,0.0154 -0.38997,0.0548 -0.47181,0.0873 -0.241483,0.096 -1.318151,0.22129 -1.797823,0.20929 -0.244263,-0.006 -0.496156,0.002 -0.559656,0.0181 -0.153218,0.0385 -0.292323,0.41614 -0.45837,1.24437 -0.112257,0.56061 -0.317965,1.17773 -0.583943,1.75287 -0.04201,0.0908 -0.07648,0.18347 -0.07648,0.20567 0,0.0495 -0.240083,0.67103 -0.342615,0.88677 -0.04109,0.0865 -0.09968,0.25656 -0.129708,0.37775 -0.03003,0.12119 -0.0893,0.25516 -0.131775,0.29766 -0.04247,0.0425 -0.077,0.10936 -0.077,0.14882 0,0.0395 -0.02064,0.0945 -0.04599,0.12196 -0.05799,0.0626 -0.530717,1.24922 -0.530717,1.33222 0,0.0338 -0.05646,0.15967 -0.125573,0.28009 -0.06911,0.12041 -0.177253,0.37231 -0.240813,0.55965 -0.12302,0.36201 -0.21744,0.5861 -0.2651,0.6289 -0.05376,0.0482 -0.258899,0.52168 -0.258899,0.59738 0,0.0412 -0.01765,0.0825 -0.03927,0.0925 -0.05056,0.0225 -0.486858,0.89004 -0.485758,0.96584 4.67e-4,0.0316 -0.04623,0.0997 -0.10387,0.15193 -0.05764,0.0522 -0.104903,0.12656 -0.104903,0.16536 0,0.0388 -0.02,0.0703 -0.04444,0.0703 -0.02444,0 -0.08762,0.10025 -0.14056,0.22273 -0.108302,0.25058 -0.274269,0.45888 -0.365869,0.45888 -0.07375,0 -0.149622,-0.16029 -0.322461,-0.68058 -0.07192,-0.21651 -0.164305,-0.44624 -0.205155,-0.51004 -0.04085,-0.0638 -0.07441,-0.13968 -0.07441,-0.16898 0,-0.0293 -0.10452,-0.2719 -0.232027,-0.53899 -0.257608,-0.53936 -0.489656,-1.1593 -0.556556,-1.48673 -0.02413,-0.11813 -0.137595,-0.4063 -0.252181,-0.64079 -0.114526,-0.23448 -0.236924,-0.5152 -0.272334,-0.62373 -0.123782,-0.37933 -0.673937,-1.64266 -0.780314,-1.79214 -0.05906,-0.0829 -0.107487,-0.17818 -0.107487,-0.21188 0,-0.0591 0.728845,-0.78551 0.789615,-0.78651 0.01638,-3.9e-4 0.122331,-0.085 0.235645,-0.18759 0.113314,-0.10259 0.276825,-0.22363 0.363285,-0.26923 0.08646,-0.0456 0.263563,-0.16265 0.393258,-0.26045 0.751554,-0.56667 1.497975,-1.06789 1.894458,-1.27176 0.2489,-0.12798 0.527967,-0.29428 0.620117,-0.36948 l 0.167432,-0.13643 -0.274919,-0.57412 c -0.151314,-0.3156 -0.332036,-0.66005 -0.401526,-0.76533 -0.06949,-0.10528 -0.15784,-0.29573 -0.19637,-0.42375 -0.104791,-0.34763 -0.296149,-0.77308 -0.348299,-0.77308 -0.02527,0 -0.04599,-0.0275 -0.04599,-0.0605 0,-0.0331 -0.08258,-0.18443 -0.183452,-0.33641 -0.100876,-0.15197 -0.183451,-0.29126 -0.183451,-0.31006 0,-0.0188 -0.0296,-0.0653 -0.06563,-0.10335 -0.03603,-0.0379 -0.100947,-0.11345 -0.144177,-0.16795 -0.568876,-0.717 -0.653413,-0.79902 -0.825273,-0.80202 -0.09643,-0.001 -0.706932,0.26473 -0.935343,0.40773 -0.237834,0.14885 -0.698823,0.46929 -0.80667,0.56069 -0.07205,0.0611 -0.237208,0.15602 -0.366902,0.21032 -0.129694,0.0544 -0.436695,0.22937 -0.681612,0.38912 -0.244978,0.15974 -0.551402,0.34603 -0.681096,0.41393 -0.129695,0.0679 -0.318223,0.18783 -0.419096,0.26613 -0.100813,0.0783 -0.307688,0.20946 -0.459403,0.29146 -0.151715,0.082 -0.373835,0.23937 -0.49351,0.34985 -0.119675,0.11048 -0.244286,0.20102 -0.276986,0.20102 -0.03271,0 -0.199645,0.091 -0.371036,0.20205 -0.171451,0.1111 -0.476765,0.29213 -0.678512,0.40256 -0.201747,0.11043 -0.401571,0.23541 -0.443901,0.27751 -0.08902,0.0885 -0.572959,0.3217 -0.669209,0.32246 -0.0358,2.8e-4 -0.126192,0.069 -0.201022,0.15296 -0.07483,0.084 -0.19369,0.1675 -0.263549,0.185 -0.06992,0.0175 -0.297378,0.14387 -0.505913,0.28112 -0.208535,0.13724 -0.449941,0.28375 -0.536401,0.32505 -0.08646,0.0413 -0.239674,0.13764 -0.340548,0.21394 -0.100873,0.0763 -0.239728,0.15585 -0.308508,0.17725 -0.142055,0.0443 -0.588489,0.37165 -0.648539,0.47542 -0.02185,0.0378 -0.21038,0.15054 -0.419096,0.25063 -0.225565,0.10816 -0.474021,0.27938 -0.612883,0.42271 -0.12849,0.13261 -0.262329,0.24133 -0.297139,0.24133 -0.03481,0 -0.133595,0.0888 -0.219625,0.19741 -0.08603,0.10862 -0.276832,0.25968 -0.423747,0.33538 l -0.267167,0.13746 -0.144177,-0.11266 c -0.07931,-0.0618 -0.200168,-0.1783 -0.268718,-0.2589 -0.06855,-0.0806 -0.271409,-0.30445 -0.450618,-0.49764 -0.17921,-0.19318 -0.475449,-0.52799 -0.658358,-0.74414 -0.182909,-0.21616 -0.381517,-0.44381 -0.441317,-0.50591 -0.0598,-0.0621 -0.200294,-0.25113 -0.312642,-0.41962 -0.112348,-0.16848 -0.259325,-0.3885 -0.326595,-0.48937 -0.06727,-0.10087 -0.19311,-0.2631 -0.27957,-0.3607 -0.08646,-0.0976 -0.157096,-0.1948 -0.157096,-0.2155 0,-0.0207 -0.05349,-0.0962 -0.118339,-0.16794 -0.16803,-0.18566 -0.353467,-0.4493 -0.353467,-0.5023 0,-0.0248 -0.17093,-0.21079 -0.379821,-0.41341 -0.48152,-0.46691 -0.647506,-0.65217 -1.034046,-1.156 -0.685724,-0.89388 -0.8065,-1.04567 -1.028878,-1.2883 -0.325899,-0.35565 -0.629891,-0.7725 -0.675411,-0.92655 -0.02131,-0.072 -0.02514,-0.11559 -0.0041,-0.0982 0.01921,0.018 0.205166,-4e-5 0.412895,-0.0403 0.20773,-0.0402 0.778184,-0.0848 1.26814,-0.0992 0.913889,-0.0268 1.736519,-0.10098 2.016931,-0.18138 0.143218,-0.0411 3.124896,-0.0243 3.47369,0.0196 0.07996,0.01 0.162531,-0.008 0.183451,-0.0398 0.02091,-0.0321 0.04159,-1.3085 0.04599,-2.83601 0.0073,-2.5154 0.03487,-3.18747 0.150378,-3.64784 0.03955,-0.15762 -0.188644,-0.71204 -0.312642,-0.75964 -0.07788,-0.0299 -0.500745,-0.66926 -0.500745,-0.75706 0,-0.0272 -0.02389,-0.0491 -0.05271,-0.0491 -0.02882,0 -0.05219,-0.0241 -0.05219,-0.0532 0,-0.0547 -0.737002,-1.57069 -0.852144,-1.75286 -0.03566,-0.0564 -0.08849,-0.1299 -0.117306,-0.1633 -0.22259,-0.25803 -0.288354,-0.34082 -0.288354,-0.36432 0,-0.0814 -0.440828,-0.65983 -0.760677,-0.99787 -0.115877,-0.12245 -0.365394,-0.45432 -0.554488,-0.73794 -0.482461,-0.72342 -0.516571,-0.77955 -0.759127,-1.24954 -0.284473,-0.55121 -0.40862,-0.78035 -0.4408,-0.81235 -0.01449,-0.0144 -0.09535,-0.1274 -0.179317,-0.25115 -0.177095,-0.26094 -0.195245,-0.27466 -0.400493,-0.30696 z m 0.04082,0.39894 v 5.2e-4 5.1e-4 5.2e-4 c 0.02828,0 0.10809,0.0748 0.17725,0.1664 0.06916,0.0916 0.179063,0.23072 0.243913,0.30902 0.06484,0.0783 0.117822,0.16754 0.117822,0.19844 0,0.0561 0.179496,0.39609 0.39119,0.74104 0.06192,0.10087 0.178449,0.31143 0.258899,0.46767 0.174446,0.33876 0.823188,1.21773 1.003557,1.35961 0.07023,0.0553 0.128157,0.11619 0.128157,0.13539 0,0.0294 0.285446,0.41933 0.366386,0.50023 0.03835,0.0384 0.141372,0.20784 0.26665,0.43977 0.0606,0.11214 0.156928,0.25339 0.214458,0.31419 0.09738,0.1029 0.514644,0.92347 0.515214,1.01337 3.72e-4,0.0587 0.324934,0.67868 0.515214,0.98392 0.501972,0.80533 0.501473,0.80386 0.513663,1.27796 0.007,0.27052 -0.01706,0.52623 -0.06098,0.65371 -0.03967,0.11517 -0.06016,0.22825 -0.04599,0.25115 0.01418,0.0229 0.02099,0.49619 0.01499,1.05161 -0.01372,1.27536 -0.01101,2.01727 0.01292,3.23701 l 0.01912,0.96945 -1.659847,0.007 c -1.457722,0.006 -1.787294,0.0224 -2.139405,0.108 -0.232141,0.0565 -1.103349,0.11889 -1.68,0.11989 -0.577302,0.001 -0.786925,0.0215 -1.351339,0.13074 -0.06779,0.0132 -0.155904,0.0505 -0.195854,0.0837 -0.08378,0.0695 -0.08662,0.0639 -0.171565,-0.37052 -0.09241,-0.4726 -0.157848,-1.62838 -0.161748,-2.85564 -0.002,-0.63406 -0.01736,-1.22683 -0.03411,-1.31723 -0.01675,-0.0904 -0.007,-0.17919 0.0217,-0.19689 0.06242,-0.0386 0.02189,-1.03164 -0.04496,-1.10174 -0.02627,-0.0276 -0.09821,-0.0127 -0.173632,0.0367 -0.121389,0.0795 -0.130172,0.11761 -0.148312,0.65009 -0.01059,0.3109 -0.01526,1.4529 -0.01033,2.53834 0.0097,2.17251 0.05725,2.69253 0.252181,2.76883 0.156263,0.0611 0.430379,0.36248 0.523999,0.57619 0.04419,0.10087 0.200723,0.31329 0.347266,0.4718 0.146543,0.15852 0.375865,0.44157 0.510046,0.62891 0.13418,0.18733 0.346932,0.45037 0.472323,0.58446 0.125329,0.1341 0.267423,0.31611 0.315743,0.40411 0.04832,0.088 0.245467,0.33189 0.438216,0.54208 0.192749,0.21019 0.440483,0.49238 0.550354,0.62684 0.10987,0.13446 0.25424,0.31104 0.32091,0.39274 0.06667,0.0817 0.159439,0.22566 0.206189,0.31936 0.04675,0.0937 0.10209,0.1695 0.12299,0.1695 0.03774,0 0.675928,0.92021 0.675928,0.97461 0,0.10123 0.886125,1.14462 1.593701,1.87689 0.141549,0.14648 0.342576,0.3726 0.446485,0.5023 0.200861,0.25078 0.6065,0.63896 1.146183,1.09709 0.380441,0.32301 0.715042,0.76184 0.553454,0.72554 -0.05371,-0.0121 -0.158937,0.007 -0.233577,0.0434 l -0.135392,0.0662 -0.04599,1.35237 c -0.02514,0.74378 -0.04741,2.02485 -0.04961,2.84634 -0.0038,1.42301 -0.009,1.50093 -0.112654,1.65054 -0.05983,0.0864 -0.257873,0.39289 -0.440284,0.6811 -0.18235,0.28821 -0.35916,0.54739 -0.39274,0.57619 -0.03358,0.0288 -0.135867,0.18204 -0.227377,0.34055 -0.09151,0.15852 -0.195397,0.33426 -0.230477,0.39016 -0.133239,0.21231 -0.615653,0.9488 -0.654223,0.9989 -0.02218,0.0288 -0.155984,0.24073 -0.297656,0.47129 -0.141734,0.23056 -0.312676,0.49216 -0.379305,0.58136 -0.06669,0.0892 -0.120923,0.17994 -0.120923,0.20154 0,0.0216 -0.135553,0.2395 -0.301274,0.48421 -0.16572,0.2447 -0.3247,0.48426 -0.35295,0.53226 -0.247368,0.41995 -0.376002,0.6223 -0.435632,0.6842 -0.03862,0.0401 -0.108796,0.13409 -0.155546,0.20929 -0.315126,0.50698 -0.512181,0.7922 -0.547771,0.7922 -0.02271,0 -0.04134,0.0351 -0.04134,0.0786 0,0.0432 -0.0231,0.0796 -0.05168,0.0796 -0.02857,0 -0.124997,0.12933 -0.214457,0.28784 -0.08946,0.15852 -0.178581,0.28835 -0.197921,0.28835 -0.01934,0 -0.115524,0.13398 -0.213424,0.29766 -0.183036,0.306 -0.229786,0.37029 -0.504362,0.69298 -0.181383,0.21317 -0.698784,0.99221 -0.829923,1.24954 -0.04788,0.0939 -0.12741,0.16957 -0.17725,0.16898 -0.07506,-8.8e-4 -0.471651,-0.51537 -0.71882,-0.93225 -0.02882,-0.0487 -0.06831,-0.10022 -0.08733,-0.11472 -0.01902,-0.0145 -0.181154,-0.2503 -0.360701,-0.524 -0.389886,-0.59435 -1.371239,-1.97903 -1.623157,-2.2903 -0.02817,-0.0348 -0.05116,-0.0848 -0.05116,-0.1111 0,-0.0452 -0.08167,-0.20597 -0.641821,-1.26659 -0.129382,-0.24498 -0.302029,-0.57528 -0.383439,-0.7338 -0.202078,-0.39348 -0.746796,-1.20023 -0.925008,-1.36995 -0.08023,-0.0764 -0.145728,-0.15538 -0.145728,-0.17518 0,-0.0522 -0.245082,-0.32172 -0.576709,-0.63459 -0.158515,-0.14956 -0.347046,-0.32784 -0.419096,-0.39584 -0.07205,-0.068 -0.196175,-0.1566 -0.275435,-0.1974 -0.127745,-0.0657 -0.14366,-0.10342 -0.14366,-0.3328 0,-0.20594 -0.01577,-0.25294 -0.077,-0.22944 -0.04231,0.0162 -0.09217,0.005 -0.110588,-0.0248 -0.03847,-0.0623 -0.0328,-2.56735 0.0067,-3.75377 0.01869,-0.54462 0.0076,-0.86648 -0.03514,-1.00924 -0.03454,-0.11526 -0.0452,-0.22717 -0.02377,-0.24857 0.02143,-0.0214 0.443683,-0.0409 0.938444,-0.0439 1.016399,-0.006 3.046047,-0.0745 3.204972,-0.10904 0.05764,-0.0125 0.446643,-0.0357 0.864547,-0.0517 0.916235,-0.0351 2.136206,0.085 2.235006,0.22015 0.03326,0.0455 0.07523,0.27594 0.09353,0.51211 0.0183,0.23618 0.05531,0.67774 0.08217,0.97978 0.02686,0.30262 0.07515,1.05674 0.10697,1.67639 0.03182,0.61964 0.07802,1.20456 0.102836,1.29966 0.02479,0.0951 0.03521,0.22367 0.02325,0.28577 -0.02522,0.13095 0.104503,0.35347 0.205672,0.35347 0.110865,0 0.225739,-0.16777 0.257349,-0.37517 0.01608,-0.10551 -0.0037,-0.50645 -0.04444,-0.8909 -0.04073,-0.38444 -0.0872,-1.02899 -0.102836,-1.43248 -0.02552,-0.65789 -0.08834,-1.24041 -0.237711,-2.20503 -0.06925,-0.4471 -0.06453,-0.50066 0.04237,-0.48266 0.162542,0.0273 0.141897,-0.22848 -0.03669,-0.4532 -0.08783,-0.11052 -0.15968,-0.21246 -0.15968,-0.22686 0,-0.003 0.02217,-0.0231 0.02636,-0.0295 -0.130566,-0.0903 -0.260445,-0.18157 -0.387573,-0.27647 -5.07e-4,-3.8e-4 -3.63e-4,-0.001 -0.0016,-0.001 -0.06568,0.008 -0.11372,-0.005 -0.184485,-0.0574 -0.07013,-0.0517 -0.156279,-0.14707 -0.191719,-0.21187 -0.03545,-0.0648 -0.07494,-0.10566 -0.08785,-0.0946 -0.04247,0.0425 -0.45872,-0.51503 -0.608232,-0.81494 -0.08061,-0.1617 -0.206606,-0.35901 -0.280086,-0.43821 -0.07348,-0.0792 -0.217164,-0.25384 -0.318843,-0.38758 -0.10174,-0.13316 -0.21247,-0.26627 -0.24598,-0.29507 -0.03351,-0.0288 -0.152626,-0.17061 -0.2651,-0.31471 -0.112474,-0.14411 -0.252059,-0.30942 -0.310059,-0.36742 -0.058,-0.058 -0.206465,-0.23514 -0.329696,-0.39325 -0.123171,-0.15812 -0.319506,-0.40521 -0.436149,-0.54932 -0.384076,-0.47457 -0.920347,-1.20337 -0.953947,-1.29657 -0.03721,-0.10323 -0.353157,-0.60691 -0.473873,-0.75499 -0.04352,-0.0534 -0.189884,-0.22647 -0.325044,-0.38499 -0.135159,-0.15851 -0.431989,-0.57199 -0.659392,-0.91725 -0.227343,-0.34585 -0.483871,-0.7036 -0.569991,-0.79479 -0.08612,-0.0912 -0.156579,-0.17925 -0.156579,-0.19585 0,-0.0166 -0.04103,-0.0801 -0.09147,-0.1416 -0.125865,-0.15352 -0.799435,-0.82183 -0.799435,-0.79323 0,0.0127 -0.102583,-0.11461 -0.227893,-0.28319 l -0.227893,-0.30644 -0.06563,-0.86454 c -0.03618,-0.47555 -0.08812,-0.97102 -0.115755,-1.10071 -0.02764,-0.12969 -0.04677,-0.63659 -0.04238,-1.12655 0.0095,-1.06175 0.02364,-1.31417 0.09715,-1.72909 0.03064,-0.17293 0.07174,-0.60541 0.09147,-0.96118 l 0.03617,-0.64699 0.371553,-0.38654 c 0.204414,-0.21259 0.444884,-0.46412 0.534334,-0.55862 0.08945,-0.0945 0.602057,-0.59546 1.139466,-1.11363 0.537349,-0.51817 0.977521,-0.96641 0.977718,-0.99581 1.97e-4,-0.0294 0.07654,-0.10613 0.170015,-0.17053 0.09347,-0.0644 0.35635,-0.30641 0.583944,-0.53743 0.227593,-0.23101 0.426077,-0.41962 0.441317,-0.41962 0.01524,0 0.147269,-0.11816 0.293522,-0.26251 0.542038,-0.53506 1.221666,-1.17514 1.628841,-1.53479 0.529202,-0.46747 1.02878,-0.94817 2.069124,-1.98903 0.453726,-0.45393 0.848153,-0.82527 0.876433,-0.82527 z m 49.80316,3.3538 h 5.2e-4 c 0.87956,-0.001 1.99797,0.006 3.5574,0.0217 2.83858,0.0295 3.69261,0.0575 4.27054,0.13746 0.20174,0.028 0.55544,0.0617 0.786,0.0739 0.23057,0.0122 0.61957,0.0378 0.86455,0.0558 0.24498,0.0179 0.72491,0.05 1.0666,0.0708 l 0.62167,0.0367 0.24753,-0.0842 c 0.0708,0.11232 4.08988,0.0936 5.46581,-0.0248 0.76162,-0.0654 1.37587,-0.0791 2.6014,-0.0594 1.43122,0.0245 1.94839,0.003 2.57452,-0.0992 0.25016,-0.0409 0.47567,0.1657 0.59117,0.54106 0.0945,0.30704 0.0609,0.44822 -0.19843,0.83044 -0.0724,0.10674 -0.13162,0.24357 -0.13178,0.30437 -6e-4,0.22473 -0.11911,0.52762 -0.25735,0.65784 -0.0782,0.0736 -0.2102,0.25899 -0.293,0.41186 -0.0828,0.15286 -0.24896,0.36075 -0.36949,0.46147 -0.12052,0.10073 -0.25907,0.27093 -0.30747,0.37828 -0.0484,0.10742 -0.15898,0.24179 -0.24598,0.29869 -0.087,0.0569 -0.1953,0.17394 -0.2403,0.26044 -0.1061,0.20386 -0.68349,0.76016 -0.7891,0.76016 -0.0215,0 -0.12147,0.10533 -0.22221,0.2341 -0.10074,0.12872 -0.22451,0.24832 -0.27491,0.26562 -0.0504,0.0173 -0.092,0.0515 -0.092,0.0765 0,0.025 -0.10259,0.1474 -0.22841,0.27181 -0.12582,0.12441 -0.26966,0.28984 -0.31936,0.36794 -0.0497,0.0781 -0.13495,0.15623 -0.18965,0.17363 -0.0574,0.0182 -0.16775,0.17902 -0.26045,0.37931 -0.0885,0.19113 -0.20662,0.37989 -0.26252,0.41909 -0.0559,0.0392 -0.1018,0.11659 -0.1018,0.17209 0,0.10122 -0.37991,0.76256 -0.49506,0.86196 -0.0338,0.0291 -0.12165,0.13528 -0.19585,0.23616 -0.0742,0.10087 -0.19112,0.24368 -0.25942,0.31678 -0.0683,0.0731 -0.16217,0.191 -0.20877,0.262 -0.0466,0.071 -0.27046,0.33119 -0.49765,0.57877 -0.56032,0.6106 -0.76534,0.84797 -0.85834,0.99219 -0.0432,0.067 -0.17925,0.22982 -0.30179,0.36174 -0.12253,0.13193 -0.23738,0.28514 -0.25528,0.34054 -0.0179,0.0554 -0.0525,0.1261 -0.0775,0.1571 -0.0251,0.031 -0.13043,0.16118 -0.23358,0.28887 -0.10315,0.1277 -0.23102,0.31622 -0.28422,0.4191 -0.0532,0.10287 -0.18029,0.26965 -0.28267,0.37052 -0.1024,0.10087 -0.18719,0.20091 -0.1881,0.22221 -0.002,0.0375 -0.11669,0.1891 -0.25063,0.33021 -0.036,0.0379 -0.0646,0.0899 -0.0646,0.11575 0,0.0258 -0.0587,0.10189 -0.13023,0.16899 -0.0715,0.0672 -0.17949,0.21893 -0.24029,0.33693 -0.0608,0.118 -0.17579,0.2746 -0.25529,0.34829 -0.0795,0.0737 -0.18876,0.20356 -0.24236,0.28836 -0.0868,0.13739 -0.29251,0.40003 -0.45889,0.61288 -0.11693,0.012 -0.2513,0.0883 -0.37052,0.25218 -0.0883,0.12147 -0.17631,0.24274 -0.26871,0.36122 -0.12355,0.15834 -0.16005,0.30616 -0.14005,0.42065 -0.0957,0.0992 -0.19744,0.20803 -0.22634,0.26303 -0.0379,0.0721 -0.23872,0.30785 -0.44597,0.524 -0.20724,0.21616 -0.43674,0.48727 -0.51004,0.60255 -0.0733,0.11529 -0.14895,0.22124 -0.16795,0.23564 -0.019,0.0144 -0.16847,0.22683 -0.33228,0.47181 -0.16382,0.24497 -0.39233,0.57492 -0.50798,0.73329 -0.11565,0.15852 -0.30397,0.42129 -0.41806,0.58394 -0.11409,0.16265 -0.24364,0.332 -0.28784,0.3762 -0.0442,0.0442 -0.0801,0.10121 -0.0801,0.12661 0,0.0254 -0.10684,0.1713 -0.23719,0.32401 -0.13035,0.15266 -0.26383,0.32794 -0.29663,0.38964 -0.0328,0.0617 -0.18405,0.24198 -0.33589,0.40049 -0.15185,0.15852 -0.34535,0.38303 -0.42995,0.49817 -0.13558,0.18472 -0.35426,0.40729 -1.29966,1.32291 -0.12647,0.12249 -0.26511,0.22273 -0.30851,0.22273 -0.0436,0 -0.0796,0.0265 -0.0796,0.0594 0,0.0547 -0.17865,0.23669 -1.00149,1.02216 -0.15551,0.14843 -0.34895,0.36066 -0.42995,0.47128 -0.081,0.11061 -0.24768,0.30721 -0.37052,0.43719 -0.12283,0.12999 -0.30729,0.35625 -0.40979,0.50229 -0.1025,0.14609 -0.2509,0.3346 -0.3297,0.4191 -0.0788,0.0845 -0.34551,0.42458 -0.59273,0.75602 -0.24721,0.33145 -0.53308,0.69896 -0.63562,0.81649 -0.40775,0.46759 -0.63884,0.75112 -0.76998,0.94516 -0.0756,0.11182 -0.22462,0.30955 -0.33124,0.43925 -0.10662,0.12969 -0.27137,0.35007 -0.36587,0.48938 -0.15699,0.23153 -1.02566,1.33583 -1.09916,1.39733 -0.0172,0.0144 -0.096,0.11249 -0.17467,0.21807 -0.0786,0.10559 -0.17754,0.22664 -0.22014,0.26924 -0.0426,0.0426 -0.0845,0.10876 -0.0925,0.14676 -0.008,0.038 -0.10187,0.16419 -0.20774,0.2806 -0.40977,0.45054 -0.7245,0.83305 -0.7245,0.88005 0,0.027 -0.0473,0.1086 -0.10491,0.1819 -0.1374,0.17626 -0.13247,0.21356 0.0393,0.23616 0.16431,0.0228 0.17946,0.02 0.64182,-0.0868 0.18733,-0.0433 0.60023,-0.10299 0.91726,-0.13229 0.31703,-0.0293 0.7294,-0.0793 0.91674,-0.11111 0.18733,-0.0318 0.47038,-0.0649 0.6289,-0.0739 0.15851,-0.009 0.53217,-0.029 0.83044,-0.046 0.29826,-0.017 0.75842,-0.0653 1.02216,-0.10697 0.26374,-0.0417 0.85684,-0.0892 1.31775,-0.10593 1.01627,-0.0369 1.52321,-0.0726 1.9389,-0.1354 0.3044,-0.046 0.8784,-0.0853 1.91254,-0.13125 0.2738,-0.0122 0.81602,-0.0458 1.2051,-0.0749 0.38908,-0.0291 1.19593,-0.0669 1.79265,-0.0837 0.59672,-0.0169 1.15085,-0.0482 1.23145,-0.0698 l 0.14625,-0.0398 c 0,-0.003 -4.6e-4,-0.012 -5.2e-4,-0.016 0.0553,-0.001 0.11048,-0.003 0.16588,-0.006 0.0581,-0.004 0.11041,-0.0123 0.15761,-0.0248 10e-4,0.0117 0.001,0.023 0.003,0.0346 0.0322,0.0322 0.25636,0.028 0.62167,-0.0119 0.31413,-0.0344 0.8894,-0.0674 1.27848,-0.0744 1.07218,-0.019 2.35577,-0.0718 2.61999,-0.108 0.12969,-0.0177 0.30676,-0.0433 0.39326,-0.0553 0.59947,-0.0828 4.24258,-0.17598 4.42195,-0.11318 0.0687,0.0241 0.62289,0.0294 1.23145,0.0119 1.00794,-0.0289 1.12279,-0.0222 1.28985,0.0651 0.17334,0.0906 0.18335,0.11062 0.18035,0.35812 -0.003,0.21896 -0.11484,1.04001 -0.21084,1.54564 -0.0137,0.0721 -0.0494,0.33121 -0.0791,0.57619 -0.0297,0.24498 -0.0784,0.62255 -0.10749,0.83871 -0.0546,0.40452 -0.16106,2.28539 -0.15606,2.75126 0.002,0.14394 -0.0229,0.49283 -0.0543,0.77463 -0.0899,0.80859 0.0776,0.7451 -1.96577,0.7431 -0.94644,-9e-4 -2.39323,-0.0202 -3.21427,-0.0429 -0.8214,-0.0229 -1.57603,-0.044 -1.6769,-0.046 -0.10087,-0.002 -0.57246,0.0139 -1.048,0.0336 -0.47555,0.0198 -1.13159,0.0459 -1.4578,0.0584 -0.32585,0.0125 -0.61577,0.0377 -0.64337,0.0548 -0.0276,0.0171 -0.25606,0.0407 -0.50746,0.0522 -0.5809,0.0265 -1.06823,0.0751 -1.12913,0.11266 -0.16432,0.1015 -6.23622,0.11458 -6.94169,0.015 -0.2974,-0.0449 -0.54871,-0.0407 -0.95395,0.004 -0.41472,0.0507 -0.85396,0.0471 -1.7818,0.003 -0.67729,-0.032 -1.9035,-0.0519 -2.7249,-0.0429 -0.74142,-0.23448 -1.19545,-0.37469 -1.78026,-0.55759 0.39251,0.002 0.78524,10e-5 1.17771,0.003 3.11245,0.0243 7.3335,0.0439 9.37979,0.0429 l 3.40548,-0.002 c 0.17171,0.0124 0.34371,0.0183 0.51573,0.0243 0.0347,0.001 0.0693,0.002 0.10387,0.003 2.1e-4,0.004 3e-4,0.007 5.1e-4,0.0124 l 0.83716,-0.0367 c 0.46046,-0.0206 0.88736,-0.0483 0.94826,-0.062 0.29181,-0.0659 3.21728,-0.0789 4.60282,-0.0217 0.84367,0.0349 2.11634,0.0716 2.82774,0.0806 l 1.29398,0.015 0.0605,-0.16433 c 0.0332,-0.0898 0.08,-0.41155 0.10387,-0.71417 0.0239,-0.30262 0.0682,-0.73889 0.0982,-0.96945 0.03,-0.23057 0.0673,-0.7385 0.0832,-1.12758 0.0424,-1.03725 0.0995,-1.62343 0.16175,-1.66553 0.0302,-0.0204 0.0597,-0.12847 0.0667,-0.23978 0.007,-0.11131 0.0486,-0.35801 0.093,-0.54932 0.0988,-0.42558 0.17824,-1.4313 0.11834,-1.4981 -0.0532,-0.0595 -1.23099,-0.0769 -2.64429,-0.0615 -1.41297,0.0154 -3.06213,0.063 -4.0566,0.13384 -0.4464,0.0318 -1.03619,0.0679 -1.30999,0.0801 -1.20878,0.054 -2.48103,0.13693 -2.52543,0.16433 -0.0266,0.0164 -0.22998,0.0398 -0.45165,0.0522 -0.22168,0.0124 -0.43219,0.0337 -0.46819,0.0465 -1.6e-4,0.0115 -1.2e-4,0.0224 0,0.0341 h -0.83613 c -0.87491,-0.0315 -2.7509,0.0415 -3.60546,0.16743 -0.0865,0.0127 -0.47546,0.0392 -0.86455,0.0584 -0.38908,0.0192 -0.81391,0.0438 -0.94361,0.0553 -1.11265,0.0986 -1.56071,0.12836 -2.35283,0.15606 -0.50156,0.0175 -1.03234,0.0552 -1.17925,0.0832 -0.14691,0.028 -0.57364,0.0744 -0.94827,0.10335 -1.55454,0.11965 -3.034,0.30833 -3.50366,0.44649 -0.14021,0.0412 -0.34068,0.0737 -0.44545,0.0739 -0.10477,1e-4 -0.328,0.0226 -0.49557,0.0501 -0.43046,0.0705 -0.612,0.0263 -0.61134,-0.14883 6.2e-4,-0.16883 0.21243,-0.63501 0.33435,-0.73587 0.0492,-0.0407 0.14717,-0.19632 0.21807,-0.34623 0.12423,-0.26261 0.45089,-0.63601 0.71986,-0.82217 0.071,-0.0492 0.20032,-0.21381 0.28732,-0.36639 0.087,-0.15258 0.24344,-0.35907 0.34726,-0.45837 0.10382,-0.0993 0.18862,-0.19887 0.18862,-0.22117 0,-0.0605 0.4992,-0.77983 0.66663,-0.96067 0.0801,-0.0865 0.17817,-0.22067 0.21807,-0.29817 0.0399,-0.0775 0.23471,-0.29825 0.43253,-0.49093 0.19783,-0.19267 0.35967,-0.37483 0.35967,-0.40463 0,-0.0298 0.0911,-0.17415 0.20257,-0.32091 0.11147,-0.14677 0.24558,-0.33776 0.29818,-0.42426 0.0526,-0.0865 0.25645,-0.32535 0.45268,-0.53123 0.19622,-0.20588 0.35657,-0.40882 0.35657,-0.45062 0,-0.0418 0.0604,-0.14419 0.13436,-0.22789 0.18493,-0.20919 0.4576,-0.55358 0.5209,-0.65836 0.0922,-0.15253 0.72275,-0.90753 0.79375,-0.95033 0.0376,-0.0227 0.13654,-0.14058 0.22014,-0.262 0.15235,-0.22132 2.47891,-2.60043 2.6293,-2.68873 0.044,-0.0259 0.20918,-0.20025 0.3669,-0.38705 0.15768,-0.1868 0.44738,-0.52455 0.64389,-0.75086 0.37833,-0.43571 1.24075,-1.57413 1.24075,-1.63763 0,-0.0207 0.12581,-0.19343 0.27957,-0.38395 0.15376,-0.19052 0.34174,-0.44076 0.41754,-0.55604 0.0758,-0.11529 0.20911,-0.30381 0.29611,-0.4191 0.087,-0.11528 0.18572,-0.26273 0.21962,-0.32763 0.0339,-0.0649 0.0794,-0.11782 0.10077,-0.11782 0.0214,0 0.0979,-0.10023 0.17002,-0.22272 0.0721,-0.12249 0.23029,-0.32867 0.3514,-0.45837 0.12111,-0.12969 0.30543,-0.34212 0.40979,-0.47181 0.10435,-0.1297 0.3147,-0.37309 0.46716,-0.54105 0.15245,-0.16797 0.32665,-0.40376 0.38705,-0.524 0.0212,-0.0423 0.0413,-0.066 0.0656,-0.108 0.11975,-0.0194 0.24908,-0.11944 0.34158,-0.32402 h 5.2e-4 c 0.0102,-0.0225 0.0203,-0.0453 0.0305,-0.0677 0.0408,-0.0902 0.0617,-0.17352 0.0667,-0.24702 l 0.17415,-0.16484 c 0.11242,-0.10656 0.20412,-0.22137 0.20412,-0.25477 0,-0.0334 0.0555,-0.11672 0.12299,-0.18552 0.0675,-0.0688 0.20769,-0.25935 0.31161,-0.42323 0.10392,-0.16389 0.23743,-0.32331 0.29663,-0.35501 0.0592,-0.0318 0.10748,-0.0843 0.10748,-0.11628 0,-0.032 0.0781,-0.15511 0.17415,-0.27336 0.096,-0.11826 0.28456,-0.38414 0.41858,-0.59067 0.13402,-0.20653 0.33875,-0.48958 0.45527,-0.6289 0.2759,-0.3299 0.26481,-0.31516 0.47439,-0.62373 0.24083,-0.3541 0.82112,-1.01955 1.02784,-1.17822 0.0914,-0.0701 0.20165,-0.1868 0.24495,-0.2589 0.0433,-0.0721 0.14536,-0.20553 0.22686,-0.29663 0.22078,-0.24661 0.34256,-0.39226 0.49609,-0.59479 0.076,-0.10031 0.20187,-0.25353 0.27957,-0.34003 0.0777,-0.0865 0.18558,-0.25727 0.23978,-0.37982 0.0542,-0.12256 0.21288,-0.36044 0.35244,-0.52814 0.13923,-0.1677 0.3073,-0.39213 0.3731,-0.49868 0.0659,-0.10654 0.28393,-0.36221 0.48421,-0.56895 0.20027,-0.20673 0.46733,-0.49549 0.59376,-0.64131 0.12643,-0.14581 0.41431,-0.45702 0.63975,-0.69143 0.52875,-0.54979 0.61389,-0.6478 0.97152,-1.11983 0.31494,-0.41568 0.60861,-0.78603 0.83044,-1.04799 0.0738,-0.0872 0.1917,-0.27539 0.262,-0.41858 0.0703,-0.14319 0.14532,-0.26104 0.16692,-0.26149 0.0216,-4e-4 0.0398,-0.038 0.0398,-0.0837 0,-0.0457 0.0927,-0.30474 0.20567,-0.57568 0.11318,-0.27094 0.18648,-0.50475 0.16278,-0.51935 -0.0237,-0.0146 -0.12179,-0.0148 -0.21859,-5.1e-4 -0.1607,0.0236 -2.72572,0.0239 -3.66076,5.1e-4 -0.21616,-0.005 -0.48727,0.01 -0.60255,0.0346 -0.56427,0.12044 -2.20885,0.18264 -4.20801,0.15864 l -2.07067,-0.0248 c 4.7e-4,0.0102 1.7e-4,0.0203 5.1e-4,0.0305 -0.008,-0.001 -0.0153,-0.002 -0.0232,-0.003 -0.26581,-0.0262 -0.53186,-0.0511 -0.79892,-0.0491 -0.0381,0.001 -0.076,0.002 -0.1142,0.003 -0.006,0 -0.0111,7.1e-4 -0.0171,0.001 -0.019,-0.008 -0.0385,-0.0152 -0.0574,-0.0232 -0.11301,-0.0493 -0.21412,-0.067 -0.29972,-0.0631 -0.0554,0.003 -0.10423,0.0151 -0.14573,0.0346 -0.57989,-0.0364 -1.10442,-0.0751 -1.27641,-0.093 -0.22424,-0.0451 -0.44951,-0.0851 -0.67593,-0.11628 -0.0812,-0.0111 -0.15786,-0.0169 -0.22996,-0.0171 -0.13198,-4e-4 -0.24845,0.0166 -0.34933,0.047 -0.44731,-0.0307 -0.83299,-0.0685 -1.15755,-0.0796 -2.15967,-0.0736 -7.89935,-0.10352 -8.43411,-0.0439 -0.20316,0.0226 -1.41884,0.0478 -2.70113,0.0558 -6.6772,0.0421 -8.60127,0.0789 -9.30124,0.17777 -0.20175,0.0285 -0.67384,0.0619 -1.04851,0.0744 -1.06197,0.0355 -3.16794,0.1331 -3.45819,0.1602 -0.14411,0.0135 -0.61568,0.0474 -1.048,0.0754 -0.43206,0.028 -0.91584,0.0659 -1.07435,0.0847 -0.15852,0.0188 -0.5122,0.0401 -0.786,0.0481 -0.2738,0.008 -0.85133,0.0387 -1.28364,0.0693 -0.43232,0.0304 -1.03374,0.0526 -1.33636,0.0496 -0.30229,-0.0148 -0.836265,2.3e-4 -1.185969,0.007 -0.34971,0.007 -0.649393,-0.008 -0.665593,-0.0346 -0.0162,-0.0262 -0.154639,-0.0524 -0.307475,-0.0584 -0.152802,-0.006 -0.643131,-0.0382 -1.089856,-0.0713 -0.446689,-0.0332 -1.03051,-0.0545 -1.297078,-0.0465 -0.396855,0.0114 -0.484725,-2.4e-4 -0.484725,-0.063 0,-0.18869 0.149552,-0.22039 0.990637,-0.21239 0.449354,0.004 0.888158,0.0235 0.974618,0.0419 0.611873,0.1305 2.299557,0.16754 3.458191,0.0754 0.99243,-0.0789 2.96802,-0.21359 3.79925,-0.25889 0.41791,-0.0228 1.04269,-0.0671 1.38854,-0.0987 0.34585,-0.0315 1.21838,-0.0689 1.9389,-0.0827 0.72053,-0.0138 1.36097,-0.0351 1.42317,-0.0475 0.70609,-0.14106 2.06666,-0.20056 4.83898,-0.21136 1.62833,-0.006 2.78752,-0.0325 3.01326,-0.0682 0.22158,-0.0351 1.16515,-0.0586 2.38383,-0.0589 1.10958,-3e-4 2.41839,-0.0129 2.90835,-0.0284 0.60659,-0.0192 1.24787,-0.0295 2.12752,-0.0305 v -5.2e-4 l 5.1e-4,-5.2e-4 z m -29.168244,1.3162 c 0.0453,-0.007 0.07808,0.0122 0.07958,0.0615 0.0011,0.036 0.01334,0.1482 0.02739,0.24908 0.09275,0.66637 0.113562,1.30672 0.100252,3.09232 -0.0083,1.10959 -0.03804,2.22883 -0.06615,2.48822 -0.02807,0.25939 -0.03861,0.55187 -0.02377,0.64957 l 0.02687,0.17777 0.660942,-0.0305 c 0.641127,-0.0288 0.760051,-0.0521 1.267106,-0.25166 0.247063,-0.0972 1.56569,-0.38711 2.118733,-0.46561 0.172916,-0.0246 0.562446,-0.093 0.865066,-0.15192 0.30262,-0.0589 0.75031,-0.12045 0.99529,-0.13695 0.24498,-0.0165 0.52809,-0.0442 0.6289,-0.0615 0.10087,-0.0172 0.76097,-0.0364 1.46709,-0.0434 0.70602,-0.007 1.40205,-0.0371 1.54616,-0.0682 0.1441,-0.0311 0.42715,-0.069 0.6289,-0.0842 0.20175,-0.0152 0.59075,-0.064 0.86455,-0.108 0.49475,-0.0796 1.21405,-0.1233 2.5678,-0.1571 0.389,-0.01 1.56804,-0.0457 2.62,-0.0796 1.82756,-0.0587 2.35378,-0.0554 4.19199,0.0284 1.18865,0.0542 10.97421,0.0538 12.07885,-5.1e-4 0.51872,-0.0255 1.00183,-0.0449 1.07383,-0.0429 0.072,0.002 0.35511,-0.0164 0.62891,-0.0424 0.2738,-0.026 0.80154,-0.0597 1.17254,-0.0749 0.37055,-0.0152 0.68935,-0.0369 0.70745,-0.0481 0.0346,-0.0207 1.26712,-0.10415 1.44745,-0.0971 0.10676,0.004 0.65542,-0.0403 1.78181,-0.14418 0.32074,-0.0296 0.63437,-0.0761 0.77256,-0.10903 0.0939,0.0196 0.18815,0.0382 0.28215,0.0558 0.3331,0.0619 0.67105,0.0904 1.00873,0.11213 0.19696,0.0126 0.35131,-0.0232 0.46302,-0.0863 0.002,0.006 0.005,0.0101 0.006,0.0181 0.0285,0.20082 -0.10776,0.33519 -0.69247,0.68316 l -0.55862,0.33228 c 10e-4,0.0484 0.003,0.0968 0.004,0.14521 -0.0783,0.0161 -0.15665,0.0322 -0.23255,0.0579 -0.002,0.001 -0.003,0.001 -0.005,0.002 -0.047,-0.0433 -0.12942,-0.009 -0.29455,0.12195 -0.076,0.06 -0.30887,0.21499 -0.5178,0.34469 -0.20893,0.12969 -0.41257,0.26752 -0.45217,0.30592 -0.1032,0.10014 -0.54214,0.41166 -0.71933,0.51056 -0.0829,0.0463 -0.27978,0.18918 -0.4377,0.31781 -0.15793,0.12863 -0.37294,0.28992 -0.47801,0.35812 -0.10506,0.0682 -0.25318,0.17888 -0.32918,0.24598 -0.076,0.0671 -0.21921,0.18597 -0.31781,0.26407 -0.0986,0.0781 -0.24484,0.20268 -0.32504,0.27698 -0.0802,0.0743 -0.20814,0.17475 -0.28474,0.22325 -0.62177,0.39385 -2.48444,2.13784 -2.8975,2.71301 -0.0925,0.12884 -0.1828,0.23409 -0.2005,0.23409 -0.0177,0 -0.0758,0.0768 -0.12868,0.17053 -0.053,0.0937 -0.21731,0.28791 -0.36535,0.43202 -0.14804,0.1441 -0.38152,0.40378 -0.51883,0.57671 -0.24911,0.3137 -0.83091,0.95481 -1.42627,1.572 -1.08474,1.12395 -2.14043,2.23301 -2.31356,2.42931 -0.11092,0.12518 -0.33138,0.37047 -0.48989,0.54363 -0.15852,0.17316 -0.3237,0.36568 -0.3669,0.42788 -0.0432,0.0622 -0.20216,0.23912 -0.35347,0.39326 -0.15131,0.15414 -0.27492,0.30238 -0.27492,0.32918 0,0.0267 -0.0192,0.0371 -0.0424,0.0227 -0.0233,-0.0144 -0.0857,0.0315 -0.13849,0.1018 -0.12028,0.16295 -0.32029,0.1695 -0.36019,0.0171 -0.0439,-0.16772 0.0319,-0.3049 0.35657,-0.64905 0.16316,-0.17292 0.40519,-0.45598 0.53795,-0.62891 0.13277,-0.17293 0.34934,-0.43357 0.48111,-0.57929 0.13177,-0.14573 0.32183,-0.36937 0.42271,-0.49661 0.10087,-0.12723 0.33095,-0.37865 0.51108,-0.55862 0.18014,-0.17996 0.32763,-0.34425 0.32763,-0.36535 0,-0.0211 0.25393,-0.29899 0.56431,-0.61754 1.13319,-1.16301 2.17569,-2.29662 2.5802,-2.80603 0.14875,-0.18734 0.35851,-0.42312 0.46612,-0.524 0.10761,-0.10087 0.34598,-0.37249 0.52969,-0.60306 0.18371,-0.23057 0.40592,-0.50219 0.49402,-0.6041 0.0881,-0.1019 0.24278,-0.28901 0.34365,-0.41548 0.23086,-0.28944 0.32116,-0.37547 0.69453,-0.66507 0.16572,-0.12853 0.30128,-0.25556 0.30128,-0.28216 0,-0.0266 0.21813,-0.22278 0.48472,-0.43563 0.26659,-0.21284 0.52956,-0.43718 0.58446,-0.49868 0.0549,-0.0615 0.14941,-0.1124 0.20981,-0.11317 0.0604,-7.8e-4 0.23653,-0.11867 0.3917,-0.262 0.15516,-0.14333 0.30157,-0.26045 0.32557,-0.26045 0.024,0 0.1214,-0.0685 0.216,-0.15244 0.38684,-0.34286 0.55478,-0.47646 0.60048,-0.47646 0.0265,0 0.19748,-0.10024 0.37983,-0.22272 0.18234,-0.12249 0.37648,-0.24881 0.43098,-0.28061 0.0545,-0.0318 0.16314,-0.11435 0.24184,-0.18345 0.0787,-0.0691 0.2024,-0.15327 0.2744,-0.18707 0.072,-0.0338 0.26974,-0.17508 0.43925,-0.31419 0.39174,-0.32154 0.4977,-0.38248 0.6687,-0.38344 0.14741,-8.2e-4 0.21931,-0.10437 0.16691,-0.24081 -0.0252,-0.0654 -0.0881,-0.0781 -0.29972,-0.0584 -0.5472,0.0509 -1.76065,0.14345 -2.57349,0.19585 -0.88221,0.0569 -1.69234,0.12385 -2.17454,0.18035 -0.54312,0.0637 -2.01754,0.11468 -2.48926,0.0858 -0.67807,-0.0415 -1.51487,-0.0169 -1.9389,0.0574 -0.26145,0.0458 -1.12285,0.0618 -3.01325,0.0558 -2.93939,-0.01 -4.04694,-0.01 -6.05234,-0.005 -0.74935,0.002 -1.62187,-0.0227 -1.9389,-0.0548 -0.31703,-0.0322 -1.36614,-0.0552 -2.33164,-0.0522 -0.96551,0.003 -1.93257,0.002 -2.14871,-0.004 -0.21615,-0.005 -0.54595,0.0145 -0.73329,0.0444 -0.18734,0.0298 -0.91859,0.0672 -1.6247,0.0832 -1.2096,0.0273 -1.8052,0.0713 -2.54145,0.18655 -0.72928,0.11419 -1.34864,0.15609 -2.62,0.17829 -1.01353,0.0177 -2.29475,0.13962 -3.01325,0.28732 -0.12969,0.0267 -0.50675,0.0966 -0.83819,0.15503 -0.835877,0.1473 -1.2204,0.23168 -1.6769,0.36948 -0.216157,0.0652 -0.536216,0.16196 -0.711068,0.21446 -0.174851,0.0525 -0.528538,0.11112 -0.785999,0.13022 -0.257404,0.0191 -0.554121,0.0562 -0.659391,0.0827 -0.118237,0.0357 -0.241561,0.0289 -0.322461,-0.002 -0.211307,-0.0803 -0.223077,-0.30294 -0.158647,-2.96468 0.0537,-2.21353 0.03802,-3.09661 -0.06511,-3.73465 -0.02859,-0.17687 -0.01656,-0.24593 0.05736,-0.32763 0.05258,-0.058 0.110493,-0.0922 0.156063,-0.0992 z m -4.000273,10.88202 0.21084,0.20309 c 0.228957,0.22061 1.001545,1.34012 1.066085,1.54461 0.02189,0.0694 0.162244,0.38525 0.312125,0.70228 0.416648,0.88094 0.551142,1.17868 0.550871,1.22008 -1.36e-4,0.0208 -0.167253,0.13174 -0.371037,0.24702 -0.203723,0.11528 -0.516057,0.31032 -0.694014,0.43304 -0.177958,0.12273 -0.372345,0.24437 -0.432015,0.27027 -0.05967,0.0259 -0.232914,0.16118 -0.384989,0.30076 -0.270824,0.24847 -0.487773,0.39814 -0.829407,0.57206 -0.09367,0.0477 -0.170619,0.10159 -0.171049,0.11989 -4.3e-4,0.0183 -0.138059,0.11442 -0.305408,0.21342 -0.179581,0.10627 -0.377316,0.28111 -0.482658,0.42633 -0.09816,0.13532 -0.302753,0.3251 -0.454752,0.4222 -0.152061,0.0971 -0.290042,0.21833 -0.306442,0.26923 -0.03791,0.11767 0.06358,0.42913 0.167949,0.51573 0.117682,0.0977 0.6642,1.27105 0.790649,1.69757 0.04272,0.14411 0.168078,0.43858 0.279053,0.65474 0.110975,0.21615 0.276269,0.67631 0.367419,1.02216 0.149276,0.56637 0.220695,0.76272 0.399459,1.10019 0.123277,0.23272 0.295797,0.63796 0.334347,0.786 0.02252,0.0865 0.114942,0.3342 0.205672,0.55036 0.168982,0.40257 0.843679,2.3736 0.860929,2.51509 0.02537,0.20814 0.419162,1.41235 0.534851,1.63607 0.04497,0.0869 0.06898,0.20577 0.05374,0.26407 -0.01645,0.0629 0.04468,0.24651 0.150378,0.45217 0.161728,0.31468 0.497304,1.25988 0.497128,1.39991 -4e-5,0.0316 -0.100237,0.10027 -0.222726,0.15297 -0.122489,0.0527 -0.321442,0.13922 -0.44235,0.19172 -0.120908,0.0525 -0.253666,0.0956 -0.294556,0.0956 -0.09389,0 -0.836719,0.28294 -1.566312,0.59686 -0.308483,0.13272 -0.579588,0.24125 -0.602548,0.24081 -0.142839,-0.003 -0.30141,-0.32849 -0.510046,-1.04748 -0.03764,-0.1297 -0.155699,-0.48338 -0.262,-0.786 -0.10624,-0.30262 -0.224266,-0.65992 -0.262516,-0.79426 -0.03825,-0.13433 -0.08965,-0.27611 -0.114205,-0.31471 -0.07328,-0.11514 -0.28103,-0.72023 -0.414445,-1.20717 -0.06866,-0.24997 -0.148667,-0.49783 -0.177767,-0.54983 -0.08522,-0.15239 -0.362169,-0.86699 -0.402559,-1.03818 -0.0204,-0.0865 -0.07874,-0.23968 -0.129191,-0.34055 -0.05045,-0.10087 -0.15314,-0.3164 -0.22841,-0.47904 -0.07527,-0.16265 -0.17958,-0.3512 -0.23151,-0.4191 -0.05193,-0.0679 -0.265807,-0.4534 -0.475424,-0.85627 -0.209556,-0.40288 -0.446346,-0.81524 -0.526066,-0.91674 -0.187642,-0.23896 -0.279871,-0.42321 -0.464571,-0.92605 -0.0831,-0.22623 -0.204531,-0.52924 -0.269751,-0.67334 -0.539844,-1.19296 -0.70368,-1.31302 -1.285193,-0.94103 -0.15967,0.10218 -0.390281,0.23001 -0.512113,0.28371 -0.121833,0.0537 -0.285285,0.15836 -0.363285,0.23306 -0.078,0.0747 -0.198761,0.13591 -0.268201,0.13591 -0.105875,0 -1.359218,0.59915 -1.527555,0.73018 -0.02941,0.0229 -0.119502,0.0574 -0.199471,0.0765 -0.178211,0.0426 -0.603274,0.2438 -0.954464,0.45217 -0.144104,0.0855 -0.297835,0.16944 -0.341065,0.18604 -0.04323,0.0167 -0.156531,0.0643 -0.252181,0.10594 -0.09565,0.0412 -0.196152,0.0614 -0.223242,0.045 -0.02956,-0.0183 -0.0379,-0.42176 -0.02067,-1.00975 0.03192,-1.08908 0.061,-1.49535 0.112137,-1.56528 -0.007,-0.16208 -0.01241,-0.32409 -0.01344,-0.48628 -4.93e-4,-0.0771 0.0086,-0.1446 0.02429,-0.2036 -0.169972,-0.19879 -0.355413,-0.38957 -0.609266,-0.59273 -0.18007,-0.14416 -0.326845,-0.30143 -0.326078,-0.34933 7.66e-4,-0.048 0.144956,-0.19329 0.320394,-0.32298 0.175438,-0.12969 0.451992,-0.33705 0.614433,-0.46044 0.162442,-0.12339 0.397816,-0.2885 0.522965,-0.3669 0.125149,-0.0784 0.40826,-0.27643 0.628902,-0.43873 0.408398,-0.30146 0.784933,-0.53497 1.926498,-1.19528 0.176092,-0.10185 0.423825,-0.2545 0.550354,-0.339 0.126528,-0.0845 0.383172,-0.23301 0.570508,-0.33021 0.187276,-0.0972 0.402487,-0.21672 0.478007,-0.26562 0.07552,-0.0489 0.287418,-0.17823 0.471289,-0.28784 0.183871,-0.10962 0.428869,-0.25722 0.544153,-0.32762 0.115223,-0.0704 0.363018,-0.21469 0.550354,-0.32091 0.187276,-0.10621 0.402377,-0.24219 0.478007,-0.30179 0.07562,-0.0597 0.215769,-0.15531 0.311608,-0.21291 0.0959,-0.0576 0.211169,-0.12893 0.255799,-0.15813 0.470336,-0.30746 1.282912,-0.79725 1.626774,-0.98082 0.40227,-0.21479 0.922286,-0.53084 1.041797,-0.63304 0.04664,-0.0398 0.120584,-0.088 0.163814,-0.10697 0.04323,-0.019 0.172554,-0.0924 0.287838,-0.16329 0.115284,-0.0709 0.311933,-0.18017 0.436666,-0.24237 z m 21.446757,2.60708 0.12557,0.4718 c 0.0691,0.25939 0.14455,0.5186 0.16795,0.5762 0.058,0.14243 0.15503,0.86746 0.15503,1.15703 0,0.12946 0.0685,0.53524 0.15193,0.90176 0.21167,0.92972 0.26743,1.27784 0.29093,1.81125 0.0233,0.52827 0.17532,1.75015 0.23151,1.86811 0.0208,0.0432 0.0442,0.17307 0.0512,0.28835 0.007,0.11529 0.0338,0.26855 0.0589,0.34055 0.0251,0.0721 0.0858,0.3485 0.13487,0.61443 0.0949,0.51434 0.1605,0.62036 0.35295,0.57206 0.15003,-0.0377 0.25394,-0.38174 0.21704,-0.71882 -0.0314,-0.28691 0.0776,-1.03391 0.17105,-1.17357 0.0381,-0.0568 0.0692,-0.15152 0.0692,-0.21032 0,-0.0588 0.0488,-0.2367 0.10852,-0.39481 0.13635,-0.36135 0.45596,-1.41692 0.52296,-1.72599 0.0278,-0.12851 0.0737,-0.25718 0.10232,-0.28578 0.0285,-0.0286 0.0526,-0.10006 0.0532,-0.15916 6e-4,-0.0591 0.0616,-0.30796 0.13591,-0.55294 0.16823,-0.55459 0.19943,-0.67672 0.34985,-1.37407 0.0666,-0.30896 0.13761,-0.57842 0.15761,-0.59842 0.12184,-0.12183 4.26803,0.006 4.63124,0.14263 0.1251,0.0471 0.12763,0.13702 0.0129,1.03456 -0.0267,0.21104 -0.0486,0.5022 -0.0486,0.64699 0,0.14479 -0.0336,0.38476 -0.0749,0.5333 -0.0413,0.14854 -0.0888,0.42349 -0.10542,0.61082 -0.0373,0.42114 -0.0855,0.66736 -0.26149,1.33583 -0.0759,0.28821 -0.14918,0.63047 -0.16278,0.76016 -0.0444,0.42375 -0.23317,1.20706 -0.38964,1.61644 -0.0843,0.2206 -0.18894,0.64823 -0.23254,0.95085 -0.0436,0.30262 -0.11817,0.76277 -0.16537,1.02216 -0.0472,0.25939 -0.10519,0.66033 -0.12919,0.8909 -0.024,0.23057 -0.0906,0.67826 -0.14779,0.99529 -0.0572,0.31703 -0.13987,0.87119 -0.18397,1.23145 -0.0441,0.36027 -0.10574,0.77315 -0.13694,0.91726 -0.0312,0.14349 -0.0663,0.40872 -0.0785,0.58807 -0.0258,0.37922 -0.15592,0.85488 -0.25012,0.91468 -0.0799,0.0507 -0.30209,0.0453 -0.61546,-0.0155 -0.12969,-0.0252 -0.51981,-0.0695 -0.86506,-0.0982 -1.40669,-0.11662 -1.42586,-0.12334 -1.63608,-0.55087 -0.0567,-0.11528 -0.19566,-0.3625 -0.30903,-0.54984 -0.11338,-0.18733 -0.26276,-0.48233 -0.33176,-0.65526 -0.069,-0.17292 -0.14056,-0.32615 -0.15916,-0.34055 -0.0186,-0.0144 -0.0738,-0.12753 -0.12247,-0.25114 -0.0748,-0.18988 -0.30153,-0.52525 -0.57258,-0.8475 -0.0801,-0.0952 -0.14935,-0.21627 -0.50074,-0.87126 -0.15315,-0.28547 -0.30053,-0.5547 -0.32763,-0.5979 -0.0271,-0.0432 -0.11417,-0.19389 -0.19327,-0.33486 -0.23334,-0.41561 -0.59094,-0.93762 -0.75293,-1.09916 -0.0829,-0.0827 -0.15089,-0.17107 -0.15089,-0.19637 0,-0.0964 -0.35005,-0.41156 -0.54984,-0.49506 l -0.20877,-0.0868 -0.19327,0.2248 c -0.10651,0.12366 -0.24573,0.36683 -0.30903,0.54053 -0.1201,0.32938 -0.37391,0.90221 -0.61805,1.39475 -0.0786,0.15852 -0.17539,0.39431 -0.21549,0.524 -0.04,0.1297 -0.0969,0.26742 -0.12609,0.30592 -0.0924,0.12173 -0.55729,0.95434 -0.8971,1.60662 -0.18017,0.34585 -0.39564,0.7468 -0.47904,0.89091 -0.0834,0.14349 -0.1986,0.35312 -0.2558,0.46457 -0.14313,0.27897 -0.29125,0.36857 -0.53434,0.32297 -0.22638,-0.0425 -0.5102,-0.17864 -0.4656,-0.22324 0.0107,-0.0107 -0.008,-0.0355 -0.016,-0.0563 -0.0353,8.8e-4 -0.0705,7.3e-4 -0.10594,-5.1e-4 -0.009,-3.3e-4 -0.0184,-0.001 -0.0274,-0.002 0.0336,0.10612 0.0221,0.10566 -0.34571,0.077 -0.21823,-0.0186 -0.4494,-0.0727 -0.5426,-0.12713 -0.14098,-0.0824 -0.16347,-0.1255 -0.16847,-0.32762 -0.008,-0.30523 -0.076,-0.67852 -0.12402,-0.67852 -0.031,0 -0.0899,-0.53597 -0.12506,-1.13533 -0.004,-0.0624 -0.0244,-0.13136 -0.046,-0.15296 -0.0216,-0.0216 -0.0393,-0.13644 -0.0393,-0.25528 0,-0.11883 -0.0356,-0.35276 -0.0791,-0.51987 -0.11582,-0.44469 -0.24449,-1.16453 -0.27389,-1.53427 -0.0315,-0.39601 0.0755,-0.75114 0.3235,-1.07332 0.14998,-0.19487 0.44855,-0.83249 0.44855,-0.95808 0,-0.0222 0.0354,-0.12059 0.0786,-0.21859 0.12417,-0.28155 0.21457,-0.50412 0.28577,-0.70228 0.0363,-0.10087 0.097,-0.25405 0.13488,-0.34055 0.1724,-0.39532 0.33899,-0.8242 0.33899,-0.8754 0,-0.0309 0.0945,-0.2531 0.20981,-0.49351 0.1153,-0.2404 0.20971,-0.46725 0.20981,-0.50385 10e-5,-0.0366 0.0418,-0.13725 0.093,-0.22375 0.0511,-0.0865 0.18369,-0.369 0.29456,-0.62839 0.11086,-0.25939 0.24259,-0.56632 0.29249,-0.68161 0.0499,-0.11528 0.10722,-0.27989 0.12712,-0.36639 0.0199,-0.0865 0.092,-0.27551 0.1602,-0.41961 0.16345,-0.34515 0.44024,-1.24355 0.48214,-1.56476 0.029,-0.22233 0.0542,-0.26343 0.19585,-0.32143 0.0893,-0.0366 0.3508,-0.0827 0.58136,-0.10232 0.63006,-0.0537 0.97324,-0.11551 1.20561,-0.21807 0.11529,-0.0509 0.22125,-0.0952 0.23565,-0.0982 0.0144,-0.003 0.14425,-0.0334 0.28835,-0.0677 0.14411,-0.0343 0.52059,-0.0685 0.83664,-0.0765 z"
       style=""
       id="path96" /><path
       d="m 117.0125,210.5365 7.2632,0.25742 c -8.43873,-0.0627 3.46333,-0.23213 -7.2632,-0.25736 z"
       id="path95"
       sodipodi:nodetypes="cccc" /><path
       d="m 113.92483,200.95569 v 5.2e-4 c 0.0461,-0.001 0.0947,-0.002 0.14883,0.009 0.17443,0.0359 0.081,0.44659 -0.19896,0.8723 -0.13178,0.20039 -0.23978,0.39203 -0.23978,0.42633 0,0.0344 -0.0586,0.11814 -0.13022,0.18604 -0.0716,0.0679 -0.13024,0.14992 -0.13074,0.18242 -5e-4,0.0325 -0.0385,0.0901 -0.0842,0.12815 -0.0968,0.0804 -0.92565,1.16532 -1.13223,1.48312 -0.15767,0.24185 -0.426,0.56348 -0.76843,0.92087 -0.24219,0.25277 -0.43823,0.52226 -0.6103,0.84026 -0.0576,0.10652 -0.13595,0.22698 -0.17415,0.26768 -0.0382,0.0407 -0.12075,0.16056 -0.18345,0.26665 -0.22662,0.38359 -0.84355,1.26939 -1.00098,1.43713 -0.26926,0.2869 -0.41317,0.45654 -0.5736,0.67592 -0.1482,0.20266 -0.43137,0.53657 -0.69247,0.81649 -0.0694,0.0744 -0.12609,0.15307 -0.12609,0.17467 0,0.0216 -0.0768,0.11729 -0.17053,0.21239 -0.0658,0.0668 -0.15543,0.17253 -0.23823,0.26923 -0.10232,0.0228 -0.21633,0.0845 -0.32918,0.19586 -0.0391,0.0386 -0.0143,0.0131 -0.0718,0.0785 -0.1408,0.16038 -0.1826,0.31488 -0.1602,0.43357 -0.14532,0.078 -0.26948,0.17955 -0.36328,0.31316 -0.25156,0.35817 -0.25386,0.36376 1.64744,0.15399 0.50437,-0.0556 1.21631,-0.12424 1.58182,-0.15244 0.49677,-0.0383 1.12358,-0.1735 1.4826,-0.2558 0.0868,0.0536 0.21284,0.082 0.3762,0.0651 0.48721,-0.0504 0.97544,-0.0974 1.46348,-0.14004 0.40646,-0.0314 0.20683,-0.0169 0.59841,-0.0444 0.24856,-0.0174 0.1494,0.047 0.2011,-0.0754 0.90672,0.003 2.05974,-0.1606 2.96667,-0.1603 0.38154,-0.1415 -1.33294,0.16687 -1.19276,0.0176 0.95377,-0.0582 1.65158,0.0674 2.28433,0.0582 3.87955,-0.0564 8.35695,-0.24275 12.04359,0.46598 -1.96507,-0.009 -11.16969,-0.54088 -13.13516,-0.54188 -0.41776,0.1551 15.78242,0.50358 14.88111,0.60118 -0.21616,0.029 -17.58528,-0.13194 -18.07523,-0.10302 -1.35904,0.0803 -2.15273,0.14831 -2.3704,0.20361 -0.59063,0.14993 -0.99909,0.21788 -1.61231,0.26768 -0.78512,0.0638 -1.45879,0.14301 -1.83296,0.21601 -0.14358,0.028 -0.62709,0.0654 -1.07435,0.0827 -0.76592,0.0271 -0.82065,0.0246 -0.94361,-0.076 -0.1244,-0.10183 -0.12648,-0.11092 -0.0393,-0.20722 0.0502,-0.0555 0.0914,-0.13419 0.0915,-0.17519 1.1e-4,-0.041 0.0474,-0.15158 0.1049,-0.24598 l 0.3235,-0.63768 c 0.0484,-0.002 0.19841,-0.14854 0.33383,-0.3266 0.27006,-0.35512 0.27088,-0.35571 0.49506,-0.6196 0.0857,-0.10087 0.15612,-0.20263 0.15658,-0.22583 9.4e-4,-0.0472 0.5115,-0.66318 0.86816,-1.04748 0.12826,-0.1382 0.23306,-0.26935 0.23306,-0.29145 0,-0.0221 0.0706,-0.10789 0.1571,-0.19069 0.0865,-0.0828 0.15709,-0.1758 0.15709,-0.2067 0,-0.031 0.0821,-0.15065 0.18242,-0.26562 0.10035,-0.11496 0.1829,-0.22385 0.18345,-0.24185 5.5e-4,-0.018 0.0822,-0.1206 0.18087,-0.22841 0.0987,-0.1078 0.20745,-0.26416 0.24185,-0.34726 0.0344,-0.0831 0.0831,-0.15141 0.10852,-0.15141 0.0253,0 0.046,-0.0353 0.046,-0.0785 0,-0.0435 0.0187,-0.0786 0.0413,-0.0786 0.0226,0 0.0864,-0.0763 0.14159,-0.17002 0.1955,-0.3315 0.99148,-1.35739 1.22783,-1.58233 0.089,-0.0847 0.16175,-0.17362 0.16175,-0.19792 0,-0.0243 0.0883,-0.15787 0.19637,-0.29714 0.10808,-0.13926 0.2621,-0.35669 0.3421,-0.48317 0.48853,-0.77194 0.74408,-1.13577 1.01854,-1.44901 0.17022,-0.19427 0.41938,-0.49781 0.55346,-0.67438 0.17822,-0.23471 0.29429,-0.33595 0.43253,-0.35295 z m 23.21099,8.11269 v 5.1e-4 c -0.005,0.0872 0.001,0.15057 0.0351,0.19637 -0.0113,-0.001 -0.0227,-0.002 -0.0341,-0.003 0,-0.0635 -0.007,-0.12554 -0.007,-0.18914 0.002,-0.002 0.004,-0.003 0.006,-0.005 z m -26.23303,1.76216 h 0.42737 c -0.13876,0.002 -0.27148,0.0104 -0.42737,0 z"
       id="path94"
       sodipodi:nodetypes="cccssssccssscssssscscccsscscccccscccccsscsssccsssssssssssssscssscsscccscccccccc" /><ellipse
       style="fill:none;stroke:#ff0000;stroke-width:0.231674"
       id="path93"
       cx="110.77558"
       cy="189.57103"
       rx="61.356258"
       ry="35.972588" /></g></svg>
