<?xml version="1.0" encoding="UTF-8" standalone="no"?>
<!-- Created with Inkscape (http://www.inkscape.org/) -->

<svg
   version="1.1"
   id="svg1"
   width="312.42273"
   height="287.75845"
   viewBox="0 0 312.42272 287.75844"
   sodipodi:docname="IMG_3116.svg"
   inkscape:version="1.3.2 (091e20e, 2023-11-25, custom)"
   xmlns:inkscape="http://www.inkscape.org/namespaces/inkscape"
   xmlns:sodipodi="http://sodipodi.sourceforge.net/DTD/sodipodi-0.dtd"
   xmlns="http://www.w3.org/2000/svg"
   xmlns:svg="http://www.w3.org/2000/svg">
  <defs
     id="defs1" />
  <sodipodi:namedview
     id="namedview1"
     pagecolor="#ffffff"
     bordercolor="#666666"
     borderopacity="1.0"
     inkscape:showpageshadow="2"
     inkscape:pageopacity="0.0"
     inkscape:pagecheckerboard="0"
     inkscape:deskcolor="#d1d1d1"
     showgrid="false"
     inkscape:zoom="0.3449506"
     inkscape:cx="489.92523"
     inkscape:cy="479.77885"
     inkscape:window-width="1920"
     inkscape:window-height="1001"
     inkscape:window-x="-9"
     inkscape:window-y="-9"
     inkscape:window-maximized="1"
     inkscape:current-layer="g1" />
  <g
     inkscape:groupmode="layer"
     inkscape:label="Image"
     id="g1"
     transform="translate(-682.82359,-365.79215)">
    <path
       style="fill:#000000;stroke-width:0.325869"
       d="m 907.48956,598.67223 c -0.48554,-0.90723 -0.79847,-1.05662 -1.70276,-0.81285 -2.37363,0.63987 -27.5265,0.62112 -36.08454,-0.0269 -4.65993,-0.35285 -12.28527,-0.84455 -16.9452,-1.09266 -4.65993,-0.24811 -9.35244,-0.53452 -10.42781,-0.63647 -3.32778,-0.31551 -16.53473,-0.3196 -22.20069,-0.007 -2.96427,0.16361 -15.06788,0.36578 -26.89693,0.44926 -11.82905,0.0835 -22.58274,0.24288 -23.89708,0.35421 -1.31434,0.11134 -8.93968,0.40266 -16.9452,0.6474 -8.00551,0.24473 -15.45707,0.64726 -16.559,0.89451 -1.10194,0.24724 -5.53166,0.55221 -9.84383,0.67771 -7.67914,0.22348 -7.83564,0.21033 -7.61326,-0.64006 0.20886,-0.79868 0.5972,-0.86885 4.84716,-0.87596 2.54107,-0.004 6.37981,-0.20225 8.53055,-0.44002 8.52803,-0.94279 13.29959,-1.27629 19.22628,-1.34378 6.07499,-0.0692 6.19152,-0.0886 6.19152,-1.02987 0,-0.52765 -0.18397,-1.52622 -0.40882,-2.21905 -0.22485,-0.69283 -0.49214,-2.08768 -0.59397,-3.09966 -0.21625,-2.14899 -1.72748,-4.16897 -7.07485,-9.45658 -4.04998,-4.00473 -4.7486,-5.06071 -4.08974,-6.18176 0.24902,-0.4237 0.59565,-3.21439 0.77029,-6.20152 0.29311,-5.01333 0.38439,-5.43471 1.18652,-5.47735 0.47794,-0.0254 1.21969,-0.19625 1.64833,-0.37964 0.42864,-0.1834 1.50401,-0.19633 2.38971,-0.0287 0.8857,0.16759 5.71631,0.39356 10.7347,0.50217 14.08328,0.30477 16.34914,0.42751 16.65829,0.90241 0.34768,0.53409 5.96156,1.09725 12.45269,1.24921 2.62868,0.0615 9.56969,0.22941 15.42448,0.37305 6.40341,0.15709 11.94351,0.0843 13.90374,-0.18268 1.79228,-0.24412 5.80047,-0.53609 8.90712,-0.64883 8.9543,-0.32497 15.15285,-0.83553 15.85894,-1.30627 0.35846,-0.23897 1.72137,-0.4345 3.02866,-0.4345 h 2.37696 l 0.31098,-1.73797 c 0.17101,-0.95588 0.42138,-12.19771 0.55629,-24.98183 0.13494,-12.78413 0.3652,-23.88273 0.51168,-24.66355 0.14647,-0.78083 0.5862,-1.60651 0.97718,-1.83485 0.39098,-0.22835 0.50412,-0.42112 0.25147,-0.42838 -0.25268,-0.007 -0.406,-0.64866 -0.34076,-1.42531 0.0652,-0.77666 0.14156,-3.15494 0.16962,-5.28507 0.041,-3.11773 -0.0832,-3.94802 -0.63685,-4.25789 -0.47075,-0.26344 -0.68784,-1.01079 -0.68784,-2.36802 0,-2.03265 -1.5397,-5.53392 -2.24254,-5.09954 -0.20041,0.12387 -0.36442,0.0597 -0.36442,-0.14249 0,-0.20225 -0.53768,-0.40988 -1.19483,-0.46142 -0.65718,-0.0515 -1.68367,-0.19555 -2.28108,-0.32002 -3.16977,-0.6604 -7.4455,-0.98143 -9.55886,-0.7177 l -2.38969,0.29822 v 6.60252 c 0,6.09294 -0.0671,6.65343 -0.869,7.26224 -0.47792,0.36284 -1.28317,0.66594 -1.78941,0.67354 -0.86632,0.013 -0.91742,0.22454 -0.869,3.59838 l 0.0515,3.58456 -1.62935,0.13485 -1.62934,0.13485 v 2.98958 c 0,1.64426 -0.20634,3.1171 -0.45853,3.27297 -0.27843,0.17208 -0.4322,1.93151 -0.3915,4.47919 0.0369,2.30768 -0.14782,4.7462 -0.41043,5.41893 -0.26262,0.67273 -0.4775,1.37455 -0.4775,1.5596 0,0.39315 -1.95952,1.34494 -2.76891,1.34494 -0.30557,0 -0.98598,-0.45818 -1.51207,-1.01817 -0.8469,-0.90149 -0.92335,-1.31227 -0.66715,-3.58456 0.15916,-1.41152 0.55551,-3.09437 0.88079,-3.73967 0.95141,-1.88751 0.76312,-2.51991 -0.75028,-2.51991 -1.31732,0 -1.33649,0.0305 -1.05722,1.68352 0.15642,0.92594 0.0634,2.90244 -0.20676,4.39222 -0.27015,1.48979 -0.53667,3.41969 -0.59227,4.28868 -0.16411,2.56527 -1.3592,2.32876 -2.61826,-0.51816 -0.57894,-1.30909 -1.37618,-2.44699 -1.77165,-2.52866 -0.77671,-0.16038 -2.78925,-5.39819 -2.82154,-7.34318 -0.0251,-1.50506 1.11734,-3.02804 1.65695,-2.20912 0.24564,0.37277 0.48929,0.42635 0.66272,0.14573 0.15084,-0.24407 0.048,-0.5192 -0.22863,-0.61139 -0.27657,-0.0922 -0.5953,-1.28203 -0.70825,-2.64407 -0.17984,-2.16862 -0.3202,-2.47725 -1.12917,-2.48303 -1.29361,-0.009 -4.50496,-1.01106 -5.07807,-1.58417 -0.34723,-0.34723 -0.29017,-1.02994 0.20896,-2.50008 0.37764,-1.11233 0.68662,-2.57499 0.68662,-3.25036 0,-1.18782 -0.0871,-1.23584 -2.66403,-1.46951 -3.70865,-0.33629 -3.98191,-0.71911 -4.16915,-5.84052 -0.0854,-2.33705 -0.22181,-4.83574 -0.30305,-5.55265 -0.0812,-0.71691 -0.17075,-1.52367 -0.19892,-1.79279 -0.0631,-0.60252 -3.32135,-0.97615 -10.65507,-1.22183 -19.10512,-0.64004 -24.92846,-3.88246 -26.43097,-14.71668 -0.74552,-5.37577 -1.16654,-30.60229 -0.55507,-33.25849 0.24658,-1.07113 0.70013,-1.61 1.71033,-2.03209 2.19102,-0.91547 6.39214,-1.22567 8.98825,-0.66366 1.28838,0.2789 5.17756,0.69091 8.64264,0.91558 7.85716,0.50944 13.06825,1.06735 15.78524,1.68998 3.16966,0.72636 6.16347,0.97673 18.97413,1.58679 10.04965,0.47858 11.82453,0.42434 15.5219,-0.47431 1.71821,-0.41761 3.612,-0.666 4.20844,-0.55198 0.90934,0.17383 1.12822,0.008 1.35555,-1.02704 0.14909,-0.67888 0.45159,-1.34588 0.67217,-1.4822 0.22058,-0.13633 0.40105,-0.53787 0.40105,-0.89231 0,-0.79575 0.56965,-1.54202 2.93282,-3.84222 1.01564,-0.98856 1.8466,-1.94554 1.8466,-2.12664 0,-0.18109 1.35116,-1.68846 3.00256,-3.34972 2.08192,-2.09436 3.32807,-3.02047 4.06421,-3.02047 0.58393,0 1.60214,-0.50086 2.26267,-1.11303 0.66054,-0.61216 1.48134,-1.00545 1.82399,-0.87396 0.34265,0.13149 0.50709,0.0515 0.36543,-0.17769 -0.6649,-1.07581 2.87107,-5.22169 4.45352,-5.22169 0.85199,0 4.39204,-1.63742 5.39461,-2.49523 1.50545,-1.28811 7.95319,-2.20563 17.73732,-2.52405 3.46506,-0.11277 8.15758,-0.32544 10.42781,-0.47261 2.27024,-0.14717 5.93626,-0.2507 8.14673,-0.23009 2.29969,0.0214 4.01904,-0.14067 4.01904,-0.37896 0,-0.47884 1.44377,-0.56584 1.89539,-0.1142 0.44191,0.44192 1.48062,0.65034 4.39532,0.88199 2.01997,0.16053 2.81242,0.43827 3.56384,1.24907 0.53146,0.57345 1.15697,1.04263 1.39006,1.04263 0.61006,0 3.52815,4.94693 3.52815,5.98114 0,0.47894 -0.5019,1.19965 -1.11532,1.60158 -0.82995,0.54381 -0.99768,0.87252 -0.65552,1.2848 0.25291,0.30472 0.33115,0.68268 0.17392,0.83992 -0.49656,0.49655 -1.01003,0.31055 -1.01003,-0.36585 0,-0.88794 -0.36634,-0.82306 -2.38973,0.42316 -0.95587,0.58874 -2.36187,1.07655 -3.1244,1.084 -0.76257,0.007 -1.50731,0.20909 -1.65499,0.44805 -0.14772,0.23898 -0.75361,0.4345 -1.34643,0.4345 -0.59285,0 -1.90109,0.43398 -2.90721,0.96439 -2.461,1.29743 -6.86391,1.74348 -17.90547,1.81396 -8.74066,0.0558 -14.77126,-0.19977 -19.63886,-0.83222 -1.91054,-0.24823 -2.64805,-0.11515 -4.77943,0.86242 -6.60165,3.02795 -9.44428,4.90212 -13.15276,8.6717 -1.54638,1.5719 -2.71951,2.87407 -2.60696,2.89372 1.08371,0.18916 3.60946,0.42891 10.84978,1.02989 4.65993,0.3868 10.62334,0.88943 13.252,1.11695 2.62869,0.22752 7.12568,0.52678 9.99333,0.66503 7.352,0.35443 9.67141,0.88833 16.95191,3.9021 7.27389,3.01104 10.96393,6.01398 12.08137,9.83177 0.87294,2.98246 1.29022,4.694 1.42871,5.85998 0.061,0.51374 0.6054,1.90984 1.20976,3.10243 0.60432,1.19259 1.4348,3.50613 1.84553,5.14121 0.66503,2.64756 0.69094,3.66307 0.23677,9.2806 -0.28051,3.46926 -0.38257,6.77855 -0.22684,7.35397 0.24232,0.89523 0.1558,1.01292 -0.59933,0.81545 -0.78056,-0.20412 -0.91237,0.0263 -1.14126,1.99522 -0.14234,1.2243 -0.55678,4.1217 -0.92101,6.43867 -0.69833,4.44227 -0.87929,8.90407 -0.66617,16.42571 0.0934,3.29525 -0.0789,5.33802 -0.62039,7.356 -0.56108,2.09101 -0.78512,4.98751 -0.89067,11.51405 -0.13139,8.12602 -0.6269,11.88693 -1.49541,11.35017 -0.17193,-0.10627 -0.34295,-4.51837 -0.38006,-9.80468 -0.0524,-7.47395 0.0889,-10.30553 0.63561,-12.73241 0.54693,-2.42788 0.68725,-5.24371 0.63189,-12.67979 -0.0682,-9.15659 0.5065,-15.92998 1.69572,-19.98665 0.57269,-1.95351 0.98768,-14.0829 0.55004,-16.07621 -0.2851,-1.29856 -0.6187,-1.77234 -1.31941,-1.87392 -0.80079,-0.11608 -0.92961,-0.40178 -0.88151,-1.95521 0.031,-1.0006 -0.49571,-3.57897 -1.17036,-5.7297 -0.67468,-2.15074 -1.26089,-4.20372 -1.3027,-4.56217 -0.14465,-1.24036 -1.51262,-3.3775 -2.93435,-4.58426 -2.08895,-1.77308 -10.97309,-5.8591 -14.24524,-6.55171 -3.46279,-0.73295 -8.79808,-1.28275 -20.42115,-2.10438 -4.89889,-0.3463 -9.88469,-0.74918 -11.07955,-0.8953 -4.3192,-0.52818 -25.66797,-0.97081 -28.03202,-0.5812 -1.45481,0.23976 -7.54224,0.21469 -15.63445,-0.0644 -10.47339,-0.36121 -14.73291,-0.69293 -20.31481,-1.58205 -6.74348,-1.07415 -7.44086,-1.1062 -15.42448,-0.70899 -7.18188,0.35733 -8.46874,0.32503 -9.1205,-0.22889 -0.57567,-0.48924 -0.64154,-0.78624 -0.27289,-1.23043 0.39763,-0.47911 0.21968,-0.53299 -0.97914,-0.29649 -3.6718,0.72438 -5.66341,2.6483 -4.97776,4.80858 0.14266,0.44951 0.34734,5.4986 0.45483,11.22021 0.28429,15.13216 0.60393,19.57536 1.60757,22.34618 1.06006,2.92662 1.36914,3.30959 3.59367,4.45293 2.85047,1.46503 6.44733,2.04625 15.45355,2.49711 4.65993,0.23328 10.52557,0.72839 13.03476,1.10023 2.5092,0.37185 6.32187,0.66271 8.4726,0.64638 2.15074,-0.0163 6.96574,0.10165 10.69998,0.26221 7.20972,0.30998 9.06943,0.11851 9.06943,-0.93377 0,-0.56879 0.13862,-0.56265 1.06969,0.0474 0.90967,0.59602 1.31339,0.62048 2.69814,0.16348 1.92191,-0.63429 13.23169,-0.30895 17.1515,0.49337 3.02736,0.61965 4.98003,2.28845 6.56923,5.61416 1.41802,2.96751 1.89516,5.72013 2.52295,14.55549 0.70554,9.92995 0.70782,9.51958 -0.0541,9.67187 -0.48356,0.0967 -0.82973,-0.47177 -1.2239,-2.00966 -0.30228,-1.17943 -0.78091,-2.46117 -1.06367,-2.84829 -0.40232,-0.55089 -0.524,1.25738 -0.55981,8.32066 -0.0778,15.32875 -0.59025,49.3375 -0.7711,51.17028 -0.0943,0.95588 -0.233,3.16433 -0.30818,4.90767 -0.0826,1.91533 -0.35989,3.35493 -0.70068,3.63776 -0.3102,0.25743 -0.56399,0.73368 -0.56399,1.05832 0,0.95692 -1.9963,1.18555 -6.01192,0.68853 -4.67287,-0.57837 -38.98465,-0.62421 -48.51686,-0.0648 -6.14003,0.36032 -15.58845,0.81614 -30.12554,1.45332 -2.46978,0.10826 -4.60223,0.30856 -4.73878,0.44511 -0.13655,0.13656 0.0636,0.98348 0.44472,1.88206 0.38115,0.89857 0.81913,2.8069 0.97329,4.24073 0.22711,2.11234 0.53687,2.87486 1.63268,4.01905 1.4503,1.51432 1.15659,1.79826 -0.80658,0.77975 -1.38019,-0.71605 -2.31828,-2.16023 -2.34102,-3.60395 -0.008,-0.53768 -0.21263,-0.97761 -0.45369,-0.97761 -0.27374,0 -0.34168,0.93795 -0.18096,2.49833 0.40653,3.94698 0.0289,3.70736 5.29239,3.358 2.56764,-0.17042 4.89544,-0.49194 5.17288,-0.71448 0.31688,-0.25418 0.60929,-0.23496 0.78645,0.0517 0.17692,0.28625 1.16809,0.35218 2.65951,0.17689 1.30762,-0.15368 11.41412,-0.32688 22.45889,-0.38488 11.04476,-0.058 24.38288,-0.24318 29.64022,-0.41152 7.58546,-0.24288 12.74315,-0.11107 24.98332,0.63845 8.48345,0.51948 16.59759,1.05226 18.03142,1.18395 4.62402,0.42469 34.74652,0.18693 35.98528,-0.28404 1.12548,-0.42792 1.16351,-0.55367 1.1552,-3.82055 -0.005,-1.85794 -0.20308,-4.7233 -0.44073,-6.36747 -0.33151,-2.29324 -0.30424,-3.14351 0.11705,-3.65115 0.41124,-0.49549 0.56124,-3.72876 0.59706,-12.86957 0.0438,-11.1733 0.34095,-16.7869 0.94319,-17.81531 0.12676,-0.21647 0.249,-1.27472 0.27161,-2.35166 0.0267,-1.26852 0.25679,-2.03061 0.6535,-2.16404 0.45214,-0.15207 0.52387,0.008 0.27412,0.6137 -0.18604,0.4508 -0.33199,1.01517 -0.32434,1.25414 0.008,0.23897 0.22991,5.61581 0.49392,11.94854 0.35664,8.5546 0.35269,12.61895 -0.0153,15.81281 -0.27239,2.36433 -0.36703,5.29715 -0.21025,6.51739 0.15674,1.22024 0.39567,3.4895 0.5309,5.04281 0.13524,1.55331 0.37381,3.89957 0.53019,5.21391 l 0.28432,2.38971 2.38797,0.29795 c 1.31339,0.16387 6.39616,0.35382 11.29505,0.4221 7.54775,0.10521 9.22438,0.01 10.98613,-0.62382 3.46099,-1.24516 6.82807,-0.86666 6.82807,0.76756 0,0.59095 -6.1485,2.00177 -10.24328,2.35041 -2.48899,0.21192 -14.86051,-0.0942 -20.82291,-0.51521 -1.0551,-0.0745 -1.32994,0.0943 -1.44233,0.88557 -0.18952,1.33452 -1.52063,1.25581 -2.2644,-0.1339 z M 756.73428,582.6213 c -0.29749,-0.35846 -0.71248,-0.65174 -0.92219,-0.65174 -0.20971,0 -0.38129,0.29328 -0.38129,0.65174 0,0.37461 0.39213,0.65174 0.92218,0.65174 0.77046,0 0.8332,-0.10723 0.3813,-0.65174 z m 16.9452,-1.75961 c 9.93084,-0.2892 9.68312,-0.27533 22.37635,-1.25345 6.35916,-0.49003 13.7988,-0.68259 24.54883,-0.63539 8.48345,0.0372 16.91434,0.0424 18.73526,0.0115 l 3.31083,-0.0562 0.30185,-2.06384 c 0.26451,-1.8084 1.04428,-11.13883 0.93753,-11.21793 -0.2782,-0.20614 -20.23938,0.7632 -23.32728,1.1328 -2.29318,0.27448 -7.27897,0.45622 -11.07954,0.40386 -3.80056,-0.0523 -10.50866,0.0259 -14.90691,0.17388 -5.25589,0.17686 -8.18218,0.11524 -8.53764,-0.17976 -0.33273,-0.27615 -3.09604,-0.40924 -7.18178,-0.3459 -4.85003,0.0752 -6.68773,-0.0374 -6.81442,-0.41746 -0.0954,-0.28623 -0.64598,-0.52042 -1.22349,-0.52042 -0.57751,0 -1.05002,-0.19068 -1.05002,-0.42373 0,-0.27533 -0.39037,-0.27533 -1.11452,0 -1.40504,0.53419 -4.66128,0.55159 -5.20735,0.0278 -0.24857,-0.23843 -1.41687,-0.21948 -2.93698,0.0476 -2.10478,0.36986 -2.61016,0.33442 -3.04145,-0.21328 -0.36245,-0.46029 -1.62238,-0.71732 -4.21041,-0.85894 -2.03125,-0.11116 -4.03535,-0.34674 -4.45355,-0.52352 -1.04207,-0.4405 -0.97266,0.38858 0.16091,1.9218 0.72438,0.97978 0.9694,2.09027 1.14649,5.19632 0.21658,3.79845 0.26466,3.95023 1.2512,3.95023 1.18702,0 1.30662,0.35072 0.35651,1.04545 -0.55449,0.40546 0.005,0.89559 3.2587,2.85432 2.16048,1.30064 3.92814,2.48071 3.92814,2.62238 0,0.14167 1.31977,0.10541 2.93282,-0.0806 1.61305,-0.186 6.94102,-0.4549 11.83992,-0.59756 z m 75.75714,-5.30089 c 0.51477,-2.39506 0.83768,-10.40841 0.42959,-10.66062 -1.18398,-0.73174 -1.80658,1.63959 -2.08605,7.94504 -0.0583,1.31434 -0.15857,2.58523 -0.22289,2.8242 -0.21866,0.812 -0.0157,1.08623 0.80424,1.08623 0.54078,0 0.9054,-0.40521 1.07511,-1.19485 z M 823.6167,515.11264 c 0.23964,-0.44775 0.4044,-2.04826 0.36618,-3.55669 l -0.0695,-2.7426 1.72411,-0.57469 c 1.67268,-0.55757 1.71915,-0.62639 1.55869,-2.30896 l -0.16537,-1.73426 h -3.10733 c -1.70899,0 -3.76301,-0.18806 -4.56442,-0.4179 -0.80141,-0.22984 -3.34192,-0.54766 -5.64552,-0.70626 l -4.18841,-0.28837 0.0132,2.97223 0.0132,2.97224 1.50756,0.36597 c 1.44392,0.35052 2.87683,0.63711 3.57136,0.71428 0.17923,0.0199 0.32587,1.27451 0.32587,2.78799 0,1.51348 0.13035,2.88213 0.28966,3.04145 0.15932,0.15931 2.0099,0.28966 4.11241,0.28966 3.29212,0 3.88319,-0.113 4.25839,-0.81409 z m 7.03688,-15.14046 c 0.41249,-0.4152 0.40291,-0.90477 -0.0442,-2.25935 -0.35341,-1.07089 -0.47212,-2.60605 -0.31173,-4.0321 0.14241,-1.26655 0.12162,-2.91336 -0.0463,-3.65957 -0.27015,-1.20091 -0.42096,-1.31353 -1.31299,-0.98045 -0.76427,0.28538 -0.93952,0.59141 -0.72526,1.26646 0.4351,1.37092 -0.18275,4.31729 -0.85153,4.06065 -0.30908,-0.11861 -0.67885,0.0889 -0.82164,0.46106 -0.14283,0.37219 -0.5591,0.67671 -0.92508,0.67671 -0.67999,0 -0.82064,-0.82248 -0.6781,-3.96543 0.0643,-1.41861 -0.0506,-1.59307 -1.15276,-1.7497 -2.70078,-0.38382 -2.82021,-0.21369 -2.66718,3.79873 0.0767,2.01102 -0.007,3.65594 -0.18636,3.65538 -0.17923,-6.5e-4 -0.71692,-0.39205 -1.19487,-0.86999 -0.70355,-0.70356 -0.86899,-1.44831 -0.86899,-3.91209 v -3.0431 l -1.19484,0.10585 c -0.65718,0.0582 -3.09552,-0.0616 -5.41855,-0.26632 -5.18663,-0.45701 -7.29036,-0.14823 -7.29036,1.07005 0,0.47678 -0.42413,1.44056 -0.94252,2.14171 -0.73594,0.99543 -0.95021,1.91708 -0.97761,4.20515 l -0.0351,2.93033 1.73798,0.33575 c 0.95588,0.18467 5.74615,0.45672 10.64507,0.60457 4.89889,0.14784 8.96117,0.40954 9.02729,0.58156 0.17949,0.46701 5.6264,-0.54266 6.23554,-1.15586 z m -19.3535,-3.9722 c -0.14292,-0.23125 -0.38377,-1.60585 -0.53521,-3.05465 -0.22892,-2.19038 -0.15713,-2.67955 0.42614,-2.90337 0.39232,-0.15054 1.02232,0.0517 1.42953,0.4589 0.61195,0.61194 0.66571,1.116 0.33704,3.15998 -0.36826,2.29016 -1.07305,3.28481 -1.6575,2.33914 z m 37.45065,-60.47778 c 1.50053,-1.4405 2.92292,-2.49879 3.16083,-2.35175 0.23789,0.14703 0.40454,0.10616 0.37032,-0.0908 -0.22912,-1.31897 -0.13683,-1.39523 4.63914,-3.8341 0.93593,-0.47794 1.76321,-1.00464 1.83839,-1.17045 0.0752,-0.1658 0.4466,-0.18253 0.82539,-0.0372 0.57054,0.21893 0.63447,0.047 0.37257,-1.00202 -0.64056,-2.5658 -2.80547,-3.71947 -4.92297,-2.6234 -1.56342,0.80927 -5.55526,3.50296 -7.02975,4.74366 -0.64173,0.53998 -2.50649,2.73621 -4.14388,4.88051 -1.63743,2.1443 -3.18954,4.17556 -3.44916,4.51391 -0.39108,0.50965 -0.26116,0.56264 0.75745,0.30889 1.08328,-0.26987 1.19744,-0.20512 0.95955,0.54433 -0.43119,1.35852 1.1018,1.32676 2.59037,-0.0537 0.71691,-0.66484 2.53119,-2.38739 4.03175,-3.82789 z m 35.84819,-10.58775 c 0.52927,-0.33983 1.86628,-0.74936 2.97114,-0.91006 l 2.00882,-0.29219 -0.36911,-1.58826 c -0.20302,-0.87355 -0.37377,-2.39276 -0.37948,-3.37602 l -0.0104,-1.78775 -5.32252,-0.27254 c -2.92742,-0.1499 -6.49568,-0.0887 -7.92951,0.13608 -11.34634,1.77847 -14.14109,2.70242 -13.24407,4.37853 0.25144,0.46979 0.79779,0.85416 1.21415,0.85416 0.41637,0 1.1427,0.26917 1.61407,0.59816 0.66666,0.4653 5.33972,1.23156 7.47866,1.22631 0.18164,-3.3e-4 0.72128,0.22431 1.19923,0.49946 0.47796,0.27514 2.62869,0.6126 4.77943,0.7499 2.15074,0.1373 4.16171,0.28394 4.46881,0.32587 0.30713,0.0419 0.99145,-0.20181 1.52073,-0.54165 z m 11.68593,-0.56046 c 0.40166,-0.11592 0.65871,-0.4359 0.57121,-0.71106 -0.0875,-0.27517 -0.38492,-1.91784 -0.66093,-3.65038 l -0.50183,-3.15006 h -1.91595 -1.91598 v 3.22715 c 0,2.98321 0.0881,3.29645 1.16534,4.14381 0.67598,0.53172 1.45142,0.79795 1.8466,0.63398 0.37468,-0.15547 1.00987,-0.37752 1.41154,-0.49344 z m 6.48792,-1.26961 c 1.30768,-0.20911 1.66135,-0.43935 1.50014,-0.97667 -0.11604,-0.38668 -0.26767,-1.72951 -0.33698,-2.98406 -0.11679,-2.1141 -0.20549,-2.27999 -1.21223,-2.26726 -1.04885,0.0133 -1.05719,0.0357 -0.24284,0.65165 0.70752,0.53515 0.72916,0.63792 0.13426,0.63792 -0.39004,0 -0.81556,-0.17217 -0.94561,-0.38261 -0.13006,-0.21044 -0.70867,-0.47288 -1.28585,-0.58321 -0.9981,-0.19081 -1.06386,-0.065 -1.34659,2.57494 -0.31401,2.932 0.18894,4.30733 1.4045,3.84087 0.34105,-0.13088 1.39009,-0.36108 2.3312,-0.51157 z m 8.21259,-2.29905 c 1.84758,-0.37847 3.90411,-1.66055 3.90411,-2.4339 0,-0.31824 -0.70929,-0.66971 -1.62935,-0.80738 -6.39561,-0.95702 -6.0377,-1.07601 -6.48049,2.15459 l -0.28227,2.05924 1.48049,-0.32988 c 0.81425,-0.18143 2.16765,-0.47063 3.00751,-0.64267 z m -1.96154,-1.77038 c -0.14768,-0.23897 -0.0615,-0.43449 0.19161,-0.43449 0.25307,0 0.46013,0.19552 0.46013,0.43449 0,0.23897 -0.0862,0.43449 -0.19161,0.43449 -0.10539,0 -0.31244,-0.19552 -0.46013,-0.43449 z m 3.69318,-3.91043 c 0,-0.23897 -0.39105,-0.43449 -0.86897,-0.43449 -0.47795,0 -0.86899,0.19552 -0.86899,0.43449 0,0.23897 0.39104,0.43449 0.86899,0.43449 0.47792,0 0.86897,-0.19552 0.86897,-0.43449 z m -32.36967,169.66257 c -0.95587,-0.34759 -1.79684,-0.63493 -1.86876,-0.63853 -0.072,-0.004 -0.4236,-0.70734 -0.7815,-1.56388 -1.74154,-4.16811 1.88665,-9.73946 6.34256,-9.73946 1.03385,0 1.84445,0.49871 3.49752,2.15177 1.97493,1.97494 2.15178,2.32126 2.15178,4.21416 0,1.90759 -0.15978,2.21239 -2.12861,4.06083 -2.40779,2.26053 -4.15425,2.62738 -7.21299,1.51511 z m 6.28283,-8.26956 c -0.28797,-0.34697 -0.79877,-0.63086 -1.13514,-0.63086 -0.44399,0 -0.34017,0.36809 0.37909,1.34367 0.75794,1.0281 1.02453,1.17627 1.1351,0.63087 0.0795,-0.39205 -0.0911,-0.9967 -0.37905,-1.34368 z m -4.32761,-19.57208 c 0,-0.32138 0.35304,-0.43725 0.89803,-0.29474 l 0.89803,0.23484 -0.8964,-1.47037 c -1.10881,-1.81873 -1.26118,-6.06061 -0.24792,-6.90153 0.41212,-0.34202 0.65173,-1.30051 0.65173,-2.60695 0,-1.33167 0.23821,-2.26376 0.67015,-2.62224 1.02115,-0.84746 1.72734,0.0748 1.05732,1.38074 -0.49131,0.95759 -0.47727,0.9783 0.21579,0.31821 0.59295,-0.56477 0.75559,-1.58963 0.81295,-5.12227 0.0415,-2.55679 0.26633,-4.54629 0.53397,-4.72511 0.25424,-0.1699 0.51259,-2.06605 0.57414,-4.21399 0.0689,-2.4062 0.30772,-4.02715 0.62212,-4.22305 0.3886,-0.24214 0.38329,-0.52278 -0.0222,-1.1773 -0.92178,-1.48759 -0.17515,-15.81328 0.9607,-18.43289 0.25564,-0.58954 0.0343,-1.08965 -0.84208,-1.90223 -1.01886,-0.94472 -1.14885,-1.32751 -0.90879,-2.67612 0.15411,-0.86554 0.49419,-4.01196 0.75576,-6.99206 l 0.47561,-5.41836 -1.25783,-0.88178 c -2.58492,-1.81215 -4.86135,-4.39513 -5.37348,-6.09712 -1.26248,-4.19568 -0.91035,-11.94711 0.5427,-11.94711 0.2286,0 0.31329,-0.39131 0.18822,-0.86958 -0.12507,-0.47827 -0.0501,-0.76001 0.16659,-0.6261 0.21667,0.13392 0.39397,0.0733 0.39397,-0.13472 0,-0.20801 0.38231,-0.78858 0.84961,-1.29015 0.62665,-0.67263 1.35363,-0.90432 2.77025,-0.88291 1.30624,0.0197 2.34156,-0.27069 3.2365,-0.90795 1.54908,-1.10305 2.29183,-1.14606 5.47457,-0.31708 5.89715,1.53603 7.46436,3.19496 9.96635,10.54973 0.98637,2.89944 1.02541,3.32276 0.52683,5.71201 -0.857,4.10678 -2.57678,6.43326 -5.52443,7.47342 -1.5992,0.56432 -1.60008,0.56607 -0.94257,1.83757 0.48486,0.93758 0.59239,2.0328 0.40847,4.15937 -0.65327,7.5528 -1.55625,24.57763 -1.67744,31.62597 -0.0797,4.63747 -0.23508,5.8628 -0.82647,6.51739 -0.93323,1.033 -1.15156,7.73872 -0.34532,10.60545 0.49581,1.76282 0.45595,2.29858 -0.36576,4.91635 -1.12457,3.5828 -3.12698,6.21574 -5.53831,7.2824 -2.15005,0.95107 -8.88127,1.04222 -8.88127,0.12026 z m 6.26672,-3.36552 c -0.22977,-0.59874 0.73777,-1.67295 1.39977,-1.55413 0.20439,0.0367 0.85065,0.0435 1.43611,0.0153 1.78182,-0.0861 0.33578,-1.00863 -1.56417,-0.99785 -0.92003,0.005 -2.30644,-0.35862 -3.08087,-0.80852 l -1.40811,-0.818 -0.26976,1.07485 c -0.16019,0.63817 -0.0293,1.37123 0.32187,1.80436 0.40779,0.50281 0.42284,0.62811 0.0485,0.40321 -0.33656,-0.20219 -0.54313,-0.0824 -0.54313,0.31488 0,0.77994 0.64402,1.06863 2.48469,1.11377 0.99918,0.0245 1.33469,-0.13191 1.17508,-0.54782 z m -2.13457,-0.27965 c -0.18897,-0.30575 -0.0795,-0.69559 0.25313,-0.90115 0.79141,-0.48911 0.99674,-0.19827 0.49409,0.6999 -0.30997,0.5539 -0.498,0.60453 -0.74722,0.20125 z m 4.97837,-5.54699 c 0.0163,-0.63982 0.88281,-0.74644 0.88281,-0.10862 0,0.23897 0.18536,0.43449 0.41187,0.43449 0.7171,0 -0.4485,-2.59598 -1.39244,-3.10116 -0.74139,-0.39679 -0.8454,-0.36181 -0.6258,0.21043 0.16473,0.42931 -0.13602,1.00043 -0.80311,1.52518 -0.97881,0.76993 -1.58783,3.04252 -0.662,2.47034 0.22247,-0.13749 0.53452,-0.0396 0.69345,0.2176 0.32375,0.52386 1.47215,-0.74209 1.49522,-1.64826 z m -0.5778,-7.27774 c -0.27771,-0.7237 0.38573,-0.90189 0.80887,-0.21725 0.62013,1.00343 1.03382,0.29668 0.98859,-1.68899 -0.0502,-2.20244 0.64284,-4.49709 1.75155,-5.7997 0.49998,-0.58743 0.59126,-1.56445 0.41301,-4.42139 -0.12582,-2.01703 -0.0554,-4.59529 0.15648,-5.72946 0.21188,-1.13418 0.57887,-4.32587 0.81552,-7.09266 0.23664,-2.76679 0.53116,-5.92065 0.65447,-7.00859 0.17715,-1.56281 0.0478,-2.16734 -0.61582,-2.87973 -0.79001,-0.84794 -0.80047,-1.01489 -0.17581,-2.80135 0.54208,-1.55034 0.57232,-2.26484 0.1646,-3.88533 -0.30114,-1.1967 -0.38414,-3.11301 -0.20895,-4.82306 l 0.29071,-2.83741 -1.41111,-0.28223 c -3.17782,-0.63556 -2.93847,-1.49598 -2.9733,10.68871 -0.0173,6.03401 -0.23492,12.0241 -0.48375,13.31132 -0.58419,3.02201 -0.57862,6.26671 0.0117,6.8571 0.32926,0.32926 0.31273,1.9648 -0.0569,5.62667 -0.46775,4.63457 -0.55058,6.31954 -0.41395,8.42118 0.0235,0.35845 -0.14374,1.53083 -0.3712,2.60528 -0.298,1.40755 -0.27265,2.04322 0.0907,2.27443 0.7376,0.4693 0.84354,0.4097 0.56447,-0.31754 z m 2.53754,-47.58718 c -0.62544,-0.69108 -0.68246,-0.9925 -0.26649,-1.40847 0.61146,-0.61146 1.34385,0.21389 1.35535,1.52736 0.008,0.96876 -0.11695,0.95507 -1.08886,-0.11889 z m 2.07312,-4.76322 c 0.47267,-0.004 0.76038,-0.33988 0.76038,-0.88855 0,-1.1764 1.15019,-1.56322 2.09791,-0.70554 0.69824,0.63187 0.8775,0.6195 2.13878,-0.14751 2.05063,-1.24706 3.29239,-3.98591 3.03961,-6.70413 -0.55098,-5.92489 -3.66153,-9.69881 -8.76823,-10.63813 -1.41795,-0.26082 -2.5988,-0.47422 -2.62406,-0.47422 -0.0254,0 -0.0383,0.5186 -0.029,1.15244 0.009,0.63384 -0.22726,1.2367 -0.52599,1.33969 -0.32059,0.11053 -0.54309,-0.1836 -0.54309,-0.71795 0,-1.17843 -0.665,-1.13552 -2.98874,0.19284 -1.79596,1.02666 -1.9343,1.04462 -2.46973,0.32064 -0.5123,-0.69269 -0.65686,-0.56539 -1.4931,1.31489 -0.80891,1.81882 -0.88666,2.53166 -0.61527,5.64242 0.51119,5.86052 1.52405,7.31055 6.33062,9.06311 1.41151,0.51466 2.68021,1.11991 2.81933,1.34501 0.13911,0.22509 0.67077,0.29714 1.1815,0.16009 0.5107,-0.13704 1.27073,-0.25183 1.68891,-0.2551 z m -2.71557,-6.40708 c 0,-0.22618 -0.4888,-0.63395 -1.08622,-0.90616 -0.92553,-0.42169 -1.08625,-0.78559 -1.08625,-2.45945 0,-1.87457 0.0573,-1.96453 1.25029,-1.96453 0.68765,0 1.49366,-0.29328 1.79118,-0.65174 1.35897,-1.63746 3.91043,0.0664 3.91043,2.61142 0,1.21265 -1.73711,3.25423 -2.76891,3.25423 -0.34979,0 -0.94525,0.11868 -1.32326,0.26373 -0.37798,0.14505 -0.68726,0.0787 -0.68726,-0.1475 z m -13.46925,67.88181 c 0,-0.35845 0.19552,-0.65173 0.43448,-0.65173 0.23896,0 0.43449,0.29328 0.43449,0.65173 0,0.35846 -0.19553,0.65174 -0.43449,0.65174 -0.23896,0 -0.43448,-0.29328 -0.43448,-0.65174 z m 1.12151,-1.36816 c -0.36849,-0.96029 -0.06,-1.18485 0.57562,-0.41899 0.30857,0.37178 0.35194,0.72589 0.10747,0.87699 -0.22553,0.13939 -0.53293,-0.0667 -0.68309,-0.458 z m -70.80865,-26.73806 c -0.37223,-1.86112 0.42123,-2.62528 1.03895,-1.00059 0.48584,1.27788 0.31489,2.38554 -0.36813,2.38554 -0.21662,0 -0.51848,-0.62323 -0.67082,-1.38495 z m 77.508,-14.90851 c 0,-0.59743 0.19553,-1.08623 0.43448,-1.08623 0.23896,0 0.43449,0.4888 0.43449,1.08623 0,0.59742 -0.19553,1.08623 -0.43449,1.08623 -0.23895,0 -0.43448,-0.48881 -0.43448,-1.08623 z m -89.93991,-16.00591 c 0,-0.35484 0.29866,-0.60132 0.66368,-0.54775 0.86844,0.12746 0.87623,0.87226 0.011,1.05241 -0.37108,0.0773 -0.67469,-0.14983 -0.67469,-0.50466 z m 54.31153,-8.10842 c 0,-0.23897 -0.2592,-0.43449 -0.57601,-0.43449 -1.10815,0 -2.45722,-1.99135 -2.73831,-4.04198 -0.27047,-1.97344 -0.21928,-2.09714 1.62615,-3.92899 1.68403,-1.67162 2.20327,-1.92558 4.46881,-2.18556 2.20535,-0.25308 2.75389,-0.1636 3.92763,0.64065 1.21097,0.82976 2.27447,2.72193 3.02928,5.38966 0.3612,1.27643 -1.26414,3.64496 -2.99848,4.36961 -1.7,0.7103 -6.73907,0.8532 -6.73907,0.1911 z m -38.81523,-3.90666 c -1.42265,-1.59668 -1.47127,-3.11712 -0.18043,-5.64329 1.44506,-2.82808 2.86119,-3.69024 5.87636,-3.57758 2.05751,0.0769 2.65662,0.28493 3.4652,1.20332 1.29937,1.47582 1.23768,2.18448 -0.43448,4.99156 -1.04751,1.75842 -1.91693,2.61828 -3.36731,3.33018 -2.7111,1.33071 -3.96612,1.25947 -5.35934,-0.30419 z m 22.95628,0.79267 c -1.54221,-0.85295 -2.82421,-2.23104 -2.82421,-3.03584 0,-1.71899 1.39267,-4.24462 2.64658,-4.79966 0.69511,-0.30769 1.26385,-0.66562 1.26385,-0.7954 0,-0.59443 2.06171,-0.29453 3.48869,0.50747 2.54044,1.42781 3.30796,4.63027 1.72997,7.21837 -0.79811,1.30899 -1.02798,1.41113 -3.14845,1.39889 -1.25811,-0.007 -2.67851,-0.22949 -3.15643,-0.49383 z m 3.48768,-3.42242 c 0.33972,-0.54968 -0.55665,-1.71894 -1.31778,-1.71894 -0.30133,0 -0.64131,0.4888 -0.75553,1.08623 -0.17287,0.90424 -0.04,1.08623 0.79268,1.08623 0.55019,0 1.12646,-0.20409 1.28063,-0.45352 z m -44.08014,2.41902 c -0.81848,-0.29577 -1.84496,-0.97843 -2.28108,-1.51702 -1.82409,-2.25264 -0.18597,-6.50883 3.13101,-8.13507 2.64149,-1.29506 3.62289,-1.2371 4.9077,0.28981 2.72773,3.24173 1.75437,7.49633 -2.17709,9.51615 -1.12636,0.57869 -1.61104,0.55786 -3.58054,-0.15387 z m 0.70485,-4.04746 c 0.31286,-0.19889 0.37551,-0.56475 0.15719,-0.918 -0.42844,-0.69323 -1.32912,-0.26232 -1.32912,0.6359 0,0.69229 0.38202,0.78425 1.17193,0.2821 z m 27.18138,-13.11432 c -5.30961,-1.26049 -3.80093,-7.6075 2.18792,-9.20452 2.59226,-0.69127 3.27505,-0.32245 4.3992,2.37634 l 0.83279,1.99931 -1.26727,1.82937 c -1.21709,1.75688 -3.39868,3.4667 -4.30874,3.37694 -0.23896,-0.0236 -1.06872,-0.19341 -1.8439,-0.37744 z m 3.04623,-4.39335 c -0.27572,-1.05438 -0.83103,-1.06224 -1.38899,-0.0196 -0.5251,0.98118 -0.25173,1.33709 0.81308,1.05863 0.53126,-0.13893 0.72151,-0.48217 0.57591,-1.03897 z m 25.99846,3.28105 c -1.87176,-2.1318 -1.83823,-4.02835 0.10558,-5.97215 2.0494,-2.04938 4.27994,-3.02465 6.12573,-2.67837 2.17869,0.40872 2.87625,1.09042 3.1418,3.0704 0.30547,2.27736 -0.64131,4.12581 -2.98151,5.82105 -2.57231,1.86337 -4.6115,1.78651 -6.3916,-0.24093 z m 5.7309,-2.64692 c 0.35869,-0.35871 -0.89663,-2.76911 -1.44213,-2.76911 -0.23284,0 -0.42334,0.68432 -0.42334,1.52072 0,1.18498 0.17584,1.52072 0.79656,1.52072 0.43809,0 0.91911,-0.12255 1.06891,-0.27233 z m -19.09437,2.63509 c -1.0243,-1.02431 -1.08932,-1.31047 -0.81422,-3.58456 0.47502,-3.92681 2.42343,-6.08057 4.99069,-5.51671 0.72662,0.1596 1.32114,0.45516 1.32114,0.65681 0,0.20164 0.50822,0.97062 1.12936,1.70883 1.51025,1.79479 1.5702,3.97093 0.15127,5.48967 -2.37496,2.54209 -4.99965,3.02455 -6.77824,1.24596 z m -45.78444,-1.35997 c -1.47878,-1.01199 -1.7117,-1.43305 -1.71937,-3.10821 -0.0112,-2.45318 1.21111,-3.94816 4.54326,-5.55666 1.66605,-0.80424 3.46345,-1.46225 3.99422,-1.46225 2.13852,0 5.74455,3.1496 5.20772,4.54856 -0.29416,0.76656 -6.35246,5.29612 -7.84005,5.8617 -1.69776,0.64549 -2.95288,0.56059 -4.18578,-0.28314 z m 3.48788,-1.87177 c 0,-0.23897 -0.64522,-0.43449 -1.43382,-0.43449 -0.78861,0 -1.65751,-0.22369 -1.93091,-0.49708 -0.37311,-0.37312 -0.43632,-0.26476 -0.25346,0.43449 0.19631,0.75069 0.57123,0.93157 1.9309,0.93157 0.92801,0 1.68729,-0.19552 1.68729,-0.43449 z m -0.86898,-2.60696 c 0,-0.23897 -0.18398,-0.43449 -0.40885,-0.43449 -0.22487,0 -0.52969,0.19552 -0.67738,0.43449 -0.14769,0.23897 0.0363,0.4345 0.40885,0.4345 0.37256,0 0.67738,-0.19553 0.67738,-0.4345 z m 6.51738,-1.95521 c 0,-0.0684 -0.29328,-0.23682 -0.65173,-0.37437 -0.39302,-0.15082 -0.65174,-0.002 -0.65174,0.37437 0,0.37657 0.25872,0.52519 0.65174,0.37437 0.35845,-0.13755 0.65173,-0.30602 0.65173,-0.37437 z m -42.59854,-12.82883 c -0.84826,-0.52426 0.21318,-0.84684 1.57625,-0.47904 l 1.26625,0.34167 -1.16677,0.22596 c -0.64172,0.12428 -1.3958,0.0844 -1.67573,-0.0886 z"
       id="path2"
       sodipodi:nodetypes="sssssssssssssssssssssssssssssssscsssssssssssssscsssscccssssssssssssssscsssssssssssssssssssssssssssssssssssssssssssssssssssssssssssssssssssssssssssssssssssssssssssssssssssssssssssssssssssssssssssssssssssssssscssssssscssssscsssssssssssssssssscssssssssssssssssssssssssssssssssscsscssscccssssssssssssssssssscsscssssscssssssssssssssssssssssssssscsscssssscsssssssscccssssssssssssssssssscssssssssssssssssssssssssscscsssssssssscsssscssssssssssssssssssssccssssscsssssssssssssssssssssssssssssssscssssscssssssssssssssscssssssssssssssscssssssssssssssssssssssssssssssssssssssssssssssssssssssssssssssssssssscssssssssssssssssssssssssssssssssssssssssssssssssssscss" />
    <path
       id="path3"
       style="fill:none;stroke:#ff0000;stroke-width:2.52016"
       d="m 992.42338,515.50242 c 7.98892,31.5902 -15.821,63.52386 -43.98256,86.4525 -28.16153,22.92861 -66.35681,35.80851 -106.18325,35.80977 -39.82656,0 -83.52654,50.12002 -106.18328,-35.80977 -8.84356,-33.54082 -26.1356,-58.4447 -43.98254,-86.4525 -20.66228,-32.42597 0.10373,-63.52387 43.98254,-86.45247 32.73025,-17.10301 82.52145,-6.47877 106.18328,-35.80981 41.47813,-51.41604 115.27533,-20.58368 106.18327,35.80981 -8.39307,52.05783 37.22627,59.73659 43.98254,86.45247 z"
       sodipodi:nodetypes="sssssssss" />
  </g>
</svg>
